Exo-Regular.ufo
<glyph name="numbersign" format="1">
  <advance width="685"/>
  <unicode hex="0023"/>
  <note>
    GF Latin Plus glyph
  </note>
  <outline>
    <contour>
      <point x="249" y="281" type="line"/>
      <point x="276" y="448" type="line"/>
      <point x="431" y="448" type="line"/>
      <point x="405" y="281" type="line"/>
    </contour>
    <contour>
      <point x="22" y="230" type="line"/>
      <point x="188" y="230" type="line"/>
      <point x="150" y="0" type="line"/>
      <point x="201" y="0" type="line"/>
      <point x="239" y="230" type="line"/>
      <point x="394" y="230" type="line"/>
      <point x="355" y="0" type="line"/>
      <point x="406" y="0" type="line"/>
      <point x="445" y="230" type="line"/>
      <point x="623" y="230" type="line"/>
      <point x="630" y="281" type="line"/>
      <point x="456" y="281" type="line"/>
      <point x="482" y="448" type="line"/>
      <point x="658" y="448" type="line"/>
      <point x="665" y="499" type="line"/>
      <point x="491" y="499" type="line"/>
      <point x="530" y="732" type="line"/>
      <point x="479" y="732" type="line"/>
      <point x="440" y="499" type="line"/>
      <point x="286" y="499" type="line"/>
      <point x="326" y="732" type="line"/>
      <point x="275" y="732" type="line"/>
      <point x="235" y="499" type="line"/>
      <point x="65" y="499" type="line"/>
      <point x="56" y="448" type="line"/>
      <point x="225" y="448" type="line"/>
      <point x="198" y="281" type="line"/>
      <point x="30" y="281" type="line"/>
    </contour>
  </outline>
</glyph>
<glyph name="ampersand" format="1">
  <advance width="673"/>
  <unicode hex="0026"/>
  <note>
    GF Latin Plus glyph
  </note>
  <outline>
    <contour>
      <point x="247" y="68" type="curve" smooth="yes"/>
      <point x="167" y="68"/>
      <point x="116" y="119"/>
      <point x="116" y="197" type="curve" smooth="yes"/>
      <point x="116" y="243"/>
      <point x="134" y="288"/>
      <point x="188" y="334" type="curve" smooth="yes"/>
      <point x="240" y="379" type="line"/>
      <point x="405" y="157" type="line"/>
      <point x="373" y="127" type="line" smooth="yes"/>
      <point x="326" y="81"/>
      <point x="289" y="68"/>
    </contour>
    <contour>
      <point x="235" y="-6" type="curve" smooth="yes"/>
      <point x="300" y="-6"/>
      <point x="352" y="15"/>
      <point x="415" y="73" type="curve" smooth="yes"/>
      <point x="449" y="103" type="line"/>
      <point x="526" y="0" type="line"/>
      <point x="612" y="0" type="line"/>
      <point x="501" y="149" type="line"/>
      <point x="569" y="214" type="line"/>
      <point x="638" y="307" type="line"/>
      <point x="609" y="341" type="line"/>
      <point x="460" y="202" type="line"/>
      <point x="261" y="473" type="line" smooth="yes"/>
      <point x="225" y="522"/>
      <point x="211" y="554"/>
      <point x="211" y="587" type="curve" smooth="yes"/>
      <point x="211" y="643"/>
      <point x="254" y="664"/>
      <point x="316" y="664" type="curve" smooth="yes"/>
      <point x="474" y="664" type="line"/>
      <point x="474" y="721" type="line"/>
      <point x="433" y="728"/>
      <point x="381" y="734"/>
      <point x="303" y="734" type="curve" smooth="yes"/>
      <point x="210" y="734"/>
      <point x="132" y="699"/>
      <point x="132" y="601" type="curve" smooth="yes"/>
      <point x="132" y="564"/>
      <point x="141" y="519"/>
      <point x="183" y="461" type="curve" smooth="yes"/>
      <point x="201" y="434" type="line"/>
      <point x="135" y="378" type="line" smooth="yes"/>
      <point x="70" y="323"/>
      <point x="40" y="259"/>
      <point x="40" y="189" type="curve" smooth="yes"/>
      <point x="40" y="71"/>
      <point x="123" y="-6"/>
    </contour>
  </outline>
</glyph>
<glyph name="quotesingle" format="1">
  <advance width="159"/>
  <unicode hex="0027"/>
  <note>
    GF Latin Plus glyph
  </note>
  <outline>
    <contour>
      <point x="40" y="679" type="line"/>
      <point x="48" y="507" type="line"/>
      <point x="109" y="507" type="line"/>
      <point x="117" y="679" type="line"/>
      <point x="117" y="746" type="line"/>
      <point x="40" y="746" type="line"/>
    </contour>
  </outline>
</glyph>
<glyph name="parenleft" format="1">
  <advance width="347"/>
  <unicode hex="0028"/>
  <note>
    GF Latin Plus glyph
  </note>
  <outline>
    <contour>
      <point x="82" y="326" type="curve" smooth="yes"/>
      <point x="82" y="23"/>
      <point x="219" y="-177"/>
      <point x="251" y="-210" type="curve"/>
      <point x="325" y="-210" type="line"/>
      <point x="292" y="-157"/>
      <point x="161" y="50"/>
      <point x="161" y="326" type="curve" smooth="yes"/>
      <point x="161" y="584"/>
      <point x="298" y="817"/>
      <point x="324" y="860" type="curve"/>
      <point x="251" y="860" type="line"/>
      <point x="221" y="827"/>
      <point x="82" y="596"/>
    </contour>
  </outline>
</glyph>
<glyph name="parenright" format="1">
  <advance width="347"/>
  <unicode hex="0029"/>
  <note>
    GF Latin Plus glyph
  </note>
  <outline>
    <contour>
      <point x="22" y="-210" type="curve"/>
      <point x="97" y="-210" type="line"/>
      <point x="128" y="-175"/>
      <point x="266" y="28"/>
      <point x="266" y="325" type="curve" smooth="yes"/>
      <point x="266" y="600"/>
      <point x="130" y="825"/>
      <point x="97" y="860" type="curve"/>
      <point x="22" y="860" type="line"/>
      <point x="56" y="805"/>
      <point x="185" y="582"/>
      <point x="185" y="325" type="curve" smooth="yes"/>
      <point x="185" y="49"/>
      <point x="49" y="-166"/>
    </contour>
  </outline>
</glyph>
<glyph name="asterisk" format="1">
  <advance width="452"/>
  <unicode hex="002A"/>
  <note>
    GF Latin Plus glyph
  </note>
  <outline>
    <contour>
      <point x="55" y="583" type="line"/>
      <point x="197" y="578" type="line"/>
      <point x="195" y="625" type="line"/>
      <point x="55" y="616" type="line"/>
    </contour>
    <contour>
      <point x="189" y="723" type="line"/>
      <point x="240" y="590" type="line"/>
      <point x="286" y="609" type="line"/>
      <point x="221" y="733" type="line"/>
    </contour>
    <contour>
      <point x="265" y="558" type="line"/>
      <point x="297" y="521" type="line"/>
      <point x="399" y="614" type="line"/>
      <point x="379" y="641" type="line"/>
    </contour>
    <contour>
      <point x="218" y="483" type="line"/>
      <point x="340" y="414" type="line"/>
      <point x="360" y="440" type="line"/>
      <point x="243" y="525" type="line"/>
    </contour>
    <contour>
      <point x="124" y="412" type="line"/>
      <point x="155" y="402" type="line"/>
      <point x="202" y="537" type="line"/>
      <point x="154" y="547" type="line"/>
    </contour>
  </outline>
</glyph>
<glyph name="period" format="1">
  <advance width="201"/>
  <unicode hex="002E"/>
  <note>
    GF Latin Plus glyph
  </note>
  <outline>
    <contour>
      <point x="62" y="15" type="line" smooth="yes"/>
      <point x="62" y="6"/>
      <point x="69" y="-1"/>
      <point x="78" y="-1" type="curve" smooth="yes"/>
      <point x="123" y="-1" type="line" smooth="yes"/>
      <point x="133" y="-1"/>
      <point x="140" y="4"/>
      <point x="140" y="15" type="curve" smooth="yes"/>
      <point x="140" y="96" type="line" smooth="yes"/>
      <point x="140" y="106"/>
      <point x="135" y="112"/>
      <point x="123" y="112" type="curve" smooth="yes"/>
      <point x="78" y="112" type="line" smooth="yes"/>
      <point x="67" y="112"/>
      <point x="62" y="106"/>
      <point x="62" y="96" type="curve" smooth="yes"/>
    </contour>
  </outline>
</glyph>
<glyph name="zero" format="1">
  <advance width="655"/>
  <unicode hex="0030"/>
  <note>
    GF Latin Plus glyph
  </note>
  <outline>
    <contour>
      <point x="157" y="184" type="curve" smooth="yes"/>
      <point x="157" y="556" type="line" smooth="yes"/>
      <point x="157" y="628"/>
      <point x="201" y="668"/>
      <point x="272" y="668" type="curve" smooth="yes"/>
      <point x="386" y="668" type="line" smooth="yes"/>
      <point x="459" y="668"/>
      <point x="498" y="632"/>
      <point x="498" y="556" type="curve" smooth="yes"/>
      <point x="498" y="184" type="line" smooth="yes"/>
      <point x="498" y="113"/>
      <point x="465" y="71"/>
      <point x="383" y="71" type="curve" smooth="yes"/>
      <point x="274" y="71" type="line" smooth="yes"/>
      <point x="202" y="71"/>
      <point x="157" y="108"/>
    </contour>
    <contour>
      <point x="76" y="173" type="line" smooth="yes"/>
      <point x="76" y="51"/>
      <point x="152" y="-2"/>
      <point x="258" y="-2" type="curve" smooth="yes"/>
      <point x="402" y="-2" type="line" smooth="yes"/>
      <point x="510" y="-2"/>
      <point x="579" y="52"/>
      <point x="579" y="173" type="curve" smooth="yes"/>
      <point x="579" y="563" type="line" smooth="yes"/>
      <point x="579" y="669"/>
      <point x="525" y="742"/>
      <point x="402" y="742" type="curve" smooth="yes"/>
      <point x="259" y="742" type="line" smooth="yes"/>
      <point x="151" y="742"/>
      <point x="76" y="681"/>
      <point x="76" y="563" type="curve" smooth="yes"/>
    </contour>
  </outline>
</glyph>
<glyph name="three" format="1">
  <advance width="585"/>
  <unicode hex="0033"/>
  <note>
    GF Latin Plus glyph
  </note>
  <outline>
    <contour>
      <point x="68" y="667" type="line"/>
      <point x="278" y="667" type="line" smooth="yes"/>
      <point x="376" y="667"/>
      <point x="424" y="626"/>
      <point x="424" y="553" type="curve" smooth="yes"/>
      <point x="424" y="504" type="line" smooth="yes"/>
      <point x="424" y="436"/>
      <point x="375" y="411"/>
      <point x="303" y="408" type="curve" smooth="yes"/>
      <point x="117" y="400" type="line"/>
      <point x="117" y="342" type="line"/>
      <point x="306" y="335" type="line" smooth="yes"/>
      <point x="367" y="333"/>
      <point x="434" y="307"/>
      <point x="434" y="229" type="curve" smooth="yes"/>
      <point x="434" y="180" type="line" smooth="yes"/>
      <point x="434" y="89"/>
      <point x="370" y="68"/>
      <point x="284" y="68" type="curve" smooth="yes"/>
      <point x="43" y="68" type="line"/>
      <point x="43" y="7" type="line"/>
      <point x="111" y="-1"/>
      <point x="205" y="-6"/>
      <point x="310" y="-6" type="curve" smooth="yes"/>
      <point x="439" y="-6"/>
      <point x="514" y="55"/>
      <point x="514" y="168" type="curve" smooth="yes"/>
      <point x="514" y="219" type="line" smooth="yes"/>
      <point x="514" y="316"/>
      <point x="440" y="361"/>
      <point x="396" y="371" type="curve"/>
      <point x="436" y="379"/>
      <point x="502" y="414"/>
      <point x="502" y="506" type="curve" smooth="yes"/>
      <point x="502" y="569" type="line" smooth="yes"/>
      <point x="502" y="672"/>
      <point x="439" y="741"/>
      <point x="307" y="742" type="curve" smooth="yes"/>
      <point x="208" y="742"/>
      <point x="129" y="736"/>
      <point x="68" y="728" type="curve"/>
    </contour>
  </outline>
</glyph>
<glyph name="four" format="1">
  <advance width="595"/>
  <unicode hex="0034"/>
  <note>
    GF Latin Plus glyph
  </note>
  <outline>
    <contour>
      <point x="26" y="231" type="line"/>
      <point x="44" y="188" type="line"/>
      <point x="391" y="188" type="line"/>
      <point x="391" y="1" type="line"/>
      <point x="470" y="1" type="line"/>
      <point x="470" y="188" type="line"/>
      <point x="571" y="201" type="line"/>
      <point x="571" y="256" type="line"/>
      <point x="470" y="256" type="line"/>
      <point x="470" y="521" type="line"/>
      <point x="408" y="521" type="line"/>
      <point x="391" y="452" type="line"/>
      <point x="391" y="256" type="line"/>
      <point x="118" y="256" type="line"/>
      <point x="385" y="736" type="line"/>
      <point x="304" y="736" type="line"/>
    </contour>
  </outline>
</glyph>
<glyph name="five" format="1">
  <advance width="630"/>
  <unicode hex="0035"/>
  <note>
    GF Latin Plus glyph
  </note>
  <outline>
    <contour>
      <point x="83" y="6" type="line"/>
      <point x="153" y="-1"/>
      <point x="247" y="-5"/>
      <point x="337" y="-5" type="curve" smooth="yes"/>
      <point x="474" y="-5"/>
      <point x="567" y="53"/>
      <point x="567" y="173" type="curve" smooth="yes"/>
      <point x="567" y="282" type="line" smooth="yes"/>
      <point x="567" y="377"/>
      <point x="504" y="448"/>
      <point x="389" y="448" type="curve" smooth="yes"/>
      <point x="301" y="448" type="line" smooth="yes"/>
      <point x="239" y="448"/>
      <point x="198" y="422"/>
      <point x="182" y="395" type="curve"/>
      <point x="195" y="662" type="line"/>
      <point x="542" y="662" type="line"/>
      <point x="542" y="736" type="line"/>
      <point x="124" y="736" type="line"/>
      <point x="103" y="295" type="line"/>
      <point x="180" y="295" type="line"/>
      <point x="190" y="352"/>
      <point x="225" y="378"/>
      <point x="286" y="378" type="curve" smooth="yes"/>
      <point x="364" y="378" type="line" smooth="yes"/>
      <point x="446" y="378"/>
      <point x="485" y="336"/>
      <point x="485" y="268" type="curve" smooth="yes"/>
      <point x="485" y="188" type="line" smooth="yes"/>
      <point x="485" y="115"/>
      <point x="427" y="69"/>
      <point x="339" y="69" type="curve" smooth="yes"/>
      <point x="83" y="69" type="line"/>
    </contour>
  </outline>
</glyph>
<glyph name="six" format="1">
  <advance width="623"/>
  <unicode hex="0036"/>
  <note>
    GF Latin Plus glyph
  </note>
  <outline>
    <contour>
      <point x="151" y="347" type="curve"/>
      <point x="336" y="347" type="line" smooth="yes"/>
      <point x="427" y="347"/>
      <point x="480" y="331"/>
      <point x="480" y="248" type="curve" smooth="yes"/>
      <point x="480" y="170" type="line" smooth="yes"/>
      <point x="480" y="89"/>
      <point x="433" y="69"/>
      <point x="373" y="69" type="curve" smooth="yes"/>
      <point x="287" y="69" type="line" smooth="yes"/>
      <point x="200" y="69"/>
      <point x="151" y="125"/>
    </contour>
    <contour>
      <point x="71" y="368" type="curve" smooth="yes"/>
      <point x="71" y="70"/>
      <point x="150" y="-3"/>
      <point x="274" y="-3" type="curve" smooth="yes"/>
      <point x="388" y="-3" type="line" smooth="yes"/>
      <point x="483" y="-3"/>
      <point x="559" y="40"/>
      <point x="559" y="158" type="curve" smooth="yes"/>
      <point x="559" y="261" type="line" smooth="yes"/>
      <point x="559" y="373"/>
      <point x="487" y="415"/>
      <point x="354" y="415" type="curve" smooth="yes"/>
      <point x="298" y="415"/>
      <point x="211" y="413"/>
      <point x="151" y="404" type="curve"/>
      <point x="151" y="583"/>
      <point x="219" y="670"/>
      <point x="333" y="670" type="curve" smooth="yes"/>
      <point x="515" y="670" type="line"/>
      <point x="515" y="731" type="line"/>
      <point x="462" y="737"/>
      <point x="388" y="742"/>
      <point x="332" y="742" type="curve" smooth="yes"/>
      <point x="168" y="742"/>
      <point x="71" y="632"/>
    </contour>
  </outline>
</glyph>
<glyph name="seven" format="1">
  <advance width="544"/>
  <unicode hex="0037"/>
  <note>
    GF Latin Plus glyph
  </note>
  <outline>
    <contour>
      <point x="32" y="654" type="line"/>
      <point x="401" y="654" type="line"/>
      <point x="145" y="0" type="line"/>
      <point x="237" y="0" type="line"/>
      <point x="505" y="694" type="line"/>
      <point x="478" y="736" type="line"/>
      <point x="32" y="736" type="line"/>
    </contour>
  </outline>
</glyph>
<glyph name="eight" format="1">
  <advance width="643"/>
  <unicode hex="0038"/>
  <note>
    GF Latin Plus glyph
  </note>
  <outline>
    <contour>
      <point x="175" y="501" type="curve" smooth="yes"/>
      <point x="175" y="570" type="line" smooth="yes"/>
      <point x="175" y="642"/>
      <point x="203" y="671"/>
      <point x="272" y="671" type="curve" smooth="yes"/>
      <point x="380" y="671" type="line" smooth="yes"/>
      <point x="438" y="671"/>
      <point x="468" y="646"/>
      <point x="468" y="570" type="curve" smooth="yes"/>
      <point x="468" y="501" type="line" smooth="yes"/>
      <point x="468" y="458"/>
      <point x="444" y="410"/>
      <point x="375" y="410" type="curve" smooth="yes"/>
      <point x="272" y="410" type="line" smooth="yes"/>
      <point x="205" y="410"/>
      <point x="175" y="447"/>
    </contour>
    <contour>
      <point x="162" y="156" type="curve" smooth="yes"/>
      <point x="162" y="248" type="line" smooth="yes"/>
      <point x="162" y="316"/>
      <point x="230" y="340"/>
      <point x="272" y="340" type="curve" smooth="yes"/>
      <point x="375" y="340" type="line" smooth="yes"/>
      <point x="451" y="340"/>
      <point x="481" y="313"/>
      <point x="481" y="248" type="curve" smooth="yes"/>
      <point x="481" y="156" type="line" smooth="yes"/>
      <point x="481" y="98"/>
      <point x="450" y="68"/>
      <point x="379" y="68" type="curve" smooth="yes"/>
      <point x="272" y="68" type="line" smooth="yes"/>
      <point x="208" y="68"/>
      <point x="162" y="92"/>
    </contour>
    <contour>
      <point x="81" y="144" type="line" smooth="yes"/>
      <point x="81" y="37"/>
      <point x="156" y="-2"/>
      <point x="261" y="-2" type="curve" smooth="yes"/>
      <point x="396" y="-2" type="line" smooth="yes"/>
      <point x="495" y="-2"/>
      <point x="562" y="38"/>
      <point x="562" y="144" type="curve" smooth="yes"/>
      <point x="562" y="256" type="line" smooth="yes"/>
      <point x="562" y="310"/>
      <point x="537" y="370"/>
      <point x="473" y="383" type="curve"/>
      <point x="524" y="397"/>
      <point x="548" y="458"/>
      <point x="548" y="503" type="curve" smooth="yes"/>
      <point x="548" y="587" type="line" smooth="yes"/>
      <point x="548" y="698"/>
      <point x="488" y="741"/>
      <point x="395" y="741" type="curve" smooth="yes"/>
      <point x="257" y="741" type="line" smooth="yes"/>
      <point x="166" y="741"/>
      <point x="95" y="698"/>
      <point x="95" y="587" type="curve" smooth="yes"/>
      <point x="95" y="503" type="line" smooth="yes"/>
      <point x="95" y="450"/>
      <point x="112" y="401"/>
      <point x="175" y="373" type="curve"/>
      <point x="132" y="363"/>
      <point x="81" y="321"/>
      <point x="81" y="250" type="curve" smooth="yes"/>
    </contour>
  </outline>
</glyph>
<glyph name="nine" format="1">
  <advance width="623"/>
  <unicode hex="0039"/>
  <note>
    GF Latin Plus glyph
  </note>
  <outline>
    <contour>
      <point x="472" y="391" type="curve"/>
      <point x="289" y="391" type="line" smooth="yes"/>
      <point x="199" y="391"/>
      <point x="146" y="407"/>
      <point x="146" y="489" type="curve" smooth="yes"/>
      <point x="146" y="566" type="line" smooth="yes"/>
      <point x="146" y="646"/>
      <point x="193" y="666"/>
      <point x="252" y="666" type="curve" smooth="yes"/>
      <point x="336" y="666" type="line" smooth="yes"/>
      <point x="424" y="666"/>
      <point x="472" y="611"/>
    </contour>
    <contour>
      <point x="553" y="369" type="curve" smooth="yes"/>
      <point x="553" y="667"/>
      <point x="475" y="740"/>
      <point x="350" y="740" type="curve" smooth="yes"/>
      <point x="236" y="740" type="line" smooth="yes"/>
      <point x="141" y="740"/>
      <point x="65" y="697"/>
      <point x="65" y="579" type="curve" smooth="yes"/>
      <point x="65" y="476" type="line" smooth="yes"/>
      <point x="65" y="364"/>
      <point x="137" y="321"/>
      <point x="270" y="321" type="curve" smooth="yes"/>
      <point x="326" y="321"/>
      <point x="412" y="323"/>
      <point x="472" y="332" type="curve"/>
      <point x="472" y="155"/>
      <point x="405" y="69"/>
      <point x="291" y="69" type="curve" smooth="yes"/>
      <point x="109" y="69" type="line"/>
      <point x="109" y="6" type="line"/>
      <point x="162" y="0"/>
      <point x="235" y="-5"/>
      <point x="293" y="-5" type="curve" smooth="yes"/>
      <point x="457" y="-5"/>
      <point x="553" y="104"/>
    </contour>
  </outline>
</glyph>
<glyph name="question" format="1">
  <advance width="531"/>
  <unicode hex="003F"/>
  <note>
    GF Latin Plus glyph
  </note>
  <outline>
    <contour>
      <point x="45" y="630" type="line"/>
      <point x="113" y="655"/>
      <point x="169" y="668"/>
      <point x="237" y="668" type="curve" smooth="yes"/>
      <point x="331" y="668"/>
      <point x="373" y="631"/>
      <point x="373" y="530" type="curve" smooth="yes"/>
      <point x="373" y="471" type="line" smooth="yes"/>
      <point x="373" y="383"/>
      <point x="328" y="356"/>
      <point x="220" y="356" type="curve" smooth="yes"/>
      <point x="170" y="356" type="line"/>
      <point x="170" y="199" type="line"/>
      <point x="231" y="199" type="line"/>
      <point x="231" y="293" type="line"/>
      <point x="387" y="293"/>
      <point x="453" y="352"/>
      <point x="453" y="470" type="curve" smooth="yes"/>
      <point x="453" y="541" type="line" smooth="yes"/>
      <point x="453" y="663"/>
      <point x="400" y="740"/>
      <point x="257" y="739" type="curve" smooth="yes"/>
      <point x="177" y="738"/>
      <point x="106" y="722"/>
      <point x="45" y="686" type="curve"/>
    </contour>
    <component base="period" xOffset="100"/>
  </outline>
</glyph>
<glyph name="at" format="1">
  <advance width="873"/>
  <unicode hex="0040"/>
  <note>
    GF Latin Plus glyph
  </note>
  <outline>
    <contour>
      <point x="300" y="131" type="curve" smooth="yes"/>
      <point x="300" y="165" type="line" smooth="yes"/>
      <point x="300" y="227"/>
      <point x="350" y="234"/>
      <point x="386" y="236" type="curve" smooth="yes"/>
      <point x="556" y="244" type="line"/>
      <point x="556" y="108" type="line"/>
      <point x="518" y="83"/>
      <point x="435" y="54"/>
      <point x="386" y="54" type="curve" smooth="yes"/>
      <point x="332" y="54"/>
      <point x="300" y="83"/>
    </contour>
    <contour>
      <point x="71" y="7" type="line" smooth="yes"/>
      <point x="71" y="-131"/>
      <point x="154" y="-191"/>
      <point x="262" y="-191" type="curve" smooth="yes"/>
      <point x="584" y="-191" type="line" smooth="yes"/>
      <point x="725" y="-191"/>
      <point x="781" y="-114"/>
      <point x="781" y="13" type="curve" smooth="yes"/>
      <point x="781" y="493" type="line" smooth="yes"/>
      <point x="781" y="643"/>
      <point x="690" y="705"/>
      <point x="581" y="705" type="curve" smooth="yes"/>
      <point x="485" y="705" type="line" smooth="yes"/>
      <point x="359" y="705"/>
      <point x="235" y="699"/>
      <point x="187" y="689" type="curve"/>
      <point x="187" y="642" type="line"/>
      <point x="581" y="642" type="line" smooth="yes"/>
      <point x="671" y="642"/>
      <point x="718" y="581"/>
      <point x="718" y="493" type="curve" smooth="yes"/>
      <point x="718" y="13" type="line" smooth="yes"/>
      <point x="718" y="-78"/>
      <point x="677" y="-127"/>
      <point x="581" y="-127" type="curve" smooth="yes"/>
      <point x="262" y="-127" type="line" smooth="yes"/>
      <point x="203" y="-127"/>
      <point x="134" y="-96"/>
      <point x="134" y="13" type="curve" smooth="yes"/>
      <point x="134" y="325" type="line" smooth="yes"/>
      <point x="134" y="421"/>
      <point x="189" y="449"/>
      <point x="262" y="449" type="curve" smooth="yes"/>
      <point x="453" y="449" type="line" smooth="yes"/>
      <point x="517" y="449"/>
      <point x="556" y="423"/>
      <point x="556" y="357" type="curve" smooth="yes"/>
      <point x="556" y="287" type="line"/>
      <point x="372" y="287" type="line" smooth="yes"/>
      <point x="284" y="287"/>
      <point x="234" y="242"/>
      <point x="234" y="164" type="curve" smooth="yes"/>
      <point x="234" y="118" type="line" smooth="yes"/>
      <point x="234" y="50"/>
      <point x="281" y="-9"/>
      <point x="362" y="-9" type="curve" smooth="yes"/>
      <point x="453" y="-9"/>
      <point x="556" y="61"/>
      <point x="558" y="61" type="curve"/>
      <point x="570" y="0" type="line"/>
      <point x="619" y="0" type="line"/>
      <point x="619" y="362" type="line" smooth="yes"/>
      <point x="619" y="488"/>
      <point x="533" y="512"/>
      <point x="453" y="512" type="curve" smooth="yes"/>
      <point x="262" y="512" type="line" smooth="yes"/>
      <point x="93" y="512"/>
      <point x="71" y="394"/>
      <point x="71" y="329" type="curve" smooth="yes"/>
    </contour>
  </outline>
</glyph>
<glyph name="A" format="1">
  <advance width="674"/>
  <unicode hex="0041"/>
  <note>
    GF Latin Plus glyph
  </note>
  <outline>
    <contour>
      <point x="208" y="282" type="line"/>
      <point x="337" y="666" type="line"/>
      <point x="464" y="282" type="line"/>
    </contour>
    <contour>
      <point x="34" y="0" type="line"/>
      <point x="116" y="0" type="line"/>
      <point x="188" y="210" type="line"/>
      <point x="484" y="210" type="line"/>
      <point x="558" y="0" type="line"/>
      <point x="640" y="0" type="line"/>
      <point x="388" y="736" type="line"/>
      <point x="286" y="736" type="line"/>
    </contour>
    <contour>
      <point x="337" y="810" type="move" name="top"/>
    </contour>
    <contour>
      <point x="630" y="0" type="move" name="ogonek"/>
    </contour>
    <contour>
      <point x="337" y="-150" type="move" name="bottom"/>
    </contour>
  </outline>
</glyph>
<glyph name="B" format="1">
  <advance width="603"/>
  <unicode hex="0042"/>
  <note>
    GF Latin Plus glyph
  </note>
  <outline>
    <contour>
      <point x="157" y="410" type="line"/>
      <point x="157" y="664" type="line"/>
      <point x="343" y="664" type="line" smooth="yes"/>
      <point x="411" y="664"/>
      <point x="460" y="631"/>
      <point x="457" y="536" type="curve" smooth="yes"/>
      <point x="455" y="459"/>
      <point x="411" y="410"/>
      <point x="348" y="410" type="curve" smooth="yes"/>
    </contour>
    <contour>
      <point x="157" y="71" type="line"/>
      <point x="157" y="347" type="line"/>
      <point x="351" y="347" type="line" smooth="yes"/>
      <point x="425" y="347"/>
      <point x="483" y="299"/>
      <point x="483" y="217" type="curve" smooth="yes"/>
      <point x="483" y="101"/>
      <point x="429" y="71"/>
      <point x="351" y="71" type="curve" smooth="yes"/>
    </contour>
    <contour>
      <point x="77" y="0" type="line"/>
      <point x="353" y="0" type="line" smooth="yes"/>
      <point x="480" y="0"/>
      <point x="559" y="47"/>
      <point x="559" y="204" type="curve" smooth="yes"/>
      <point x="559" y="322"/>
      <point x="482" y="370"/>
      <point x="429" y="382" type="curve"/>
      <point x="486" y="398"/>
      <point x="533" y="455"/>
      <point x="533" y="547" type="curve" smooth="yes"/>
      <point x="533" y="673"/>
      <point x="469" y="736"/>
      <point x="343" y="736" type="curve" smooth="yes"/>
      <point x="77" y="736" type="line"/>
    </contour>
    <contour>
      <point x="293" y="810" type="move" name="top"/>
    </contour>
  </outline>
</glyph>
<glyph name="C" format="1">
  <advance width="581"/>
  <unicode hex="0043"/>
  <note>
    GF Latin Plus glyph
  </note>
  <outline>
    <contour>
      <point x="59" y="370" type="curve" smooth="yes"/>
      <point x="59" y="54"/>
      <point x="141" y="-6"/>
      <point x="318" y="-6" type="curve" smooth="yes"/>
      <point x="393" y="-6"/>
      <point x="475" y="3"/>
      <point x="536" y="18" type="curve"/>
      <point x="536" y="80" type="line"/>
      <point x="496" y="73"/>
      <point x="434" y="67"/>
      <point x="334" y="67" type="curve" smooth="yes"/>
      <point x="189" y="67"/>
      <point x="140" y="115"/>
      <point x="140" y="369" type="curve" smooth="yes"/>
      <point x="140" y="617"/>
      <point x="194" y="669"/>
      <point x="337" y="669" type="curve" smooth="yes"/>
      <point x="417" y="669"/>
      <point x="502" y="660"/>
      <point x="536" y="654" type="curve"/>
      <point x="536" y="715" type="line"/>
      <point x="476" y="730"/>
      <point x="388" y="742"/>
      <point x="324" y="742" type="curve" smooth="yes"/>
      <point x="143" y="742"/>
      <point x="59" y="669"/>
    </contour>
    <contour>
      <point x="323" y="810" type="move" name="top"/>
    </contour>
    <contour>
      <point x="333" y="-150" type="move" name="bottom"/>
    </contour>
  </outline>
</glyph>
<glyph name="D" format="1">
  <advance width="669"/>
  <unicode hex="0044"/>
  <note>
    GF Latin Plus glyph
  </note>
  <outline>
    <contour>
      <point x="158" y="73" type="line"/>
      <point x="158" y="662" type="line"/>
      <point x="362" y="662" type="line" smooth="yes"/>
      <point x="479" y="662"/>
      <point x="530" y="586"/>
      <point x="530" y="368" type="curve" smooth="yes"/>
      <point x="530" y="187"/>
      <point x="478" y="73"/>
      <point x="362" y="73" type="curve" smooth="yes"/>
    </contour>
    <contour>
      <point x="77" y="0" type="line"/>
      <point x="368" y="0" type="line" smooth="yes"/>
      <point x="529" y="0"/>
      <point x="611" y="136"/>
      <point x="611" y="368" type="curve" smooth="yes"/>
      <point x="611" y="604"/>
      <point x="546" y="736"/>
      <point x="368" y="736" type="curve" smooth="yes"/>
      <point x="77" y="736" type="line"/>
    </contour>
    <contour>
      <point x="318" y="810" type="move" name="top"/>
    </contour>
    <contour>
      <point x="303" y="-150" type="move" name="bottom"/>
    </contour>
  </outline>
</glyph>
<glyph name="E" format="1">
  <advance width="587"/>
  <unicode hex="0045"/>
  <note>
    GF Latin Plus glyph
  </note>
  <outline>
    <contour>
      <point x="77" y="139" type="line" smooth="yes"/>
      <point x="77" y="9"/>
      <point x="168" y="-5"/>
      <point x="233" y="-4" type="curve" smooth="yes"/>
      <point x="266" y="-4"/>
      <point x="501" y="2"/>
      <point x="530" y="6" type="curve"/>
      <point x="530" y="70" type="line"/>
      <point x="246" y="70" type="line" smooth="yes"/>
      <point x="201" y="70"/>
      <point x="157" y="82"/>
      <point x="157" y="157" type="curve" smooth="yes"/>
      <point x="157" y="330" type="line"/>
      <point x="486" y="335" type="line"/>
      <point x="486" y="396" type="line"/>
      <point x="157" y="401" type="line"/>
      <point x="157" y="575" type="line" smooth="yes"/>
      <point x="157" y="636"/>
      <point x="189" y="663"/>
      <point x="242" y="663" type="curve" smooth="yes"/>
      <point x="530" y="663" type="line"/>
      <point x="530" y="727" type="line"/>
      <point x="507" y="729"/>
      <point x="277" y="736"/>
      <point x="222" y="736" type="curve" smooth="yes"/>
      <point x="152" y="736"/>
      <point x="77" y="701"/>
      <point x="77" y="588" type="curve" smooth="yes"/>
    </contour>
    <contour>
      <point x="311" y="810" type="move" name="top"/>
    </contour>
    <contour>
      <point x="520" y="6" type="move" name="ogonek"/>
    </contour>
    <contour>
      <point x="320" y="-150" type="move" name="bottom"/>
    </contour>
  </outline>
</glyph>
<glyph name="G" format="1">
  <advance width="653"/>
  <unicode hex="0047"/>
  <note>
    GF Latin Plus glyph
  </note>
  <outline>
    <contour>
      <point x="59" y="370" type="curve" smooth="yes"/>
      <point x="59" y="112"/>
      <point x="107" y="-6"/>
      <point x="295" y="-5" type="curve" smooth="yes"/>
      <point x="378" y="-4"/>
      <point x="456" y="27"/>
      <point x="504" y="52" type="curve"/>
      <point x="516" y="0" type="line"/>
      <point x="576" y="0" type="line"/>
      <point x="576" y="389" type="line"/>
      <point x="553" y="392"/>
      <point x="521" y="393"/>
      <point x="486" y="393" type="curve" smooth="yes"/>
      <point x="424" y="393"/>
      <point x="360" y="389"/>
      <point x="321" y="383" type="curve"/>
      <point x="321" y="322" type="line"/>
      <point x="498" y="322" type="line"/>
      <point x="498" y="107" type="line"/>
      <point x="451" y="89"/>
      <point x="380" y="70"/>
      <point x="317" y="70" type="curve" smooth="yes"/>
      <point x="178" y="70"/>
      <point x="140" y="136"/>
      <point x="140" y="369" type="curve" smooth="yes"/>
      <point x="140" y="586"/>
      <point x="177" y="669"/>
      <point x="321" y="669" type="curve" smooth="yes"/>
      <point x="410" y="669"/>
      <point x="505" y="660"/>
      <point x="546" y="655" type="curve"/>
      <point x="546" y="716" type="line"/>
      <point x="477" y="731"/>
      <point x="387" y="742"/>
      <point x="308" y="742" type="curve" smooth="yes"/>
      <point x="111" y="742"/>
      <point x="59" y="619"/>
    </contour>
    <contour>
      <point x="328" y="810" type="move" name="top"/>
    </contour>
    <contour>
      <point x="340" y="-150" type="move" name="bottom"/>
    </contour>
  </outline>
</glyph>
<glyph name="H" format="1">
  <advance width="682"/>
  <unicode hex="0048"/>
  <note>
    GF Latin Plus glyph
  </note>
  <outline>
    <contour>
      <point x="77" y="0" type="line"/>
      <point x="157" y="0" type="line"/>
      <point x="157" y="324" type="line"/>
      <point x="525" y="324" type="line"/>
      <point x="525" y="0" type="line"/>
      <point x="604" y="0" type="line"/>
      <point x="604" y="736" type="line"/>
      <point x="525" y="736" type="line"/>
      <point x="525" y="395" type="line"/>
      <point x="157" y="395" type="line"/>
      <point x="157" y="736" type="line"/>
      <point x="77" y="736" type="line"/>
    </contour>
    <contour>
      <point x="341" y="810" type="move" name="top"/>
    </contour>
    <contour>
      <point x="341" y="-150" type="move" name="bottom"/>
    </contour>
  </outline>
</glyph>
<glyph name="K" format="1">
  <advance width="605"/>
  <unicode hex="004B"/>
  <note>
    GF Latin Plus glyph
  </note>
  <outline>
    <contour>
      <point x="77" y="0" type="line"/>
      <point x="157" y="0" type="line"/>
      <point x="157" y="331" type="line"/>
      <point x="286" y="331" type="line"/>
      <point x="490" y="0" type="line"/>
      <point x="575" y="0" type="line"/>
      <point x="349" y="368" type="line"/>
      <point x="572" y="736" type="line"/>
      <point x="488" y="736" type="line"/>
      <point x="286" y="403" type="line"/>
      <point x="157" y="403" type="line"/>
      <point x="157" y="736" type="line"/>
      <point x="77" y="736" type="line"/>
    </contour>
    <contour>
      <point x="293" y="810" type="move" name="top"/>
    </contour>
    <contour>
      <point x="293" y="-150" type="move" name="bottom"/>
    </contour>
  </outline>
</glyph>
<glyph name="L" format="1">
  <advance width="532"/>
  <unicode hex="004C"/>
  <note>
    GF Latin Plus glyph
  </note>
  <outline>
    <contour>
      <point x="77" y="145" type="line" smooth="yes"/>
      <point x="77" y="33"/>
      <point x="138" y="0"/>
      <point x="222" y="0" type="curve" smooth="yes"/>
      <point x="506" y="0" type="line"/>
      <point x="506" y="73" type="line"/>
      <point x="242" y="73" type="line" smooth="yes"/>
      <point x="198" y="73"/>
      <point x="157" y="87"/>
      <point x="157" y="159" type="curve" smooth="yes"/>
      <point x="157" y="736" type="line"/>
      <point x="77" y="736" type="line"/>
    </contour>
    <contour>
      <point x="117" y="810" type="move" name="top"/>
    </contour>
    <contour>
      <point x="197" y="650" type="move" name="altcaron"/>
    </contour>
    <contour>
      <point x="273" y="-150" type="move" name="bottom"/>
    </contour>
  </outline>
</glyph>
<glyph name="P" format="1">
  <advance width="604"/>
  <unicode hex="0050"/>
  <note>
    GF Latin Plus glyph
  </note>
  <outline>
    <contour>
      <point x="157" y="330" type="line"/>
      <point x="157" y="664" type="line"/>
      <point x="363" y="664" type="line" smooth="yes"/>
      <point x="426" y="664"/>
      <point x="482" y="630"/>
      <point x="482" y="500" type="curve" smooth="yes"/>
      <point x="482" y="368"/>
      <point x="426" y="330"/>
      <point x="356" y="330" type="curve" smooth="yes"/>
    </contour>
    <contour>
      <point x="77" y="0" type="line"/>
      <point x="157" y="0" type="line"/>
      <point x="157" y="269" type="line"/>
      <point x="197" y="266"/>
      <point x="324" y="259"/>
      <point x="366" y="259" type="curve" smooth="yes"/>
      <point x="450" y="259"/>
      <point x="562" y="295"/>
      <point x="562" y="501" type="curve" smooth="yes"/>
      <point x="562" y="703"/>
      <point x="456" y="736"/>
      <point x="370" y="736" type="curve" smooth="yes"/>
      <point x="77" y="736" type="line"/>
    </contour>
    <contour>
      <point x="290" y="810" type="move" name="top"/>
    </contour>
  </outline>
</glyph>
<glyph name="R" format="1">
  <advance width="608"/>
  <unicode hex="0052"/>
  <note>
    GF Latin Plus glyph
  </note>
  <outline>
    <contour>
      <point x="77" y="0" type="line"/>
      <point x="157" y="0" type="line"/>
      <point x="157" y="305" type="line"/>
      <point x="200" y="303"/>
      <point x="309" y="302"/>
      <point x="345" y="301" type="curve"/>
      <point x="488" y="0" type="line"/>
      <point x="569" y="0" type="line"/>
      <point x="418" y="312" type="line"/>
      <point x="479" y="324"/>
      <point x="558" y="359"/>
      <point x="558" y="519" type="curve" smooth="yes"/>
      <point x="558" y="703"/>
      <point x="462" y="736"/>
      <point x="367" y="736" type="curve" smooth="yes"/>
      <point x="77" y="736" type="line"/>
    </contour>
    <contour>
      <point x="157" y="366" type="line"/>
      <point x="157" y="664" type="line"/>
      <point x="355" y="664" type="line" smooth="yes"/>
      <point x="420" y="664"/>
      <point x="479" y="642"/>
      <point x="479" y="519" type="curve" smooth="yes"/>
      <point x="479" y="390"/>
      <point x="423" y="366"/>
      <point x="355" y="366" type="curve" smooth="yes"/>
    </contour>
    <contour>
      <point x="293" y="810" type="move" name="top"/>
    </contour>
    <contour>
      <point x="295" y="-150" type="move" name="bottom"/>
    </contour>
  </outline>
</glyph>
<glyph name="S" format="1">
  <advance width="578"/>
  <unicode hex="0053"/>
  <note>
    GF Latin Plus glyph
  </note>
  <outline>
    <contour>
      <point x="60" y="508" type="line" smooth="yes"/>
      <point x="60" y="377"/>
      <point x="133" y="330"/>
      <point x="254" y="330" type="curve" smooth="yes"/>
      <point x="333" y="330" type="line" smooth="yes"/>
      <point x="410" y="330"/>
      <point x="443" y="293"/>
      <point x="443" y="226" type="curve" smooth="yes"/>
      <point x="443" y="176" type="line" smooth="yes"/>
      <point x="443" y="85"/>
      <point x="372" y="65"/>
      <point x="283" y="65" type="curve" smooth="yes"/>
      <point x="203" y="65"/>
      <point x="112" y="68"/>
      <point x="63" y="73" type="curve"/>
      <point x="63" y="12" type="line"/>
      <point x="114" y="2"/>
      <point x="227" y="-6"/>
      <point x="286" y="-6" type="curve" smooth="yes"/>
      <point x="414" y="-6"/>
      <point x="519" y="30"/>
      <point x="519" y="178" type="curve" smooth="yes"/>
      <point x="519" y="235" type="line" smooth="yes"/>
      <point x="519" y="334"/>
      <point x="463" y="406"/>
      <point x="342" y="406" type="curve" smooth="yes"/>
      <point x="257" y="406" type="line" smooth="yes"/>
      <point x="181" y="406"/>
      <point x="136" y="432"/>
      <point x="136" y="513" type="curve" smooth="yes"/>
      <point x="136" y="547" type="line" smooth="yes"/>
      <point x="136" y="645"/>
      <point x="191" y="670"/>
      <point x="282" y="670" type="curve" smooth="yes"/>
      <point x="347" y="670"/>
      <point x="426" y="665"/>
      <point x="486" y="660" type="curve"/>
      <point x="486" y="721" type="line"/>
      <point x="436" y="731"/>
      <point x="337" y="742"/>
      <point x="274" y="742" type="curve" smooth="yes"/>
      <point x="137" y="742"/>
      <point x="60" y="689"/>
      <point x="60" y="550" type="curve" smooth="yes"/>
    </contour>
    <contour>
      <point x="283" y="810" type="move" name="top"/>
    </contour>
    <contour>
      <point x="283" y="-150" type="move" name="bottom"/>
    </contour>
  </outline>
</glyph>
<glyph name="U" format="1">
  <advance width="676"/>
  <unicode hex="0055"/>
  <note>
    GF Latin Plus glyph
  </note>
  <outline>
    <contour>
      <point x="67" y="228" type="line" smooth="yes"/>
      <point x="67" y="45"/>
      <point x="173" y="-6"/>
      <point x="338" y="-6" type="curve" smooth="yes"/>
      <point x="503" y="-6"/>
      <point x="609" y="45"/>
      <point x="609" y="228" type="curve" smooth="yes"/>
      <point x="609" y="736" type="line"/>
      <point x="529" y="736" type="line"/>
      <point x="529" y="228" type="line" smooth="yes"/>
      <point x="529" y="102"/>
      <point x="459" y="66"/>
      <point x="338" y="66" type="curve" smooth="yes"/>
      <point x="217" y="66"/>
      <point x="147" y="102"/>
      <point x="147" y="228" type="curve" smooth="yes"/>
      <point x="147" y="736" type="line"/>
      <point x="67" y="736" type="line"/>
    </contour>
    <contour>
      <point x="334" y="810" type="move" name="top"/>
    </contour>
    <contour>
      <point x="412" y="0" type="move" name="ogonek"/>
    </contour>
    <contour>
      <point x="334" y="-150" type="move" name="bottom"/>
    </contour>
  </outline>
</glyph>
<glyph name="X" format="1">
  <advance width="623"/>
  <unicode hex="0058"/>
  <note>
    GF Latin Plus glyph
  </note>
  <outline>
    <contour>
      <point x="38" y="0" type="line"/>
      <point x="125" y="0" type="line"/>
      <point x="318" y="317" type="line"/>
      <point x="278" y="385" type="line"/>
    </contour>
    <contour>
      <point x="307" y="413" type="line"/>
      <point x="345" y="341" type="line"/>
      <point x="588" y="736" type="line"/>
      <point x="501" y="736" type="line"/>
    </contour>
    <contour>
      <point x="35" y="736" type="line"/>
      <point x="499" y="0" type="line"/>
      <point x="586" y="0" type="line"/>
      <point x="122" y="736" type="line"/>
    </contour>
    <contour>
      <point x="302" y="810" type="move" name="top"/>
    </contour>
    <contour>
      <point x="302" y="-150" type="move" name="bottom"/>
    </contour>
  </outline>
</glyph>
<glyph name="bracketleft" format="1">
  <advance width="333"/>
  <unicode hex="005B"/>
  <note>
    GF Latin Plus glyph
  </note>
  <outline>
    <contour>
      <point x="93" y="-22" type="line" smooth="yes"/>
      <point x="93" y="-94"/>
      <point x="112" y="-210"/>
      <point x="249" y="-210" type="curve" smooth="yes"/>
      <point x="312" y="-210" type="line"/>
      <point x="312" y="-145" type="line"/>
      <point x="268" y="-145" type="line" smooth="yes"/>
      <point x="200" y="-145"/>
      <point x="172" y="-93"/>
      <point x="172" y="-18" type="curve" smooth="yes"/>
      <point x="172" y="650" type="line" smooth="yes"/>
      <point x="172" y="742"/>
      <point x="211" y="777"/>
      <point x="268" y="777" type="curve" smooth="yes"/>
      <point x="312" y="777" type="line"/>
      <point x="312" y="842" type="line"/>
      <point x="249" y="842" type="line" smooth="yes"/>
      <point x="122" y="842"/>
      <point x="93" y="744"/>
      <point x="93" y="660" type="curve" smooth="yes"/>
    </contour>
  </outline>
</glyph>
<glyph name="asciicircum" format="1">
  <advance width="398"/>
  <unicode hex="005E"/>
  <note>
    GF Latin Plus glyph
  </note>
  <outline>
    <contour>
      <point x="55" y="531" type="line"/>
      <point x="104" y="531" type="line"/>
      <point x="204" y="625" type="line"/>
      <point x="295" y="531" type="line"/>
      <point x="343" y="531" type="line"/>
      <point x="233" y="664" type="line"/>
      <point x="177" y="664" type="line"/>
    </contour>
  </outline>
</glyph>
<glyph name="a" format="1">
  <advance width="545"/>
  <unicode hex="0061"/>
  <note>
    GF Latin Plus glyph
  </note>
  <outline>
    <contour>
      <point x="124" y="141" type="curve" smooth="yes"/>
      <point x="124" y="165" type="line" smooth="yes"/>
      <point x="124" y="219"/>
      <point x="154" y="257"/>
      <point x="230" y="260" type="curve" smooth="yes"/>
      <point x="393" y="267" type="line"/>
      <point x="393" y="99" type="line"/>
      <point x="390" y="98"/>
      <point x="273" y="52"/>
      <point x="213" y="53" type="curve" smooth="yes"/>
      <point x="170" y="54"/>
      <point x="124" y="75"/>
    </contour>
    <contour>
      <point x="45" y="128" type="line" smooth="yes"/>
      <point x="45" y="43"/>
      <point x="102" y="-6"/>
      <point x="180" y="-6" type="curve" smooth="yes"/>
      <point x="274" y="-6"/>
      <point x="387" y="53"/>
      <point x="396" y="61" type="curve"/>
      <point x="411" y="0" type="line"/>
      <point x="472" y="0" type="line"/>
      <point x="472" y="377" type="line" smooth="yes"/>
      <point x="472" y="494"/>
      <point x="411" y="543"/>
      <point x="280" y="542" type="curve" smooth="yes"/>
      <point x="196" y="542"/>
      <point x="135" y="534"/>
      <point x="89" y="526" type="curve"/>
      <point x="89" y="479" type="line"/>
      <point x="255" y="479" type="line" smooth="yes"/>
      <point x="367" y="479"/>
      <point x="393" y="439"/>
      <point x="393" y="373" type="curve" smooth="yes"/>
      <point x="393" y="307" type="line"/>
      <point x="212" y="307" type="line" smooth="yes"/>
      <point x="100" y="307"/>
      <point x="45" y="250"/>
      <point x="45" y="166" type="curve" smooth="yes"/>
    </contour>
    <contour>
      <point x="270" y="650" type="move" name="top"/>
    </contour>
    <contour>
      <point x="462" y="0" type="move" name="ogonek"/>
    </contour>
    <contour>
      <point x="270" y="-150" type="move" name="bottom"/>
    </contour>
  </outline>
</glyph>
<glyph name="b" format="1">
  <advance width="578"/>
  <unicode hex="0062"/>
  <note>
    GF Latin Plus glyph
  </note>
  <outline>
    <contour>
      <point x="157" y="104" type="curve"/>
      <point x="157" y="429" type="line"/>
      <point x="205" y="455"/>
      <point x="249" y="474"/>
      <point x="308" y="474" type="curve" smooth="yes"/>
      <point x="384" y="474"/>
      <point x="440" y="440"/>
      <point x="440" y="266" type="curve" smooth="yes"/>
      <point x="440" y="128"/>
      <point x="394" y="62"/>
      <point x="308" y="62" type="curve" smooth="yes"/>
      <point x="245" y="62"/>
      <point x="196" y="84"/>
    </contour>
    <contour>
      <point x="75" y="0" type="line"/>
      <point x="141" y="0" type="line"/>
      <point x="157" y="54" type="line"/>
      <point x="197" y="26"/>
      <point x="259" y="-6"/>
      <point x="334" y="-6" type="curve" smooth="yes"/>
      <point x="467" y="-6"/>
      <point x="522" y="96"/>
      <point x="522" y="263" type="curve" smooth="yes"/>
      <point x="522" y="467"/>
      <point x="459" y="541"/>
      <point x="330" y="541" type="curve" smooth="yes"/>
      <point x="277" y="541"/>
      <point x="208" y="515"/>
      <point x="157" y="486" type="curve"/>
      <point x="157" y="763" type="line"/>
      <point x="75" y="763" type="line"/>
    </contour>
  </outline>
</glyph>
<glyph name="c" format="1">
  <advance width="490"/>
  <unicode hex="0063"/>
  <note>
    GF Latin Plus glyph
  </note>
  <outline>
    <contour>
      <point x="57" y="266" type="curve" smooth="yes"/>
      <point x="57" y="47"/>
      <point x="148" y="-6"/>
      <point x="270" y="-6" type="curve" smooth="yes"/>
      <point x="341" y="-6"/>
      <point x="410" y="2"/>
      <point x="457" y="10" type="curve"/>
      <point x="457" y="58" type="line"/>
      <point x="294" y="58" type="line" smooth="yes"/>
      <point x="196" y="58"/>
      <point x="138" y="95"/>
      <point x="138" y="264" type="curve" smooth="yes"/>
      <point x="138" y="439"/>
      <point x="192" y="478"/>
      <point x="294" y="478" type="curve" smooth="yes"/>
      <point x="449" y="478" type="line"/>
      <point x="449" y="526" type="line"/>
      <point x="391" y="536"/>
      <point x="326" y="540"/>
      <point x="272" y="540" type="curve" smooth="yes"/>
      <point x="140" y="540"/>
      <point x="57" y="487"/>
    </contour>
    <contour>
      <point x="270" y="650" type="move" name="top"/>
    </contour>
    <contour>
      <point x="270" y="-150" type="move" name="bottom"/>
    </contour>
  </outline>
</glyph>
<glyph name="d" format="1">
  <advance width="575"/>
  <unicode hex="0064"/>
  <note>
    GF Latin Plus glyph
  </note>
  <outline>
    <contour>
      <point x="138" y="266" type="curve" smooth="yes"/>
      <point x="138" y="429"/>
      <point x="178" y="478"/>
      <point x="281" y="478" type="curve" smooth="yes"/>
      <point x="335" y="478"/>
      <point x="374" y="466"/>
      <point x="422" y="452" type="curve"/>
      <point x="422" y="105" type="line"/>
      <point x="383" y="84"/>
      <point x="333" y="61"/>
      <point x="272" y="61" type="curve" smooth="yes"/>
      <point x="176" y="61"/>
      <point x="138" y="117"/>
    </contour>
    <contour>
      <point x="57" y="263" type="curve" smooth="yes"/>
      <point x="57" y="77"/>
      <point x="117" y="-6"/>
      <point x="249" y="-6" type="curve" smooth="yes"/>
      <point x="310" y="-6"/>
      <point x="391" y="27"/>
      <point x="422" y="54" type="curve"/>
      <point x="437" y="0" type="line"/>
      <point x="503" y="0" type="line"/>
      <point x="503" y="763" type="line"/>
      <point x="422" y="763" type="line"/>
      <point x="422" y="510" type="line"/>
      <point x="378" y="525"/>
      <point x="318" y="541"/>
      <point x="259" y="541" type="curve" smooth="yes"/>
      <point x="111" y="541"/>
      <point x="57" y="461"/>
    </contour>
    <contour>
      <point x="523" y="650" type="move" name="altcaron"/>
    </contour>
    <contour>
      <point x="287" y="-150" type="move" name="bottom"/>
    </contour>
  </outline>
</glyph>
<glyph name="g" format="1">
  <advance width="576"/>
  <unicode hex="0067"/>
  <note>
    GF Latin Plus glyph
  </note>
  <outline>
    <contour>
      <point x="134" y="359" type="curve" smooth="yes"/>
      <point x="134" y="443"/>
      <point x="180" y="473"/>
      <point x="256" y="473" type="curve" smooth="yes"/>
      <point x="313" y="473" type="line" smooth="yes"/>
      <point x="381" y="473"/>
      <point x="429" y="442"/>
      <point x="429" y="352" type="curve" smooth="yes"/>
      <point x="429" y="294"/>
      <point x="405" y="242"/>
      <point x="304" y="242" type="curve" smooth="yes"/>
      <point x="244" y="242" type="line" smooth="yes"/>
      <point x="176" y="242"/>
      <point x="134" y="276"/>
    </contour>
    <contour>
      <point x="62" y="363" type="curve" smooth="yes"/>
      <point x="62" y="304"/>
      <point x="82" y="239"/>
      <point x="157" y="208" type="curve"/>
      <point x="101" y="196"/>
      <point x="67" y="166"/>
      <point x="67" y="113" type="curve" smooth="yes"/>
      <point x="67" y="56"/>
      <point x="115" y="18"/>
      <point x="198" y="18" type="curve" smooth="yes"/>
      <point x="359" y="18" type="line" smooth="yes"/>
      <point x="450" y="18"/>
      <point x="478" y="-18"/>
      <point x="478" y="-72" type="curve" smooth="yes"/>
      <point x="478" y="-92" type="line" smooth="yes"/>
      <point x="478" y="-157"/>
      <point x="429" y="-187"/>
      <point x="349" y="-187" type="curve" smooth="yes"/>
      <point x="225" y="-187" type="line" smooth="yes"/>
      <point x="152" y="-187"/>
      <point x="106" y="-162"/>
      <point x="106" y="-98" type="curve" smooth="yes"/>
      <point x="106" y="-76" type="line" smooth="yes"/>
      <point x="106" y="-10"/>
      <point x="162" y="18"/>
      <point x="221" y="18" type="curve"/>
      <point x="201" y="50" type="line"/>
      <point x="119" y="50"/>
      <point x="31" y="4"/>
      <point x="31" y="-89" type="curve" smooth="yes"/>
      <point x="31" y="-113" type="line" smooth="yes"/>
      <point x="31" y="-202"/>
      <point x="103" y="-245"/>
      <point x="207" y="-245" type="curve" smooth="yes"/>
      <point x="356" y="-245" type="line" smooth="yes"/>
      <point x="486" y="-245"/>
      <point x="553" y="-187"/>
      <point x="553" y="-89" type="curve" smooth="yes"/>
      <point x="553" y="-67" type="line" smooth="yes"/>
      <point x="553" y="33"/>
      <point x="493" y="80"/>
      <point x="369" y="80" type="curve" smooth="yes"/>
      <point x="192" y="80" type="line" smooth="yes"/>
      <point x="165" y="80"/>
      <point x="136" y="92"/>
      <point x="136" y="124" type="curve" smooth="yes"/>
      <point x="136" y="167"/>
      <point x="171" y="181"/>
      <point x="227" y="181" type="curve" smooth="yes"/>
      <point x="312" y="181" type="line" smooth="yes"/>
      <point x="455" y="181"/>
      <point x="501" y="260"/>
      <point x="501" y="343" type="curve" smooth="yes"/>
      <point x="501" y="435"/>
      <point x="460" y="462"/>
      <point x="433" y="480" type="curve"/>
      <point x="553" y="490" type="line"/>
      <point x="553" y="535" type="line"/>
      <point x="268" y="535" type="line" smooth="yes"/>
      <point x="142" y="535"/>
      <point x="62" y="487"/>
    </contour>
    <contour>
      <point x="289" y="650" type="move" name="top"/>
    </contour>
  </outline>
</glyph>
<glyph name="h" format="1">
  <advance width="588"/>
  <unicode hex="0068"/>
  <note>
    GF Latin Plus glyph
  </note>
  <outline>
    <contour>
      <point x="75" y="0" type="line"/>
      <point x="157" y="0" type="line"/>
      <point x="157" y="417" type="line"/>
      <point x="212" y="449"/>
      <point x="257" y="469"/>
      <point x="324" y="469" type="curve" smooth="yes"/>
      <point x="393" y="469"/>
      <point x="435" y="421"/>
      <point x="435" y="354" type="curve" smooth="yes"/>
      <point x="435" y="0" type="line"/>
      <point x="516" y="0" type="line"/>
      <point x="516" y="363" type="line" smooth="yes"/>
      <point x="516" y="463"/>
      <point x="465" y="543"/>
      <point x="352" y="543" type="curve" smooth="yes"/>
      <point x="278" y="543"/>
      <point x="205" y="510"/>
      <point x="157" y="475" type="curve"/>
      <point x="157" y="763" type="line"/>
      <point x="75" y="763" type="line"/>
    </contour>
    <contour>
      <point x="116" y="883" type="move" name="top"/>
    </contour>
  </outline>
</glyph>
<glyph name="i" format="1">
  <advance width="232"/>
  <unicode hex="0069"/>
  <note>
    GF Latin Plus glyph
  </note>
  <outline>
    <contour>
      <point x="71" y="645" type="line" smooth="yes"/>
      <point x="71" y="635"/>
      <point x="78" y="629"/>
      <point x="87" y="629" type="curve" smooth="yes"/>
      <point x="146" y="629" type="line" smooth="yes"/>
      <point x="155" y="629"/>
      <point x="161" y="634"/>
      <point x="161" y="645" type="curve" smooth="yes"/>
      <point x="161" y="723" type="line" smooth="yes"/>
      <point x="161" y="732"/>
      <point x="156" y="740"/>
      <point x="146" y="740" type="curve" smooth="yes"/>
      <point x="87" y="740" type="line" smooth="yes"/>
      <point x="77" y="740"/>
      <point x="71" y="733"/>
      <point x="71" y="723" type="curve" smooth="yes"/>
    </contour>
    <component base="dotlessi"/>
    <contour>
      <point x="147" y="0" type="move" name="ogonek"/>
    </contour>
    <contour>
      <point x="116" y="-150" type="move" name="bottom"/>
    </contour>
  </outline>
</glyph>
<glyph name="l" format="1">
  <advance width="294"/>
  <unicode hex="006C"/>
  <note>
    GF Latin Plus glyph
  </note>
  <outline>
    <contour>
      <point x="75" y="164" type="line" smooth="yes"/>
      <point x="75" y="40"/>
      <point x="125" y="-1"/>
      <point x="216" y="-1" type="curve" smooth="yes"/>
      <point x="284" y="-1" type="line"/>
      <point x="284" y="57" type="line"/>
      <point x="231" y="64" type="line" smooth="yes"/>
      <point x="184" y="69"/>
      <point x="157" y="88"/>
      <point x="157" y="181" type="curve" smooth="yes"/>
      <point x="157" y="763" type="line"/>
      <point x="75" y="763" type="line"/>
    </contour>
    <contour>
      <point x="177" y="650" type="move" name="altcaron"/>
    </contour>
    <contour>
      <point x="116" y="883" type="move" name="top"/>
    </contour>
    <contour>
      <point x="166" y="-150" type="move" name="bottom"/>
    </contour>
  </outline>
</glyph>
<glyph name="m" format="1">
  <advance width="948"/>
  <unicode hex="006D"/>
  <note>
    GF Latin Plus glyph
  </note>
  <outline>
    <contour>
      <point x="76" y="0" type="line"/>
      <point x="155" y="0" type="line"/>
      <point x="155" y="419" type="line"/>
      <point x="211" y="451"/>
      <point x="256" y="471"/>
      <point x="324" y="471" type="curve" smooth="yes"/>
      <point x="395" y="471"/>
      <point x="436" y="422"/>
      <point x="436" y="354" type="curve" smooth="yes"/>
      <point x="436" y="0" type="line"/>
      <point x="515" y="0" type="line"/>
      <point x="515" y="353" type="line" smooth="yes"/>
      <point x="515" y="374"/>
      <point x="511" y="394"/>
      <point x="505" y="413" type="curve"/>
      <point x="558" y="445"/>
      <point x="624" y="471"/>
      <point x="684" y="471" type="curve" smooth="yes"/>
      <point x="754" y="471"/>
      <point x="797" y="422"/>
      <point x="797" y="354" type="curve" smooth="yes"/>
      <point x="797" y="0" type="line"/>
      <point x="876" y="0" type="line"/>
      <point x="876" y="360" type="line" smooth="yes"/>
      <point x="876" y="462"/>
      <point x="825" y="543"/>
      <point x="709" y="543" type="curve" smooth="yes"/>
      <point x="634" y="543"/>
      <point x="543" y="500"/>
      <point x="494" y="464" type="curve"/>
      <point x="469" y="510"/>
      <point x="422" y="543"/>
      <point x="355" y="543" type="curve" smooth="yes"/>
      <point x="274" y="543"/>
      <point x="208" y="511"/>
      <point x="155" y="475" type="curve"/>
      <point x="138" y="534" type="line"/>
      <point x="76" y="534" type="line"/>
    </contour>
    <contour>
      <point x="480" y="650" type="move" name="top"/>
    </contour>
    <contour>
      <point x="474" y="-150" type="move" name="bottom"/>
    </contour>
  </outline>
</glyph>
<glyph name="n" format="1">
  <advance width="588"/>
  <unicode hex="006E"/>
  <note>
    GF Latin Plus glyph
  </note>
  <outline>
    <contour>
      <point x="75" y="0" type="line"/>
      <point x="157" y="0" type="line"/>
      <point x="157" y="417" type="line"/>
      <point x="212" y="450"/>
      <point x="257" y="469"/>
      <point x="324" y="469" type="curve" smooth="yes"/>
      <point x="394" y="469"/>
      <point x="435" y="421"/>
      <point x="435" y="354" type="curve" smooth="yes"/>
      <point x="435" y="0" type="line"/>
      <point x="516" y="0" type="line"/>
      <point x="516" y="363" type="line" smooth="yes"/>
      <point x="516" y="459"/>
      <point x="468" y="543"/>
      <point x="351" y="543" type="curve" smooth="yes"/>
      <point x="278" y="543"/>
      <point x="206" y="510"/>
      <point x="157" y="475" type="curve"/>
      <point x="139" y="534" type="line"/>
      <point x="75" y="534" type="line"/>
    </contour>
    <contour>
      <point x="293" y="650" type="move" name="top"/>
    </contour>
    <contour>
      <point x="293" y="-150" type="move" name="bottom"/>
    </contour>
  </outline>
</glyph>
<glyph name="o" format="1">
  <advance width="577"/>
  <unicode hex="006F"/>
  <note>
    GF Latin Plus glyph
  </note>
  <outline>
    <contour>
      <point x="138" y="268" type="curve" smooth="yes"/>
      <point x="138" y="455"/>
      <point x="189" y="478"/>
      <point x="288" y="478" type="curve" smooth="yes"/>
      <point x="386" y="478"/>
      <point x="439" y="455"/>
      <point x="439" y="268" type="curve" smooth="yes"/>
      <point x="439" y="81"/>
      <point x="386" y="58"/>
      <point x="288" y="58" type="curve" smooth="yes"/>
      <point x="189" y="58"/>
      <point x="138" y="81"/>
    </contour>
    <contour>
      <point x="57" y="268" type="curve" smooth="yes"/>
      <point x="57" y="48"/>
      <point x="132" y="-6"/>
      <point x="288" y="-6" type="curve" smooth="yes"/>
      <point x="445" y="-6"/>
      <point x="520" y="46"/>
      <point x="520" y="268" type="curve" smooth="yes"/>
      <point x="520" y="491"/>
      <point x="443" y="541"/>
      <point x="288" y="541" type="curve" smooth="yes"/>
      <point x="133" y="541"/>
      <point x="57" y="493"/>
    </contour>
    <contour>
      <point x="288" y="650" type="move" name="top"/>
    </contour>
    <contour>
      <point x="330" y="0" type="move" name="ogonek"/>
    </contour>
    <contour>
      <point x="288" y="-150" type="move" name="bottom"/>
    </contour>
  </outline>
</glyph>
<glyph name="p" format="1">
  <advance width="578"/>
  <unicode hex="0070"/>
  <note>
    GF Latin Plus glyph
  </note>
  <outline>
    <contour>
      <point x="155" y="103" type="curve"/>
      <point x="155" y="430" type="line"/>
      <point x="195" y="452"/>
      <point x="246" y="475"/>
      <point x="308" y="475" type="curve" smooth="yes"/>
      <point x="378" y="475"/>
      <point x="442" y="418"/>
      <point x="442" y="268" type="curve" smooth="yes"/>
      <point x="442" y="110"/>
      <point x="384" y="60"/>
      <point x="308" y="60" type="curve" smooth="yes"/>
      <point x="255" y="60"/>
      <point x="201" y="77"/>
    </contour>
    <contour>
      <point x="76" y="-237" type="line"/>
      <point x="155" y="-237" type="line"/>
      <point x="155" y="44" type="line"/>
      <point x="207" y="14"/>
      <point x="271" y="-7"/>
      <point x="330" y="-7" type="curve" smooth="yes"/>
      <point x="463" y="-7"/>
      <point x="521" y="88"/>
      <point x="521" y="268" type="curve" smooth="yes"/>
      <point x="521" y="412"/>
      <point x="469" y="541"/>
      <point x="330" y="541" type="curve" smooth="yes"/>
      <point x="264" y="541"/>
      <point x="191" y="505"/>
      <point x="155" y="479" type="curve"/>
      <point x="140" y="534" type="line"/>
      <point x="76" y="534" type="line"/>
    </contour>
  </outline>
</glyph>
<glyph name="q" format="1">
  <advance width="574"/>
  <unicode hex="0071"/>
  <note>
    GF Latin Plus glyph
  </note>
  <outline>
    <contour>
      <point x="136" y="270" type="curve" smooth="yes"/>
      <point x="136" y="395"/>
      <point x="169" y="479"/>
      <point x="275" y="479" type="curve" smooth="yes"/>
      <point x="423" y="479" type="line"/>
      <point x="423" y="104" type="line"/>
      <point x="373" y="77"/>
      <point x="321" y="59"/>
      <point x="266" y="59" type="curve" smooth="yes"/>
      <point x="173" y="59"/>
      <point x="136" y="118"/>
    </contour>
    <contour>
      <point x="57" y="268" type="curve" smooth="yes"/>
      <point x="57" y="85"/>
      <point x="106" y="-6"/>
      <point x="247" y="-6" type="curve" smooth="yes"/>
      <point x="305" y="-6"/>
      <point x="371" y="19"/>
      <point x="423" y="54" type="curve"/>
      <point x="423" y="-237" type="line"/>
      <point x="502" y="-237" type="line"/>
      <point x="502" y="527" type="line"/>
      <point x="443" y="533"/>
      <point x="352" y="541"/>
      <point x="257" y="541" type="curve" smooth="yes"/>
      <point x="119" y="541"/>
      <point x="57" y="453"/>
    </contour>
  </outline>
</glyph>
<glyph name="s" format="1">
  <advance width="500"/>
  <unicode hex="0073"/>
  <note>
    GF Latin Plus glyph
  </note>
  <outline>
    <contour>
      <point x="49" y="364" type="line" smooth="yes"/>
      <point x="49" y="263"/>
      <point x="114" y="232"/>
      <point x="209" y="232" type="curve" smooth="yes"/>
      <point x="284" y="232" type="line" smooth="yes"/>
      <point x="351" y="232"/>
      <point x="380" y="205"/>
      <point x="380" y="158" type="curve" smooth="yes"/>
      <point x="380" y="135" type="line" smooth="yes"/>
      <point x="380" y="67"/>
      <point x="337" y="57"/>
      <point x="273" y="57" type="curve" smooth="yes"/>
      <point x="54" y="57" type="line"/>
      <point x="54" y="8" type="line"/>
      <point x="90" y="0"/>
      <point x="206" y="-6"/>
      <point x="260" y="-6" type="curve" smooth="yes"/>
      <point x="374" y="-6"/>
      <point x="452" y="22"/>
      <point x="452" y="130" type="curve" smooth="yes"/>
      <point x="452" y="168" type="line" smooth="yes"/>
      <point x="452" y="253"/>
      <point x="396" y="300"/>
      <point x="298" y="300" type="curve" smooth="yes"/>
      <point x="222" y="300" type="line" smooth="yes"/>
      <point x="160" y="300"/>
      <point x="120" y="309"/>
      <point x="120" y="371" type="curve" smooth="yes"/>
      <point x="120" y="393" type="line" smooth="yes"/>
      <point x="120" y="457"/>
      <point x="157" y="475"/>
      <point x="224" y="475" type="curve" smooth="yes"/>
      <point x="430" y="475" type="line"/>
      <point x="430" y="524" type="line"/>
      <point x="387" y="532"/>
      <point x="293" y="539"/>
      <point x="237" y="539" type="curve" smooth="yes"/>
      <point x="103" y="539"/>
      <point x="49" y="493"/>
      <point x="49" y="393" type="curve" smooth="yes"/>
    </contour>
    <contour>
      <point x="240" y="650" type="move" name="top"/>
    </contour>
    <contour>
      <point x="240" y="-150" type="move" name="bottom"/>
    </contour>
  </outline>
</glyph>
<glyph name="t" format="1">
  <advance width="368"/>
  <unicode hex="0074"/>
  <note>
    GF Latin Plus glyph
  </note>
  <outline>
    <contour>
      <point x="20" y="467" type="line"/>
      <point x="105" y="467" type="line"/>
      <point x="101" y="173" type="line" smooth="yes"/>
      <point x="99" y="48"/>
      <point x="150" y="0"/>
      <point x="253" y="0" type="curve" smooth="yes"/>
      <point x="327" y="0" type="line"/>
      <point x="327" y="59" type="line"/>
      <point x="262" y="66" type="line" smooth="yes"/>
      <point x="227" y="69"/>
      <point x="182" y="83"/>
      <point x="182" y="174" type="curve" smooth="yes"/>
      <point x="182" y="467" type="line"/>
      <point x="335" y="467" type="line"/>
      <point x="335" y="534" type="line"/>
      <point x="182" y="534" type="line"/>
      <point x="182" y="683" type="line"/>
      <point x="119" y="683" type="line"/>
      <point x="106" y="534" type="line"/>
      <point x="20" y="520" type="line"/>
    </contour>
    <contour>
      <point x="202" y="650" type="move" name="altcaron"/>
    </contour>
    <contour>
      <point x="194" y="-150" type="move" name="bottom"/>
    </contour>
  </outline>
</glyph>
<glyph name="v" format="1">
  <advance width="536"/>
  <unicode hex="0076"/>
  <note>
    GF Latin Plus glyph
  </note>
  <outline>
    <contour>
      <point x="19" y="534" type="line"/>
      <point x="220" y="0" type="line"/>
      <point x="310" y="0" type="line"/>
      <point x="517" y="534" type="line"/>
      <point x="437" y="534" type="line"/>
      <point x="266" y="74" type="line"/>
      <point x="100" y="534" type="line"/>
    </contour>
  </outline>
</glyph>
<glyph name="w" format="1">
  <advance width="798"/>
  <unicode hex="0077"/>
  <note>
    GF Latin Plus glyph
  </note>
  <outline>
    <contour>
      <point x="19" y="534" type="line"/>
      <point x="180" y="0" type="line"/>
      <point x="268" y="0" type="line"/>
      <point x="399" y="425" type="line"/>
      <point x="529" y="0" type="line"/>
      <point x="619" y="0" type="line"/>
      <point x="779" y="534" type="line"/>
      <point x="696" y="534" type="line"/>
      <point x="570" y="76" type="line"/>
      <point x="436" y="534" type="line"/>
      <point x="366" y="534" type="line"/>
      <point x="231" y="76" type="line"/>
      <point x="102" y="534" type="line"/>
    </contour>
    <contour>
      <point x="403" y="650" type="move" name="top"/>
    </contour>
    <contour>
      <point x="403" y="-150" type="move" name="bottom"/>
    </contour>
  </outline>
</glyph>
<glyph name="x" format="1">
  <advance width="507"/>
  <unicode hex="0078"/>
  <note>
    GF Latin Plus glyph
  </note>
  <outline>
    <contour>
      <point x="22" y="0" type="line"/>
      <point x="107" y="0" type="line"/>
      <point x="256" y="217" type="line"/>
      <point x="221" y="290" type="line"/>
    </contour>
    <contour>
      <point x="248" y="309" type="line"/>
      <point x="286" y="241" type="line"/>
      <point x="486" y="534" type="line"/>
      <point x="400" y="533" type="line"/>
    </contour>
    <contour>
      <point x="22" y="534" type="line"/>
      <point x="398" y="0" type="line"/>
      <point x="486" y="0" type="line"/>
      <point x="109" y="534" type="line"/>
    </contour>
  </outline>
</glyph>
<glyph name="y" format="1">
  <advance width="542"/>
  <unicode hex="0079"/>
  <note>
    GF Latin Plus glyph
  </note>
  <outline>
    <contour>
      <point x="19" y="534" type="line"/>
      <point x="146" y="126" type="line" smooth="yes"/>
      <point x="176" y="29"/>
      <point x="234" y="1"/>
      <point x="287" y="0" type="curve"/>
      <point x="219" y="-237" type="line"/>
      <point x="283" y="-237" type="line"/>
      <point x="329" y="-138" type="line"/>
      <point x="523" y="534" type="line"/>
      <point x="440" y="534" type="line"/>
      <point x="304" y="69" type="line"/>
      <point x="298" y="70"/>
      <point x="249" y="64"/>
      <point x="222" y="143" type="curve" smooth="yes"/>
      <point x="104" y="534" type="line"/>
    </contour>
    <contour>
      <point x="267" y="650" type="move" name="top"/>
    </contour>
    <contour>
      <point x="461" y="-150" type="move" name="bottom"/>
    </contour>
  </outline>
</glyph>
<glyph name="braceleft" format="1">
  <advance width="310"/>
  <unicode hex="007B"/>
  <note>
    GF Latin Plus glyph
  </note>
  <outline>
    <contour>
      <point x="22" y="295" type="line"/>
      <point x="62" y="298"/>
      <point x="100" y="272"/>
      <point x="100" y="228" type="curve" smooth="yes"/>
      <point x="100" y="-38" type="line" smooth="yes"/>
      <point x="100" y="-132"/>
      <point x="130" y="-210"/>
      <point x="288" y="-210" type="curve"/>
      <point x="288" y="-146" type="line"/>
      <point x="213" y="-146"/>
      <point x="182" y="-112"/>
      <point x="182" y="-14" type="curve" smooth="yes"/>
      <point x="182" y="244" type="line" smooth="yes"/>
      <point x="182" y="291"/>
      <point x="145" y="326"/>
      <point x="94" y="334" type="curve"/>
      <point x="145" y="340"/>
      <point x="183" y="370"/>
      <point x="183" y="427" type="curve" smooth="yes"/>
      <point x="183" y="629" type="line" smooth="yes"/>
      <point x="183" y="741"/>
      <point x="216" y="774"/>
      <point x="288" y="774" type="curve"/>
      <point x="288" y="842" type="line"/>
      <point x="145" y="842"/>
      <point x="101" y="760"/>
      <point x="101" y="656" type="curve" smooth="yes"/>
      <point x="101" y="439" type="line" smooth="yes"/>
      <point x="101" y="387"/>
      <point x="55" y="375"/>
      <point x="22" y="372" type="curve"/>
    </contour>
  </outline>
</glyph>
<glyph name="braceright" format="1">
  <advance width="310"/>
  <unicode hex="007D"/>
  <note>
    GF Latin Plus glyph
  </note>
  <outline>
    <contour>
      <point x="22" y="-147" type="curve"/>
      <point x="22" y="-210" type="line"/>
      <point x="180" y="-210"/>
      <point x="209" y="-131"/>
      <point x="209" y="-38" type="curve" smooth="yes"/>
      <point x="209" y="229" type="line" smooth="yes"/>
      <point x="209" y="273"/>
      <point x="248" y="299"/>
      <point x="288" y="296" type="curve"/>
      <point x="288" y="371" type="line"/>
      <point x="255" y="374"/>
      <point x="208" y="386"/>
      <point x="208" y="438" type="curve" smooth="yes"/>
      <point x="208" y="656" type="line" smooth="yes"/>
      <point x="208" y="760"/>
      <point x="165" y="842"/>
      <point x="22" y="842" type="curve"/>
      <point x="22" y="776" type="line"/>
      <point x="95" y="776"/>
      <point x="129" y="742"/>
      <point x="129" y="630" type="curve" smooth="yes"/>
      <point x="129" y="427" type="line" smooth="yes"/>
      <point x="129" y="370"/>
      <point x="167" y="340"/>
      <point x="217" y="334" type="curve"/>
      <point x="167" y="326"/>
      <point x="130" y="291"/>
      <point x="130" y="245" type="curve" smooth="yes"/>
      <point x="130" y="-15" type="line" smooth="yes"/>
      <point x="130" y="-113"/>
      <point x="98" y="-147"/>
    </contour>
  </outline>
</glyph>
<glyph name="asciitilde" format="1">
  <advance width="451"/>
  <unicode hex="007E"/>
  <note>
    GF Latin Plus glyph
  </note>
  <outline>
    <contour>
      <point x="55" y="580" type="curve"/>
      <point x="66" y="553" type="line"/>
      <point x="101" y="579"/>
      <point x="127" y="598"/>
      <point x="162" y="598" type="curve" smooth="yes"/>
      <point x="194" y="598"/>
      <point x="243" y="538"/>
      <point x="288" y="538" type="curve" smooth="yes"/>
      <point x="333" y="538"/>
      <point x="367" y="570"/>
      <point x="396" y="603" type="curve"/>
      <point x="384" y="632" type="line"/>
      <point x="361" y="611"/>
      <point x="325" y="583"/>
      <point x="289" y="583" type="curve" smooth="yes"/>
      <point x="258" y="583"/>
      <point x="210" y="644"/>
      <point x="167" y="644" type="curve" smooth="yes"/>
      <point x="122" y="644"/>
      <point x="86" y="612"/>
    </contour>
  </outline>
</glyph>
<glyph name="cent" format="1">
  <advance width="487"/>
  <unicode hex="00A2"/>
  <note>
    GF Latin Plus glyph
  </note>
  <outline>
    <contour>
      <point x="44" y="266" type="curve" smooth="yes"/>
      <point x="44" y="40"/>
      <point x="130" y="-4"/>
      <point x="239" y="-5" type="curve"/>
      <point x="239" y="-86" type="line"/>
      <point x="286" y="-86" type="line"/>
      <point x="286" y="-5" type="line"/>
      <point x="343" y="-2"/>
      <point x="384" y="5"/>
      <point x="443" y="27" type="curve"/>
      <point x="443" y="75" type="line"/>
      <point x="397" y="65"/>
      <point x="347" y="57"/>
      <point x="266" y="57" type="curve" smooth="yes"/>
      <point x="174" y="57"/>
      <point x="123" y="90"/>
      <point x="123" y="263" type="curve" smooth="yes"/>
      <point x="123" y="444"/>
      <point x="171" y="474"/>
      <point x="261" y="474" type="curve" smooth="yes"/>
      <point x="342" y="474"/>
      <point x="399" y="468"/>
      <point x="436" y="460" type="curve"/>
      <point x="436" y="507" type="line"/>
      <point x="389" y="521"/>
      <point x="333" y="532"/>
      <point x="288" y="535" type="curve"/>
      <point x="288" y="623" type="line"/>
      <point x="240" y="623" type="line"/>
      <point x="240" y="536" type="line"/>
      <point x="124" y="536"/>
      <point x="44" y="493"/>
    </contour>
  </outline>
</glyph>
<glyph name="sterling" format="1">
  <advance width="609"/>
  <unicode hex="00A3"/>
  <note>
    GF Latin Plus glyph
  </note>
  <outline>
    <contour>
      <point x="63" y="0" type="line"/>
      <point x="544" y="0" type="line"/>
      <point x="544" y="73" type="line"/>
      <point x="253" y="73" type="line"/>
      <point x="253" y="333" type="line"/>
      <point x="466" y="340" type="line"/>
      <point x="466" y="386" type="line"/>
      <point x="253" y="393" type="line"/>
      <point x="253" y="525" type="line" smooth="yes"/>
      <point x="253" y="641"/>
      <point x="299" y="665"/>
      <point x="388" y="665" type="curve" smooth="yes"/>
      <point x="533" y="665" type="line"/>
      <point x="533" y="728" type="line"/>
      <point x="498" y="732"/>
      <point x="441" y="738"/>
      <point x="384" y="738" type="curve" smooth="yes"/>
      <point x="250" y="738"/>
      <point x="172" y="690"/>
      <point x="172" y="517" type="curve" smooth="yes"/>
      <point x="172" y="393" type="line"/>
      <point x="63" y="382" type="line"/>
      <point x="63" y="340" type="line"/>
      <point x="172" y="333" type="line"/>
      <point x="172" y="73" type="line"/>
      <point x="63" y="61" type="line"/>
    </contour>
  </outline>
</glyph>
<glyph name="currency" format="1">
  <advance width="609"/>
  <unicode hex="00A4"/>
  <note>
    GF Latin Plus glyph
  </note>
  <outline>
    <contour>
      <point x="304" y="521" type="curve" smooth="yes"/>
      <point x="213" y="521"/>
      <point x="140" y="446"/>
      <point x="140" y="356" type="curve" smooth="yes"/>
      <point x="140" y="266"/>
      <point x="213" y="191"/>
      <point x="304" y="191" type="curve" smooth="yes"/>
      <point x="395" y="191"/>
      <point x="469" y="266"/>
      <point x="469" y="356" type="curve" smooth="yes"/>
      <point x="469" y="446"/>
      <point x="395" y="521"/>
    </contour>
    <contour>
      <point x="218" y="479" type="line"/>
      <point x="114" y="583" type="line"/>
      <point x="77" y="546" type="line"/>
      <point x="181" y="442" type="line"/>
    </contour>
    <contour>
      <point x="425" y="440" type="line"/>
      <point x="531" y="546" type="line"/>
      <point x="494" y="583" type="line"/>
      <point x="388" y="477" type="line"/>
    </contour>
    <contour>
      <point x="531" y="166" type="line"/>
      <point x="425" y="272" type="line"/>
      <point x="388" y="235" type="line"/>
      <point x="494" y="129" type="line"/>
    </contour>
    <contour>
      <point x="114" y="129" type="line"/>
      <point x="222" y="237" type="line"/>
      <point x="185" y="274" type="line"/>
      <point x="77" y="166" type="line"/>
    </contour>
    <contour>
      <point x="304" y="474" type="curve" smooth="yes"/>
      <point x="369" y="474"/>
      <point x="422" y="421"/>
      <point x="422" y="356" type="curve" smooth="yes"/>
      <point x="422" y="292"/>
      <point x="369" y="239"/>
      <point x="304" y="239" type="curve" smooth="yes"/>
      <point x="240" y="239"/>
      <point x="189" y="292"/>
      <point x="189" y="356" type="curve" smooth="yes"/>
      <point x="189" y="421"/>
      <point x="240" y="474"/>
    </contour>
  </outline>
</glyph>
<glyph name="section" format="1">
  <advance width="550"/>
  <unicode hex="00A7"/>
  <note>
    GF Latin Plus glyph
  </note>
  <outline>
    <contour>
      <point x="138" y="360" type="curve" smooth="yes"/>
      <point x="138" y="410" type="line" smooth="yes"/>
      <point x="138" y="469"/>
      <point x="162" y="473"/>
      <point x="220" y="473" type="curve" smooth="yes"/>
      <point x="329" y="473" type="line" smooth="yes"/>
      <point x="397" y="473"/>
      <point x="413" y="461"/>
      <point x="413" y="412" type="curve" smooth="yes"/>
      <point x="413" y="361" type="line" smooth="yes"/>
      <point x="413" y="306"/>
      <point x="402" y="301"/>
      <point x="329" y="301" type="curve" smooth="yes"/>
      <point x="220" y="301" type="line" smooth="yes"/>
      <point x="160" y="301"/>
      <point x="138" y="303"/>
    </contour>
    <contour>
      <point x="60" y="343" type="line" smooth="yes"/>
      <point x="60" y="243"/>
      <point x="116" y="236"/>
      <point x="203" y="236" type="curve" smooth="yes"/>
      <point x="329" y="236" type="line" smooth="yes"/>
      <point x="401" y="236"/>
      <point x="410" y="225"/>
      <point x="410" y="182" type="curve" smooth="yes"/>
      <point x="410" y="129" type="line" smooth="yes"/>
      <point x="410" y="75"/>
      <point x="372" y="61"/>
      <point x="302" y="61" type="curve" smooth="yes"/>
      <point x="96" y="61" type="line"/>
      <point x="96" y="4" type="line"/>
      <point x="143" y="-3"/>
      <point x="261" y="-6"/>
      <point x="323" y="-6" type="curve" smooth="yes"/>
      <point x="401" y="-6"/>
      <point x="491" y="12"/>
      <point x="491" y="127" type="curve" smooth="yes"/>
      <point x="491" y="190" type="line" smooth="yes"/>
      <point x="491" y="223"/>
      <point x="486" y="273"/>
      <point x="433" y="283" type="curve"/>
      <point x="487" y="293"/>
      <point x="492" y="343"/>
      <point x="492" y="382" type="curve" smooth="yes"/>
      <point x="492" y="427" type="line" smooth="yes"/>
      <point x="492" y="507"/>
      <point x="458" y="537"/>
      <point x="345" y="537" type="curve" smooth="yes"/>
      <point x="221" y="537" type="line" smooth="yes"/>
      <point x="165" y="537"/>
      <point x="141" y="549"/>
      <point x="141" y="593" type="curve" smooth="yes"/>
      <point x="141" y="642" type="line" smooth="yes"/>
      <point x="141" y="685"/>
      <point x="162" y="717"/>
      <point x="236" y="717" type="curve" smooth="yes"/>
      <point x="454" y="717" type="line"/>
      <point x="454" y="773" type="line"/>
      <point x="411" y="781"/>
      <point x="279" y="784"/>
      <point x="220" y="784" type="curve" smooth="yes"/>
      <point x="128" y="784"/>
      <point x="59" y="745"/>
      <point x="59" y="647" type="curve" smooth="yes"/>
      <point x="59" y="590" type="line" smooth="yes"/>
      <point x="59" y="555"/>
      <point x="68" y="508"/>
      <point x="121" y="490" type="curve"/>
      <point x="65" y="476"/>
      <point x="60" y="434"/>
      <point x="60" y="395" type="curve" smooth="yes"/>
    </contour>
  </outline>
</glyph>
<glyph name="dieresis" format="1">
  <advance width="413"/>
  <unicode hex="00A8"/>
  <note>
    GF Latin Plus glyph
  </note>
  <outline>
    <contour>
      <point x="75" y="669" type="line" smooth="yes"/>
      <point x="75" y="660"/>
      <point x="82" y="653"/>
      <point x="91" y="653" type="curve" smooth="yes"/>
      <point x="128" y="653" type="line" smooth="yes"/>
      <point x="137" y="653"/>
      <point x="143" y="659"/>
      <point x="143" y="669" type="curve" smooth="yes"/>
      <point x="143" y="747" type="line" smooth="yes"/>
      <point x="143" y="756"/>
      <point x="138" y="763"/>
      <point x="128" y="763" type="curve" smooth="yes"/>
      <point x="91" y="763" type="line" smooth="yes"/>
      <point x="81" y="763"/>
      <point x="75" y="757"/>
      <point x="75" y="747" type="curve" smooth="yes"/>
    </contour>
    <contour>
      <point x="270" y="669" type="line" smooth="yes"/>
      <point x="270" y="660"/>
      <point x="277" y="653"/>
      <point x="286" y="653" type="curve" smooth="yes"/>
      <point x="323" y="653" type="line" smooth="yes"/>
      <point x="332" y="653"/>
      <point x="338" y="659"/>
      <point x="338" y="669" type="curve" smooth="yes"/>
      <point x="338" y="747" type="line" smooth="yes"/>
      <point x="338" y="756"/>
      <point x="333" y="763"/>
      <point x="323" y="763" type="curve" smooth="yes"/>
      <point x="286" y="763" type="line" smooth="yes"/>
      <point x="276" y="763"/>
      <point x="270" y="757"/>
      <point x="270" y="747" type="curve" smooth="yes"/>
    </contour>
  </outline>
</glyph>
<glyph name="copyright" format="1">
  <advance width="840"/>
  <unicode hex="00A9"/>
  <note>
    GF Latin Plus glyph
  </note>
  <outline>
    <contour>
      <point x="237" y="365" type="curve" smooth="yes"/>
      <point x="237" y="188"/>
      <point x="307" y="147"/>
      <point x="387" y="147" type="curve" smooth="yes"/>
      <point x="453" y="147"/>
      <point x="509" y="149"/>
      <point x="568" y="170" type="curve"/>
      <point x="568" y="207" type="line"/>
      <point x="525" y="198"/>
      <point x="466" y="191"/>
      <point x="400" y="191" type="curve" smooth="yes"/>
      <point x="317" y="191"/>
      <point x="285" y="250"/>
      <point x="285" y="362" type="curve" smooth="yes"/>
      <point x="285" y="493"/>
      <point x="326" y="539"/>
      <point x="401" y="539" type="curve" smooth="yes"/>
      <point x="433" y="539"/>
      <point x="502" y="535"/>
      <point x="562" y="527" type="curve"/>
      <point x="562" y="564" type="line"/>
      <point x="507" y="577"/>
      <point x="427" y="583"/>
      <point x="388" y="583" type="curve" smooth="yes"/>
      <point x="300" y="583"/>
      <point x="237" y="526"/>
    </contour>
    <contour>
      <point x="107" y="368" type="curve" smooth="yes"/>
      <point x="109" y="620"/>
      <point x="209" y="688"/>
      <point x="313" y="688" type="curve" smooth="yes"/>
      <point x="550" y="688" type="line" smooth="yes"/>
      <point x="694" y="688"/>
      <point x="733" y="535"/>
      <point x="733" y="368" type="curve" smooth="yes"/>
      <point x="733" y="146"/>
      <point x="652" y="44"/>
      <point x="546" y="44" type="curve" smooth="yes"/>
      <point x="313" y="44" type="line" smooth="yes"/>
      <point x="171" y="44"/>
      <point x="106" y="210"/>
    </contour>
    <contour>
      <point x="59" y="368" type="curve" smooth="yes"/>
      <point x="59" y="205"/>
      <point x="126" y="0"/>
      <point x="313" y="0" type="curve" smooth="yes"/>
      <point x="550" y="0" type="line" smooth="yes"/>
      <point x="701" y="0"/>
      <point x="781" y="153"/>
      <point x="781" y="368" type="curve" smooth="yes"/>
      <point x="781" y="523"/>
      <point x="748" y="732"/>
      <point x="550" y="732" type="curve" smooth="yes"/>
      <point x="313" y="732" type="line" smooth="yes"/>
      <point x="108" y="732"/>
      <point x="59" y="542"/>
    </contour>
  </outline>
</glyph>
<glyph name="registered" format="1">
  <advance width="840"/>
  <unicode hex="00AE"/>
  <note>
    GF Latin Plus glyph
  </note>
  <outline>
    <contour>
      <point x="317" y="373" type="line"/>
      <point x="317" y="536" type="line"/>
      <point x="452" y="536" type="line" smooth="yes"/>
      <point x="499" y="536"/>
      <point x="529" y="515"/>
      <point x="529" y="449" type="curve" smooth="yes"/>
      <point x="529" y="383"/>
      <point x="502" y="373"/>
      <point x="452" y="373" type="curve" smooth="yes"/>
    </contour>
    <contour>
      <point x="269" y="153" type="line"/>
      <point x="317" y="153" type="line"/>
      <point x="317" y="338" type="line"/>
      <point x="434" y="335" type="line"/>
      <point x="534" y="153" type="line"/>
      <point x="583" y="153" type="line"/>
      <point x="481" y="334" type="line"/>
      <point x="518" y="342"/>
      <point x="577" y="348"/>
      <point x="577" y="450" type="curve" smooth="yes"/>
      <point x="577" y="558"/>
      <point x="515" y="580"/>
      <point x="449" y="580" type="curve" smooth="yes"/>
      <point x="269" y="580" type="line"/>
    </contour>
    <contour>
      <point x="107" y="368" type="curve" smooth="yes"/>
      <point x="109" y="620"/>
      <point x="209" y="688"/>
      <point x="313" y="688" type="curve" smooth="yes"/>
      <point x="550" y="688" type="line" smooth="yes"/>
      <point x="694" y="688"/>
      <point x="733" y="535"/>
      <point x="733" y="368" type="curve" smooth="yes"/>
      <point x="733" y="146"/>
      <point x="652" y="44"/>
      <point x="546" y="44" type="curve" smooth="yes"/>
      <point x="313" y="44" type="line" smooth="yes"/>
      <point x="171" y="44"/>
      <point x="106" y="210"/>
    </contour>
    <contour>
      <point x="59" y="368" type="curve" smooth="yes"/>
      <point x="59" y="205"/>
      <point x="126" y="0"/>
      <point x="313" y="0" type="curve" smooth="yes"/>
      <point x="550" y="0" type="line" smooth="yes"/>
      <point x="701" y="0"/>
      <point x="781" y="153"/>
      <point x="781" y="368" type="curve" smooth="yes"/>
      <point x="781" y="523"/>
      <point x="748" y="732"/>
      <point x="550" y="732" type="curve" smooth="yes"/>
      <point x="313" y="732" type="line" smooth="yes"/>
      <point x="108" y="732"/>
      <point x="59" y="542"/>
    </contour>
  </outline>
</glyph>
<glyph name="macron" format="1">
  <advance width="374"/>
  <unicode hex="00AF"/>
  <note>
    GF Latin Plus glyph
  </note>
  <outline>
    <contour>
      <point x="55" y="672" type="line"/>
      <point x="320" y="672" type="line"/>
      <point x="320" y="719" type="line"/>
      <point x="55" y="719" type="line"/>
    </contour>
  </outline>
</glyph>
<glyph name="degree" format="1">
  <advance width="329"/>
  <unicode hex="00B0"/>
  <note>
    GF Latin Plus glyph
  </note>
  <outline>
    <contour>
      <point x="71" y="629" type="curve" smooth="yes"/>
      <point x="71" y="684"/>
      <point x="111" y="724"/>
      <point x="165" y="724" type="curve" smooth="yes"/>
      <point x="220" y="724"/>
      <point x="258" y="684"/>
      <point x="258" y="629" type="curve" smooth="yes"/>
      <point x="258" y="574"/>
      <point x="220" y="535"/>
      <point x="165" y="535" type="curve" smooth="yes"/>
      <point x="111" y="535"/>
      <point x="71" y="574"/>
    </contour>
    <contour>
      <point x="34" y="629" type="curve" smooth="yes"/>
      <point x="34" y="551"/>
      <point x="90" y="497"/>
      <point x="165" y="497" type="curve" smooth="yes"/>
      <point x="242" y="497"/>
      <point x="296" y="551"/>
      <point x="296" y="629" type="curve" smooth="yes"/>
      <point x="296" y="706"/>
      <point x="242" y="762"/>
      <point x="165" y="762" type="curve" smooth="yes"/>
      <point x="90" y="762"/>
      <point x="34" y="706"/>
    </contour>
  </outline>
</glyph>
<glyph name="twosuperior" format="1">
  <advance width="455"/>
  <unicode hex="00B2"/>
  <note>
    GF Latin Plus glyph
  </note>
  <outline>
    <contour>
      <point x="66" y="758" type="line"/>
      <point x="214" y="758" type="line" smooth="yes"/>
      <point x="300" y="758"/>
      <point x="323" y="724"/>
      <point x="323" y="676" type="curve" smooth="yes"/>
      <point x="323" y="621"/>
      <point x="300" y="580"/>
      <point x="243" y="526" type="curve" smooth="yes"/>
      <point x="48" y="337" type="line"/>
      <point x="48" y="280" type="line"/>
      <point x="415" y="280" type="line"/>
      <point x="415" y="344" type="line"/>
      <point x="145" y="344" type="line"/>
      <point x="297" y="489" type="line" smooth="yes"/>
      <point x="369" y="560"/>
      <point x="395" y="609"/>
      <point x="395" y="684" type="curve" smooth="yes"/>
      <point x="395" y="768"/>
      <point x="355" y="824"/>
      <point x="229" y="824" type="curve" smooth="yes"/>
      <point x="168" y="824"/>
      <point x="111" y="817"/>
      <point x="66" y="812" type="curve"/>
    </contour>
  </outline>
</glyph>
<glyph name="threesuperior" format="1">
  <advance width="455"/>
  <unicode hex="00B3"/>
  <note>
    GF Latin Plus glyph
  </note>
  <outline>
    <contour>
      <point x="58" y="758" type="line"/>
      <point x="214" y="758" type="line" smooth="yes"/>
      <point x="285" y="758"/>
      <point x="318" y="731"/>
      <point x="318" y="682" type="curve" smooth="yes"/>
      <point x="318" y="649" type="line" smooth="yes"/>
      <point x="318" y="603"/>
      <point x="284" y="587"/>
      <point x="233" y="584" type="curve" smooth="yes"/>
      <point x="95" y="578" type="line"/>
      <point x="95" y="526" type="line"/>
      <point x="236" y="521" type="line" smooth="yes"/>
      <point x="280" y="519"/>
      <point x="325" y="502"/>
      <point x="325" y="449" type="curve" smooth="yes"/>
      <point x="325" y="417" type="line" smooth="yes"/>
      <point x="325" y="357"/>
      <point x="281" y="341"/>
      <point x="219" y="341" type="curve" smooth="yes"/>
      <point x="41" y="341" type="line"/>
      <point x="41" y="287" type="line"/>
      <point x="93" y="279"/>
      <point x="165" y="276"/>
      <point x="244" y="276" type="curve" smooth="yes"/>
      <point x="340" y="276"/>
      <point x="398" y="321"/>
      <point x="398" y="404" type="curve" smooth="yes"/>
      <point x="398" y="440" type="line" smooth="yes"/>
      <point x="398" y="510"/>
      <point x="347" y="544"/>
      <point x="312" y="552" type="curve"/>
      <point x="344" y="560"/>
      <point x="389" y="586"/>
      <point x="389" y="651" type="curve" smooth="yes"/>
      <point x="389" y="696" type="line" smooth="yes"/>
      <point x="389" y="775"/>
      <point x="340" y="824"/>
      <point x="242" y="824" type="curve" smooth="yes"/>
      <point x="168" y="825"/>
      <point x="106" y="820"/>
      <point x="58" y="813" type="curve"/>
    </contour>
  </outline>
</glyph>
<glyph name="paragraph" format="1">
  <advance width="573"/>
  <unicode hex="00B6"/>
  <note>
    GF Latin Plus glyph
  </note>
  <outline>
    <contour>
      <point x="93" y="469" type="curve" smooth="yes"/>
      <point x="93" y="583" type="line" smooth="yes"/>
      <point x="93" y="641"/>
      <point x="128" y="679"/>
      <point x="203" y="679" type="curve" smooth="yes"/>
      <point x="274" y="679" type="line"/>
      <point x="274" y="367" type="line"/>
      <point x="203" y="367" type="line" smooth="yes"/>
      <point x="174" y="367"/>
      <point x="93" y="377"/>
    </contour>
    <contour>
      <point x="37" y="462" type="line" smooth="yes"/>
      <point x="37" y="380"/>
      <point x="88" y="311"/>
      <point x="195" y="311" type="curve"/>
      <point x="237" y="309"/>
      <point x="264" y="316"/>
      <point x="274" y="323" type="curve"/>
      <point x="274" y="-270" type="line"/>
      <point x="330" y="-270" type="line"/>
      <point x="330" y="679" type="line"/>
      <point x="425" y="679" type="line"/>
      <point x="425" y="0" type="line"/>
      <point x="481" y="0" type="line"/>
      <point x="481" y="677" type="line"/>
      <point x="558" y="677" type="line"/>
      <point x="558" y="736" type="line"/>
      <point x="200" y="736" type="line" smooth="yes"/>
      <point x="114" y="736"/>
      <point x="37" y="691"/>
      <point x="37" y="596" type="curve" smooth="yes"/>
    </contour>
  </outline>
</glyph>
<glyph name="periodcentered" format="1">
  <advance width="262"/>
  <unicode hex="00B7"/>
  <note>
    GF Latin Plus glyph
  </note>
  <outline>
    <contour>
      <point x="92" y="346" type="line" smooth="yes"/>
      <point x="92" y="337"/>
      <point x="99" y="331"/>
      <point x="108" y="331" type="curve" smooth="yes"/>
      <point x="154" y="331" type="line" smooth="yes"/>
      <point x="163" y="331"/>
      <point x="170" y="335"/>
      <point x="170" y="346" type="curve" smooth="yes"/>
      <point x="170" y="394" type="line" smooth="yes"/>
      <point x="170" y="404"/>
      <point x="165" y="410"/>
      <point x="154" y="410" type="curve" smooth="yes"/>
      <point x="108" y="410" type="line" smooth="yes"/>
      <point x="98" y="410"/>
      <point x="92" y="404"/>
      <point x="92" y="394" type="curve" smooth="yes"/>
    </contour>
  </outline>
</glyph>
<glyph name="onesuperior" format="1">
  <advance width="455"/>
  <unicode hex="00B9"/>
  <note>
    GF Latin Plus glyph
  </note>
  <outline>
    <contour>
      <point x="67" y="280" type="line"/>
      <point x="404" y="280" type="line"/>
      <point x="404" y="343" type="line"/>
      <point x="67" y="343" type="line"/>
    </contour>
    <contour>
      <point x="75" y="727" type="line"/>
      <point x="200" y="756" type="line"/>
      <point x="200" y="280" type="line"/>
      <point x="272" y="280" type="line"/>
      <point x="272" y="825" type="line"/>
      <point x="207" y="825" type="line"/>
      <point x="75" y="778" type="line"/>
    </contour>
  </outline>
</glyph>
<glyph name="AE" format="1">
  <advance width="964"/>
  <unicode hex="00C6"/>
  <note>
    GF Latin Plus glyph
  </note>
  <outline>
    <contour>
      <point x="282" y="277" type="line"/>
      <point x="480" y="605" type="line"/>
      <point x="480" y="277" type="line"/>
    </contour>
    <contour>
      <point x="33" y="0" type="line"/>
      <point x="115" y="0" type="line"/>
      <point x="242" y="207" type="line"/>
      <point x="480" y="207" type="line"/>
      <point x="480" y="118" type="line" smooth="yes"/>
      <point x="484" y="25"/>
      <point x="540" y="-5"/>
      <point x="636" y="-4" type="curve" smooth="yes"/>
      <point x="676" y="-4"/>
      <point x="879" y="3"/>
      <point x="907" y="7" type="curve"/>
      <point x="907" y="72" type="line"/>
      <point x="649" y="72" type="line" smooth="yes"/>
      <point x="590" y="72"/>
      <point x="554" y="93"/>
      <point x="554" y="158" type="curve" smooth="yes"/>
      <point x="554" y="329" type="line"/>
      <point x="864" y="334" type="line"/>
      <point x="864" y="397" type="line"/>
      <point x="554" y="402" type="line"/>
      <point x="554" y="595" type="line" smooth="yes"/>
      <point x="554" y="639"/>
      <point x="572" y="661"/>
      <point x="626" y="661" type="curve" smooth="yes"/>
      <point x="907" y="661" type="line"/>
      <point x="907" y="726" type="line"/>
      <point x="885" y="729"/>
      <point x="659" y="736"/>
      <point x="617" y="736" type="curve" smooth="yes"/>
      <point x="503" y="737"/>
      <point x="445" y="702"/>
      <point x="395" y="612" type="curve" smooth="yes"/>
    </contour>
    <contour>
      <point x="530" y="810" type="move" name="top"/>
    </contour>
  </outline>
</glyph>
<glyph name="Oslash" format="1">
  <advance width="687"/>
  <unicode hex="00D8"/>
  <note>
    GF Latin Plus glyph
  </note>
  <outline>
    <contour>
      <point x="557" y="736" type="line"/>
      <point x="72" y="0" type="line"/>
      <point x="130" y="0" type="line"/>
      <point x="616" y="736" type="line"/>
    </contour>
    <component base="O"/>
    <contour>
      <point x="343" y="810" type="move" name="top"/>
    </contour>
  </outline>
</glyph>
<glyph name="Thorn" format="1">
  <advance width="561"/>
  <unicode hex="00DE"/>
  <note>
    GF Latin Plus glyph
  </note>
  <outline>
    <contour>
      <point x="77" y="0" type="line"/>
      <point x="158" y="0" type="line"/>
      <point x="158" y="167" type="line"/>
      <point x="190" y="164"/>
      <point x="290" y="156"/>
      <point x="324" y="156" type="curve" smooth="yes"/>
      <point x="407" y="156"/>
      <point x="519" y="190"/>
      <point x="519" y="382" type="curve" smooth="yes"/>
      <point x="519" y="572"/>
      <point x="413" y="601"/>
      <point x="326" y="601" type="curve" smooth="yes"/>
      <point x="158" y="601" type="line"/>
      <point x="158" y="736" type="line"/>
      <point x="77" y="736" type="line"/>
    </contour>
    <contour>
      <point x="158" y="230" type="line"/>
      <point x="158" y="528" type="line"/>
      <point x="320" y="528" type="line" smooth="yes"/>
      <point x="383" y="528"/>
      <point x="437" y="498"/>
      <point x="437" y="382" type="curve" smooth="yes"/>
      <point x="437" y="264"/>
      <point x="382" y="230"/>
      <point x="313" y="230" type="curve" smooth="yes"/>
    </contour>
  </outline>
</glyph>
<glyph name="ae" format="1">
  <advance width="880"/>
  <unicode hex="00E6"/>
  <note>
    GF Latin Plus glyph
  </note>
  <outline>
    <contour>
      <point x="473" y="301" type="line"/>
      <point x="474" y="444"/>
      <point x="503" y="478"/>
      <point x="610" y="478" type="curve" smooth="yes"/>
      <point x="711" y="478"/>
      <point x="746" y="447"/>
      <point x="746" y="364" type="curve" smooth="yes"/>
      <point x="746" y="310"/>
      <point x="712" y="301"/>
      <point x="661" y="301" type="curve" smooth="yes"/>
    </contour>
    <contour>
      <point x="127" y="143" type="curve" smooth="yes"/>
      <point x="127" y="165" type="line" smooth="yes"/>
      <point x="127" y="212"/>
      <point x="153" y="252"/>
      <point x="224" y="253" type="curve" smooth="yes"/>
      <point x="392" y="257" type="line"/>
      <point x="393" y="204"/>
      <point x="400" y="163"/>
      <point x="405" y="142" type="curve"/>
      <point x="353" y="87"/>
      <point x="283" y="54"/>
      <point x="215" y="54" type="curve" smooth="yes"/>
      <point x="169" y="54"/>
      <point x="127" y="75"/>
    </contour>
    <contour>
      <point x="46" y="131" type="line" smooth="yes"/>
      <point x="46" y="50"/>
      <point x="91" y="-6"/>
      <point x="183" y="-6" type="curve" smooth="yes"/>
      <point x="280" y="-6"/>
      <point x="371" y="46"/>
      <point x="422" y="102" type="curve"/>
      <point x="450" y="48"/>
      <point x="503" y="-6"/>
      <point x="611" y="-6" type="curve" smooth="yes"/>
      <point x="671" y="-6"/>
      <point x="744" y="-3"/>
      <point x="806" y="8" type="curve"/>
      <point x="806" y="57" type="line"/>
      <point x="645" y="57" type="line" smooth="yes"/>
      <point x="545" y="57"/>
      <point x="472" y="90"/>
      <point x="473" y="246" type="curve"/>
      <point x="663" y="246" type="line" smooth="yes"/>
      <point x="763" y="246"/>
      <point x="820" y="271"/>
      <point x="820" y="362" type="curve" smooth="yes"/>
      <point x="820" y="501"/>
      <point x="754" y="541"/>
      <point x="615" y="541" type="curve" smooth="yes"/>
      <point x="529" y="541"/>
      <point x="467" y="518"/>
      <point x="439" y="452" type="curve"/>
      <point x="415" y="514"/>
      <point x="349" y="543"/>
      <point x="271" y="542" type="curve" smooth="yes"/>
      <point x="187" y="542"/>
      <point x="140" y="536"/>
      <point x="90" y="525" type="curve"/>
      <point x="90" y="477" type="line"/>
      <point x="263" y="477" type="line" smooth="yes"/>
      <point x="363" y="477"/>
      <point x="393" y="433"/>
      <point x="393" y="374" type="curve" smooth="yes"/>
      <point x="393" y="302" type="line"/>
      <point x="210" y="302" type="line" smooth="yes"/>
      <point x="101" y="302"/>
      <point x="46" y="247"/>
      <point x="46" y="165" type="curve" smooth="yes"/>
    </contour>
    <contour>
      <point x="439" y="650" type="move" name="top"/>
    </contour>
  </outline>
</glyph>
<glyph name="divide" format="1">
  <advance width="609"/>
  <unicode hex="00F7"/>
  <note>
    GF Latin Plus glyph
  </note>
  <outline>
    <contour>
      <point x="257" y="529" type="line" smooth="yes"/>
      <point x="257" y="515"/>
      <point x="267" y="506"/>
      <point x="281" y="506" type="curve" smooth="yes"/>
      <point x="327" y="506" type="line" smooth="yes"/>
      <point x="341" y="506"/>
      <point x="352" y="511"/>
      <point x="352" y="529" type="curve" smooth="yes"/>
      <point x="352" y="580" type="line" smooth="yes"/>
      <point x="352" y="596"/>
      <point x="345" y="605"/>
      <point x="327" y="605" type="curve" smooth="yes"/>
      <point x="281" y="605" type="line" smooth="yes"/>
      <point x="265" y="605"/>
      <point x="257" y="595"/>
      <point x="257" y="580" type="curve" smooth="yes"/>
    </contour>
    <contour>
      <point x="257" y="130" type="line" smooth="yes"/>
      <point x="257" y="116"/>
      <point x="267" y="107"/>
      <point x="281" y="107" type="curve" smooth="yes"/>
      <point x="327" y="107" type="line" smooth="yes"/>
      <point x="341" y="107"/>
      <point x="352" y="112"/>
      <point x="352" y="130" type="curve" smooth="yes"/>
      <point x="352" y="181" type="line" smooth="yes"/>
      <point x="352" y="197"/>
      <point x="345" y="206"/>
      <point x="327" y="206" type="curve" smooth="yes"/>
      <point x="281" y="206" type="line" smooth="yes"/>
      <point x="265" y="206"/>
      <point x="257" y="196"/>
      <point x="257" y="181" type="curve" smooth="yes"/>
    </contour>
    <component base="minus"/>
  </outline>
</glyph>
<glyph name="thorn" format="1">
  <advance width="578"/>
  <unicode hex="00FE"/>
  <note>
    GF Latin Plus glyph
  </note>
  <outline>
    <contour>
      <point x="157" y="104" type="curve"/>
      <point x="157" y="429" type="line"/>
      <point x="196" y="450"/>
      <point x="247" y="474"/>
      <point x="308" y="474" type="curve" smooth="yes"/>
      <point x="378" y="474"/>
      <point x="440" y="417"/>
      <point x="440" y="265" type="curve" smooth="yes"/>
      <point x="440" y="110"/>
      <point x="383" y="62"/>
      <point x="308" y="62" type="curve" smooth="yes"/>
      <point x="256" y="62"/>
      <point x="202" y="79"/>
    </contour>
    <contour>
      <point x="75" y="-237" type="line"/>
      <point x="157" y="-237" type="line"/>
      <point x="157" y="44" type="line"/>
      <point x="208" y="14"/>
      <point x="272" y="-7"/>
      <point x="330" y="-7" type="curve" smooth="yes"/>
      <point x="460" y="-7"/>
      <point x="522" y="88"/>
      <point x="522" y="268" type="curve" smooth="yes"/>
      <point x="522" y="413"/>
      <point x="466" y="541"/>
      <point x="330" y="541" type="curve" smooth="yes"/>
      <point x="265" y="541"/>
      <point x="192" y="505"/>
      <point x="157" y="479" type="curve"/>
      <point x="157" y="763" type="line"/>
      <point x="75" y="763" type="line"/>
    </contour>
  </outline>
</glyph>
<glyph name="kgreenlandic" format="1">
  <advance width="506"/>
  <unicode hex="0138"/>
  <note>
    GF Latin Plus glyph
  </note>
  <outline>
    <contour>
      <point x="76" y="0" type="line"/>
      <point x="155" y="0" type="line"/>
      <point x="155" y="245" type="line"/>
      <point x="229" y="245" type="line"/>
      <point x="405" y="0" type="line"/>
      <point x="490" y="0" type="line"/>
      <point x="290" y="280" type="line"/>
      <point x="478" y="534" type="line"/>
      <point x="392" y="534" type="line"/>
      <point x="229" y="317" type="line"/>
      <point x="155" y="317" type="line"/>
      <point x="155" y="540" type="line"/>
      <point x="76" y="540" type="line"/>
    </contour>
  </outline>
</glyph>
<glyph name="Lslash" format="1">
  <advance width="532"/>
  <unicode hex="0141"/>
  <note>
    GF Latin Plus glyph
  </note>
  <outline>
    <contour>
      <point x="2" y="314" type="line"/>
      <point x="87" y="351" type="line"/>
      <point x="148" y="368" type="line"/>
      <point x="292" y="431" type="line"/>
      <point x="292" y="477" type="line"/>
      <point x="148" y="414" type="line"/>
      <point x="87" y="398" type="line"/>
      <point x="2" y="361" type="line"/>
    </contour>
    <component base="L"/>
  </outline>
</glyph>
<glyph name="Eng" format="1">
  <advance width="680"/>
  <unicode hex="014A"/>
  <note>
    GF Latin Plus glyph
  </note>
  <outline>
    <contour>
      <point x="326" y="-220" type="line"/>
      <point x="354" y="-233"/>
      <point x="401" y="-243"/>
      <point x="440" y="-243" type="curve" smooth="yes"/>
      <point x="560" y="-243"/>
      <point x="620" y="-197"/>
      <point x="620" y="-75" type="curve" smooth="yes"/>
      <point x="620" y="41" type="line"/>
      <point x="538" y="41" type="line"/>
      <point x="538" y="-65" type="line" smooth="yes"/>
      <point x="538" y="-149"/>
      <point x="494" y="-170"/>
      <point x="427" y="-170" type="curve" smooth="yes"/>
      <point x="406" y="-170"/>
      <point x="345" y="-163"/>
      <point x="326" y="-157" type="curve"/>
    </contour>
    <component base="N"/>
  </outline>
</glyph>
<glyph name="Tbar" format="1">
  <advance width="566"/>
  <unicode hex="0166"/>
  <note>
    GF Latin Plus glyph
  </note>
  <outline>
    <contour>
      <point x="65" y="365" type="line"/>
      <point x="501" y="365" type="line"/>
      <point x="501" y="411" type="line"/>
      <point x="65" y="411" type="line"/>
    </contour>
    <component base="T"/>
  </outline>
</glyph>
<glyph name="Schwa" format="1">
  <advance width="611"/>
  <unicode hex="018F"/>
  <note>
    GF Latin Plus glyph
  </note>
  <outline>
    <contour>
      <point x="301" y="-6" type="curve" smooth="yes"/>
      <point x="452" y="-6"/>
      <point x="552" y="67"/>
      <point x="552" y="375" type="curve" smooth="yes"/>
      <point x="552" y="683"/>
      <point x="460" y="742"/>
      <point x="271" y="742" type="curve" smooth="yes"/>
      <point x="191" y="742"/>
      <point x="132" y="730"/>
      <point x="89" y="718" type="curve"/>
      <point x="89" y="658" type="line"/>
      <point x="119" y="662"/>
      <point x="167" y="670"/>
      <point x="247" y="670" type="curve" smooth="yes"/>
      <point x="418" y="670"/>
      <point x="470" y="620"/>
      <point x="472" y="390" type="curve"/>
      <point x="61" y="390" type="line"/>
      <point x="61" y="333" type="line" smooth="yes"/>
      <point x="61" y="86"/>
      <point x="139" y="-6"/>
    </contour>
    <contour>
      <point x="300" y="65" type="curve" smooth="yes"/>
      <point x="179" y="65"/>
      <point x="142" y="134"/>
      <point x="140" y="325" type="curve"/>
      <point x="470" y="325" type="line"/>
      <point x="467" y="115"/>
      <point x="405" y="65"/>
    </contour>
  </outline>
</glyph>
<glyph name="florin" format="1">
  <advance width="609"/>
  <unicode hex="0192"/>
  <note>
    GF Latin Plus glyph
  </note>
  <outline>
    <contour>
      <point x="21" y="-192" type="line"/>
      <point x="40" y="-198"/>
      <point x="76" y="-204"/>
      <point x="112" y="-204" type="curve" smooth="yes"/>
      <point x="228" y="-204"/>
      <point x="274" y="-118"/>
      <point x="307" y="88" type="curve" smooth="yes"/>
      <point x="358" y="401" type="line"/>
      <point x="484" y="401" type="line"/>
      <point x="493" y="461" type="line"/>
      <point x="366" y="461" type="line"/>
      <point x="384" y="566" type="line" smooth="yes"/>
      <point x="404" y="688"/>
      <point x="428" y="736"/>
      <point x="504" y="736" type="curve" smooth="yes"/>
      <point x="569" y="736" type="line"/>
      <point x="577" y="786" type="line"/>
      <point x="564" y="790"/>
      <point x="535" y="799"/>
      <point x="481" y="799" type="curve" smooth="yes"/>
      <point x="371" y="799"/>
      <point x="331" y="731"/>
      <point x="306" y="582" type="curve" smooth="yes"/>
      <point x="284" y="461" type="line"/>
      <point x="192" y="461" type="line"/>
      <point x="183" y="401" type="line"/>
      <point x="277" y="401" type="line"/>
      <point x="223" y="71" type="line" smooth="yes"/>
      <point x="197" y="-91"/>
      <point x="164" y="-141"/>
      <point x="93" y="-141" type="curve" smooth="yes"/>
      <point x="30" y="-141" type="line"/>
    </contour>
  </outline>
</glyph>
<glyph name="Ohorn" format="1">
  <advance width="686"/>
  <unicode hex="01A0"/>
  <note>
    GF Latin Plus glyph
  </note>
  <outline>
    <contour>
      <point x="378" y="691" type="line"/>
      <point x="516" y="691" type="line" smooth="yes"/>
      <point x="583" y="691"/>
      <point x="640" y="733"/>
      <point x="640" y="849" type="curve"/>
      <point x="583" y="849" type="line"/>
      <point x="583" y="764"/>
      <point x="551" y="736"/>
      <point x="504" y="736" type="curve" smooth="yes"/>
      <point x="378" y="736" type="line"/>
    </contour>
    <component base="O"/>
  </outline>
</glyph>
<glyph name="Uhorn" format="1">
  <advance width="676"/>
  <unicode hex="01AF"/>
  <note>
    GF Latin Plus glyph
  </note>
  <outline>
    <contour>
      <point x="537" y="690" type="line"/>
      <point x="581" y="690" type="line" smooth="yes"/>
      <point x="648" y="690"/>
      <point x="706" y="732"/>
      <point x="706" y="849" type="curve"/>
      <point x="647" y="849" type="line"/>
      <point x="647" y="764"/>
      <point x="615" y="736"/>
      <point x="568" y="736" type="curve" smooth="yes"/>
      <point x="537" y="736" type="line"/>
    </contour>
    <component base="U"/>
  </outline>
</glyph>
<glyph name="uhorn" format="1">
  <advance width="588"/>
  <unicode hex="01B0"/>
  <note>
    GF Latin Plus glyph
  </note>
  <outline>
    <contour>
      <point x="450" y="488" type="line"/>
      <point x="485" y="488" type="line" smooth="yes"/>
      <point x="553" y="488"/>
      <point x="610" y="530"/>
      <point x="610" y="647" type="curve"/>
      <point x="551" y="647" type="line"/>
      <point x="551" y="562"/>
      <point x="519" y="534"/>
      <point x="473" y="534" type="curve" smooth="yes"/>
      <point x="450" y="534" type="line"/>
    </contour>
    <component base="u"/>
  </outline>
</glyph>
<glyph name="circumflex" format="1">
  <advance width="398"/>
  <unicode hex="02C6"/>
  <note>
    GF Latin Plus glyph
  </note>
  <outline>
    <contour>
      <point x="177" y="766" type="line"/>
      <point x="55" y="631" type="line"/>
      <point x="104" y="631" type="line"/>
      <point x="204" y="728" type="line"/>
      <point x="295" y="631" type="line"/>
      <point x="343" y="631" type="line"/>
      <point x="233" y="766" type="line"/>
    </contour>
  </outline>
</glyph>
<glyph name="breve" format="1">
  <advance width="357"/>
  <unicode hex="02D8"/>
  <note>
    GF Latin Plus glyph
  </note>
  <outline>
    <contour>
      <point x="48" y="770" type="line"/>
      <point x="48" y="666"/>
      <point x="107" y="629"/>
      <point x="179" y="629" type="curve" smooth="yes"/>
      <point x="251" y="629"/>
      <point x="311" y="663"/>
      <point x="311" y="770" type="curve"/>
      <point x="272" y="770" type="line"/>
      <point x="272" y="693"/>
      <point x="233" y="667"/>
      <point x="179" y="667" type="curve" smooth="yes"/>
      <point x="130" y="666"/>
      <point x="87" y="693"/>
      <point x="87" y="770" type="curve"/>
    </contour>
  </outline>
</glyph>
<glyph name="dotaccent" format="1">
  <advance width="178"/>
  <unicode hex="02D9"/>
  <note>
    GF Latin Plus glyph
  </note>
  <outline>
    <contour>
      <point x="51" y="669" type="line" smooth="yes"/>
      <point x="51" y="659"/>
      <point x="57" y="653"/>
      <point x="67" y="653" type="curve" smooth="yes"/>
      <point x="104" y="653" type="line" smooth="yes"/>
      <point x="114" y="653"/>
      <point x="120" y="658"/>
      <point x="120" y="669" type="curve" smooth="yes"/>
      <point x="120" y="747" type="line" smooth="yes"/>
      <point x="120" y="756"/>
      <point x="115" y="763"/>
      <point x="104" y="763" type="curve" smooth="yes"/>
      <point x="67" y="763" type="line" smooth="yes"/>
      <point x="56" y="763"/>
      <point x="51" y="757"/>
      <point x="51" y="747" type="curve" smooth="yes"/>
    </contour>
  </outline>
</glyph>
<glyph name="ring" format="1">
  <advance width="332"/>
  <unicode hex="02DA"/>
  <note>
    GF Latin Plus glyph
  </note>
  <outline>
    <contour>
      <point x="94" y="700" type="curve" smooth="yes"/>
      <point x="94" y="758"/>
      <point x="118" y="775"/>
      <point x="167" y="775" type="curve" smooth="yes"/>
      <point x="216" y="775"/>
      <point x="237" y="758"/>
      <point x="237" y="700" type="curve" smooth="yes"/>
      <point x="237" y="643"/>
      <point x="216" y="627"/>
      <point x="167" y="627" type="curve" smooth="yes"/>
      <point x="118" y="627"/>
      <point x="94" y="643"/>
    </contour>
    <contour>
      <point x="55" y="700" type="curve" smooth="yes"/>
      <point x="55" y="620"/>
      <point x="95" y="594"/>
      <point x="167" y="594" type="curve" smooth="yes"/>
      <point x="239" y="594"/>
      <point x="277" y="620"/>
      <point x="277" y="700" type="curve" smooth="yes"/>
      <point x="277" y="781"/>
      <point x="239" y="808"/>
      <point x="167" y="808" type="curve" smooth="yes"/>
      <point x="95" y="808"/>
      <point x="55" y="781"/>
    </contour>
  </outline>
</glyph>
<glyph name="ogonek" format="1">
  <advance width="238"/>
  <unicode hex="02DB"/>
  <note>
    GF Latin Plus glyph
  </note>
  <outline>
    <contour>
      <point x="128" y="0" type="line"/>
      <point x="77" y="-24"/>
      <point x="53" y="-59"/>
      <point x="53" y="-98" type="curve" smooth="yes"/>
      <point x="53" y="-148"/>
      <point x="90" y="-187"/>
      <point x="158" y="-187" type="curve" smooth="yes"/>
      <point x="168" y="-187"/>
      <point x="177" y="-186"/>
      <point x="184" y="-184" type="curve"/>
      <point x="184" y="-146" type="line"/>
      <point x="178" y="-146" type="line" smooth="yes"/>
      <point x="124" y="-146"/>
      <point x="95" y="-121"/>
      <point x="95" y="-81" type="curve" smooth="yes"/>
      <point x="95" y="-50"/>
      <point x="117" y="-23"/>
      <point x="158" y="0" type="curve"/>
    </contour>
  </outline>
</glyph>
<glyph name="tilde" format="1">
  <advance width="451"/>
  <unicode hex="02DC"/>
  <note>
    GF Latin Plus glyph
  </note>
  <outline>
    <contour>
      <point x="51" y="647" type="curve"/>
      <point x="92" y="647" type="line"/>
      <point x="93" y="689"/>
      <point x="119" y="709"/>
      <point x="151" y="709" type="curve" smooth="yes"/>
      <point x="202" y="709"/>
      <point x="246" y="647"/>
      <point x="307" y="647" type="curve" smooth="yes"/>
      <point x="366" y="647"/>
      <point x="402" y="688"/>
      <point x="403" y="756" type="curve"/>
      <point x="363" y="756" type="line"/>
      <point x="362" y="715"/>
      <point x="336" y="693"/>
      <point x="302" y="693" type="curve" smooth="yes"/>
      <point x="252" y="693"/>
      <point x="211" y="754"/>
      <point x="147" y="754" type="curve" smooth="yes"/>
      <point x="101" y="754"/>
      <point x="53" y="727"/>
    </contour>
  </outline>
</glyph>
<glyph name="pi" format="1">
  <advance width="618"/>
  <unicode hex="03C0"/>
  <outline>
    <contour>
      <point x="22" y="461" type="line"/>
      <point x="122" y="461" type="line"/>
      <point x="122" y="0" type="line"/>
      <point x="201" y="0" type="line"/>
      <point x="201" y="461" type="line"/>
      <point x="362" y="461" type="line"/>
      <point x="362" y="132" type="line" smooth="yes"/>
      <point x="362" y="34"/>
      <point x="402" y="-6"/>
      <point x="478" y="-6" type="curve" smooth="yes"/>
      <point x="514" y="-6"/>
      <point x="541" y="3"/>
      <point x="559" y="13" type="curve"/>
      <point x="559" y="59" type="line"/>
      <point x="504" y="59" type="line" smooth="yes"/>
      <point x="461" y="59"/>
      <point x="442" y="78"/>
      <point x="442" y="136" type="curve" smooth="yes"/>
      <point x="442" y="461" type="line"/>
      <point x="551" y="461" type="line"/>
      <point x="551" y="534" type="line"/>
      <point x="22" y="534" type="line"/>
    </contour>
  </outline>
</glyph>
<glyph name="Germandbls" format="1">
  <advance width="672"/>
  <unicode hex="1E9E"/>
  <note>
    GF Latin Plus glyph
  </note>
  <outline>
    <contour>
      <point x="296" y="396" type="line"/>
      <point x="373" y="379" type="line"/>
      <point x="577" y="666" type="line"/>
      <point x="577" y="729" type="line"/>
      <point x="486" y="664" type="line"/>
    </contour>
    <contour>
      <point x="243" y="8" type="line"/>
      <point x="278" y="1"/>
      <point x="350" y="-6"/>
      <point x="390" y="-6" type="curve" smooth="yes"/>
      <point x="513" y="-6"/>
      <point x="614" y="29"/>
      <point x="614" y="173" type="curve" smooth="yes"/>
      <point x="614" y="229" type="line" smooth="yes"/>
      <point x="614" y="335"/>
      <point x="553" y="396"/>
      <point x="435" y="396" type="curve" smooth="yes"/>
      <point x="296" y="396" type="line"/>
      <point x="296" y="328" type="line"/>
      <point x="417" y="328" type="line" smooth="yes"/>
      <point x="499" y="328"/>
      <point x="532" y="293"/>
      <point x="532" y="225" type="curve" smooth="yes"/>
      <point x="532" y="177" type="line" smooth="yes"/>
      <point x="532" y="87"/>
      <point x="465" y="68"/>
      <point x="380" y="68" type="curve" smooth="yes"/>
      <point x="345" y="68"/>
      <point x="260" y="69"/>
      <point x="243" y="71" type="curve"/>
    </contour>
    <contour>
      <point x="77" y="0" type="line"/>
      <point x="158" y="0" type="line"/>
      <point x="158" y="562" type="line" smooth="yes"/>
      <point x="158" y="629"/>
      <point x="195" y="662"/>
      <point x="258" y="662" type="curve" smooth="yes"/>
      <point x="545" y="662" type="line"/>
      <point x="577" y="729" type="line"/>
      <point x="539" y="732"/>
      <point x="312" y="736"/>
      <point x="256" y="736" type="curve" smooth="yes"/>
      <point x="162" y="736"/>
      <point x="77" y="691"/>
      <point x="77" y="561" type="curve" smooth="yes"/>
    </contour>
  </outline>
</glyph>
<glyph name="quoteleft" format="1">
  <advance width="187"/>
  <unicode hex="2018"/>
  <note>
    GF Latin Plus glyph
  </note>
  <outline>
    <contour>
      <point x="55" y="547" type="line" smooth="yes"/>
      <point x="55" y="536"/>
      <point x="58" y="527"/>
      <point x="69" y="527" type="curve" smooth="yes"/>
      <point x="118" y="527" type="line" smooth="yes"/>
      <point x="130" y="527"/>
      <point x="136" y="533"/>
      <point x="136" y="547" type="curve" smooth="yes"/>
      <point x="136" y="627" type="line" smooth="yes"/>
      <point x="136" y="639"/>
      <point x="128" y="646"/>
      <point x="118" y="646" type="curve" smooth="yes"/>
      <point x="109" y="646" type="line"/>
      <point x="109" y="695" type="line" smooth="yes"/>
      <point x="109" y="708"/>
      <point x="114" y="719"/>
      <point x="132" y="719" type="curve"/>
      <point x="132" y="747" type="line"/>
      <point x="127" y="749"/>
      <point x="122" y="749"/>
      <point x="113" y="749" type="curve" smooth="yes"/>
      <point x="90" y="749"/>
      <point x="55" y="741"/>
      <point x="55" y="690" type="curve" smooth="yes"/>
    </contour>
  </outline>
</glyph>
<glyph name="quotesinglbase" format="1">
  <advance width="186"/>
  <unicode hex="201A"/>
  <note>
    GF Latin Plus glyph
  </note>
  <outline>
    <contour>
      <point x="52" y="13" type="line" smooth="yes"/>
      <point x="52" y="1"/>
      <point x="60" y="-6"/>
      <point x="69" y="-6" type="curve" smooth="yes"/>
      <point x="78" y="-6" type="line"/>
      <point x="78" y="-56" type="line" smooth="yes"/>
      <point x="78" y="-69"/>
      <point x="73" y="-79"/>
      <point x="55" y="-79" type="curve"/>
      <point x="55" y="-107" type="line"/>
      <point x="58" y="-108"/>
      <point x="65" y="-109"/>
      <point x="74" y="-109" type="curve" smooth="yes"/>
      <point x="97" y="-109"/>
      <point x="131" y="-101"/>
      <point x="131" y="-50" type="curve" smooth="yes"/>
      <point x="131" y="93" type="line" smooth="yes"/>
      <point x="131" y="103"/>
      <point x="127" y="112"/>
      <point x="117" y="112" type="curve" smooth="yes"/>
      <point x="69" y="112" type="line" smooth="yes"/>
      <point x="58" y="112"/>
      <point x="52" y="106"/>
      <point x="52" y="93" type="curve" smooth="yes"/>
    </contour>
  </outline>
</glyph>
<glyph name="dagger" format="1">
  <advance width="427"/>
  <unicode hex="2020"/>
  <note>
    GF Latin Plus glyph
  </note>
  <outline>
    <contour>
      <point x="22" y="483" type="line"/>
      <point x="173" y="475" type="line"/>
      <point x="180" y="-72" type="line"/>
      <point x="245" y="-72" type="line"/>
      <point x="254" y="475" type="line"/>
      <point x="405" y="483" type="line"/>
      <point x="405" y="541" type="line"/>
      <point x="254" y="549" type="line"/>
      <point x="246" y="770" type="line"/>
      <point x="181" y="770" type="line"/>
      <point x="173" y="549" type="line"/>
      <point x="22" y="541" type="line"/>
    </contour>
  </outline>
</glyph>
<glyph name="daggerdbl" format="1">
  <advance width="449"/>
  <unicode hex="2021"/>
  <note>
    GF Latin Plus glyph
  </note>
  <outline>
    <contour>
      <point x="22" y="170" type="line"/>
      <point x="172" y="161" type="line"/>
      <point x="180" y="-72" type="line"/>
      <point x="247" y="-72" type="line"/>
      <point x="255" y="161" type="line"/>
      <point x="406" y="170" type="line"/>
      <point x="406" y="230" type="line"/>
      <point x="256" y="239" type="line"/>
      <point x="256" y="474" type="line"/>
      <point x="406" y="482" type="line"/>
      <point x="406" y="542" type="line"/>
      <point x="256" y="550" type="line"/>
      <point x="248" y="770" type="line"/>
      <point x="180" y="770" type="line"/>
      <point x="172" y="550" type="line"/>
      <point x="22" y="542" type="line"/>
      <point x="22" y="482" type="line"/>
      <point x="172" y="474" type="line"/>
      <point x="172" y="239" type="line"/>
      <point x="22" y="230" type="line"/>
    </contour>
  </outline>
</glyph>
<glyph name="bullet" format="1">
  <advance width="316"/>
  <unicode hex="2022"/>
  <note>
    GF Latin Plus glyph
  </note>
  <outline>
    <contour>
      <point x="93" y="347" type="line" smooth="yes"/>
      <point x="93" y="327"/>
      <point x="106" y="315"/>
      <point x="126" y="315" type="curve" smooth="yes"/>
      <point x="189" y="315" type="line" smooth="yes"/>
      <point x="209" y="315"/>
      <point x="224" y="323"/>
      <point x="224" y="347" type="curve" smooth="yes"/>
      <point x="224" y="416" type="line" smooth="yes"/>
      <point x="224" y="438"/>
      <point x="214" y="451"/>
      <point x="189" y="451" type="curve" smooth="yes"/>
      <point x="126" y="451" type="line" smooth="yes"/>
      <point x="104" y="451"/>
      <point x="93" y="437"/>
      <point x="93" y="416" type="curve" smooth="yes"/>
    </contour>
  </outline>
</glyph>
<glyph name="ellipsis" format="1">
  <advance width="816"/>
  <unicode hex="2026"/>
  <note>
    GF Latin Plus glyph
  </note>
  <outline>
    <contour>
      <point x="97" y="16" type="line" smooth="yes"/>
      <point x="97" y="6"/>
      <point x="104" y="0"/>
      <point x="113" y="0" type="curve" smooth="yes"/>
      <point x="158" y="0" type="line" smooth="yes"/>
      <point x="168" y="0"/>
      <point x="175" y="4"/>
      <point x="175" y="16" type="curve" smooth="yes"/>
      <point x="175" y="96" type="line" smooth="yes"/>
      <point x="175" y="106"/>
      <point x="170" y="113"/>
      <point x="158" y="113" type="curve" smooth="yes"/>
      <point x="113" y="113" type="line" smooth="yes"/>
      <point x="103" y="113"/>
      <point x="97" y="107"/>
      <point x="97" y="96" type="curve" smooth="yes"/>
    </contour>
    <contour>
      <point x="369" y="16" type="line" smooth="yes"/>
      <point x="369" y="6"/>
      <point x="376" y="0"/>
      <point x="385" y="0" type="curve" smooth="yes"/>
      <point x="430" y="0" type="line" smooth="yes"/>
      <point x="440" y="0"/>
      <point x="447" y="4"/>
      <point x="447" y="16" type="curve" smooth="yes"/>
      <point x="447" y="96" type="line" smooth="yes"/>
      <point x="447" y="106"/>
      <point x="442" y="113"/>
      <point x="430" y="113" type="curve" smooth="yes"/>
      <point x="385" y="113" type="line" smooth="yes"/>
      <point x="375" y="113"/>
      <point x="369" y="107"/>
      <point x="369" y="96" type="curve" smooth="yes"/>
    </contour>
    <contour>
      <point x="641" y="16" type="line" smooth="yes"/>
      <point x="641" y="6"/>
      <point x="648" y="0"/>
      <point x="657" y="0" type="curve" smooth="yes"/>
      <point x="702" y="0" type="line" smooth="yes"/>
      <point x="712" y="0"/>
      <point x="719" y="4"/>
      <point x="719" y="16" type="curve" smooth="yes"/>
      <point x="719" y="96" type="line" smooth="yes"/>
      <point x="719" y="106"/>
      <point x="714" y="113"/>
      <point x="702" y="113" type="curve" smooth="yes"/>
      <point x="657" y="113" type="line" smooth="yes"/>
      <point x="647" y="113"/>
      <point x="641" y="107"/>
      <point x="641" y="96" type="curve" smooth="yes"/>
    </contour>
  </outline>
</glyph>
<glyph name="perthousand" format="1">
  <advance width="1379"/>
  <unicode hex="2030"/>
  <note>
    GF Latin Plus glyph
  </note>
  <outline>
    <contour>
      <point x="1023" y="142" type="curve" smooth="yes"/>
      <point x="1023" y="248" type="line" smooth="yes"/>
      <point x="1023" y="318"/>
      <point x="1051" y="333"/>
      <point x="1111" y="333" type="curve" smooth="yes"/>
      <point x="1195" y="333" type="line" smooth="yes"/>
      <point x="1260" y="333"/>
      <point x="1281" y="310"/>
      <point x="1281" y="248" type="curve" smooth="yes"/>
      <point x="1281" y="142" type="line" smooth="yes"/>
      <point x="1281" y="75"/>
      <point x="1255" y="56"/>
      <point x="1193" y="56" type="curve" smooth="yes"/>
      <point x="1109" y="56" type="line" smooth="yes"/>
      <point x="1046" y="56"/>
      <point x="1023" y="77"/>
    </contour>
    <contour>
      <point x="970" y="131" type="line" smooth="yes"/>
      <point x="970" y="46"/>
      <point x="1002" y="3"/>
      <point x="1100" y="3" type="curve" smooth="yes"/>
      <point x="1201" y="3" type="line" smooth="yes"/>
      <point x="1302" y="3"/>
      <point x="1334" y="46"/>
      <point x="1334" y="131" type="curve" smooth="yes"/>
      <point x="1334" y="258" type="line" smooth="yes"/>
      <point x="1334" y="343"/>
      <point x="1301" y="386"/>
      <point x="1203" y="386" type="curve" smooth="yes"/>
      <point x="1102" y="386" type="line" smooth="yes"/>
      <point x="1001" y="386"/>
      <point x="970" y="343"/>
      <point x="970" y="258" type="curve" smooth="yes"/>
    </contour>
    <contour>
      <point x="603" y="142" type="curve" smooth="yes"/>
      <point x="603" y="248" type="line" smooth="yes"/>
      <point x="603" y="318"/>
      <point x="631" y="333"/>
      <point x="691" y="333" type="curve" smooth="yes"/>
      <point x="775" y="333" type="line" smooth="yes"/>
      <point x="840" y="333"/>
      <point x="861" y="310"/>
      <point x="861" y="248" type="curve" smooth="yes"/>
      <point x="861" y="142" type="line" smooth="yes"/>
      <point x="861" y="75"/>
      <point x="835" y="56"/>
      <point x="773" y="56" type="curve" smooth="yes"/>
      <point x="689" y="56" type="line" smooth="yes"/>
      <point x="626" y="56"/>
      <point x="603" y="77"/>
    </contour>
    <contour>
      <point x="550" y="131" type="line" smooth="yes"/>
      <point x="550" y="46"/>
      <point x="582" y="3"/>
      <point x="680" y="3" type="curve" smooth="yes"/>
      <point x="781" y="3" type="line" smooth="yes"/>
      <point x="882" y="3"/>
      <point x="914" y="46"/>
      <point x="914" y="131" type="curve" smooth="yes"/>
      <point x="914" y="258" type="line" smooth="yes"/>
      <point x="914" y="343"/>
      <point x="881" y="386"/>
      <point x="783" y="386" type="curve" smooth="yes"/>
      <point x="682" y="386" type="line" smooth="yes"/>
      <point x="581" y="386"/>
      <point x="550" y="343"/>
      <point x="550" y="258" type="curve" smooth="yes"/>
    </contour>
    <contour>
      <point x="225" y="0" type="line"/>
      <point x="283" y="0" type="line"/>
      <point x="724" y="732" type="line"/>
      <point x="669" y="732" type="line"/>
    </contour>
    <contour>
      <point x="99" y="488" type="curve" smooth="yes"/>
      <point x="99" y="594" type="line" smooth="yes"/>
      <point x="99" y="664"/>
      <point x="127" y="679"/>
      <point x="187" y="679" type="curve" smooth="yes"/>
      <point x="271" y="679" type="line" smooth="yes"/>
      <point x="336" y="679"/>
      <point x="357" y="656"/>
      <point x="357" y="594" type="curve" smooth="yes"/>
      <point x="357" y="488" type="line" smooth="yes"/>
      <point x="357" y="421"/>
      <point x="331" y="402"/>
      <point x="269" y="402" type="curve" smooth="yes"/>
      <point x="185" y="402" type="line" smooth="yes"/>
      <point x="122" y="402"/>
      <point x="99" y="423"/>
    </contour>
    <contour>
      <point x="46" y="477" type="line" smooth="yes"/>
      <point x="46" y="392"/>
      <point x="78" y="349"/>
      <point x="176" y="349" type="curve" smooth="yes"/>
      <point x="277" y="349" type="line" smooth="yes"/>
      <point x="378" y="349"/>
      <point x="410" y="392"/>
      <point x="410" y="477" type="curve" smooth="yes"/>
      <point x="410" y="604" type="line" smooth="yes"/>
      <point x="410" y="689"/>
      <point x="377" y="732"/>
      <point x="279" y="732" type="curve" smooth="yes"/>
      <point x="178" y="732" type="line" smooth="yes"/>
      <point x="77" y="732"/>
      <point x="46" y="689"/>
      <point x="46" y="604" type="curve" smooth="yes"/>
    </contour>
  </outline>
</glyph>
<glyph name="guilsinglright" format="1">
  <advance width="361"/>
  <unicode hex="203A"/>
  <note>
    GF Latin Plus glyph
  </note>
  <outline>
    <contour>
      <point x="308" y="277" type="line"/>
      <point x="93" y="490" type="line"/>
      <point x="48" y="446" type="line"/>
      <point x="222" y="277" type="line"/>
      <point x="52" y="109" type="line"/>
      <point x="94" y="65" type="line"/>
    </contour>
  </outline>
</glyph>
<glyph name="zerosuperior" format="1">
  <advance width="455"/>
  <unicode hex="2070"/>
  <outline>
    <contour>
      <point x="113" y="418" type="curve" smooth="yes"/>
      <point x="113" y="685" type="line" smooth="yes"/>
      <point x="113" y="736"/>
      <point x="146" y="763"/>
      <point x="193" y="763" type="curve" smooth="yes"/>
      <point x="265" y="763" type="line" smooth="yes"/>
      <point x="315" y="763"/>
      <point x="343" y="737"/>
      <point x="343" y="685" type="curve" smooth="yes"/>
      <point x="343" y="418" type="line" smooth="yes"/>
      <point x="343" y="368"/>
      <point x="319" y="340"/>
      <point x="265" y="340" type="curve" smooth="yes"/>
      <point x="193" y="340" type="line" smooth="yes"/>
      <point x="146" y="340"/>
      <point x="113" y="365"/>
    </contour>
    <contour>
      <point x="43" y="409" type="line" smooth="yes"/>
      <point x="43" y="319"/>
      <point x="99" y="278"/>
      <point x="181" y="278" type="curve" smooth="yes"/>
      <point x="279" y="278" type="line" smooth="yes"/>
      <point x="361" y="278"/>
      <point x="413" y="319"/>
      <point x="413" y="409" type="curve" smooth="yes"/>
      <point x="413" y="691" type="line" smooth="yes"/>
      <point x="413" y="771"/>
      <point x="372" y="824"/>
      <point x="280" y="824" type="curve" smooth="yes"/>
      <point x="181" y="824" type="line" smooth="yes"/>
      <point x="99" y="824"/>
      <point x="43" y="778"/>
      <point x="43" y="691" type="curve" smooth="yes"/>
    </contour>
  </outline>
</glyph>
<glyph name="i.superior" format="1">
  <advance width="177"/>
  <unicode hex="2071"/>
  <outline>
    <contour>
      <point x="51" y="752" type="line" smooth="yes"/>
      <point x="51" y="744"/>
      <point x="56" y="739"/>
      <point x="64" y="739" type="curve" smooth="yes"/>
      <point x="115" y="739" type="line" smooth="yes"/>
      <point x="123" y="739"/>
      <point x="126" y="744"/>
      <point x="126" y="752" type="curve" smooth="yes"/>
      <point x="126" y="812" type="line" smooth="yes"/>
      <point x="126" y="819"/>
      <point x="123" y="824"/>
      <point x="115" y="824" type="curve" smooth="yes"/>
      <point x="64" y="824" type="line" smooth="yes"/>
      <point x="55" y="824"/>
      <point x="51" y="820"/>
      <point x="51" y="812" type="curve" smooth="yes"/>
    </contour>
    <contour>
      <point x="53" y="280" type="line"/>
      <point x="123" y="280" type="line"/>
      <point x="123" y="672" type="line"/>
      <point x="53" y="672" type="line"/>
    </contour>
    <contour>
      <point x="116" y="280" type="move" name="ogonek"/>
    </contour>
    <contour>
      <point x="88" y="170" type="move" name="bottom"/>
    </contour>
  </outline>
</glyph>
<glyph name="foursuperior" format="1">
  <advance width="455"/>
  <unicode hex="2074"/>
  <note>
    GF Latin Plus glyph
  </note>
  <outline>
    <contour>
      <point x="27" y="449" type="line"/>
      <point x="42" y="412" type="line"/>
      <point x="297" y="412" type="line"/>
      <point x="297" y="281" type="line"/>
      <point x="366" y="281" type="line"/>
      <point x="366" y="412" type="line"/>
      <point x="436" y="424" type="line"/>
      <point x="436" y="472" type="line"/>
      <point x="366" y="472" type="line"/>
      <point x="366" y="660" type="line"/>
      <point x="315" y="660" type="line"/>
      <point x="297" y="597" type="line"/>
      <point x="297" y="472" type="line"/>
      <point x="110" y="472" type="line"/>
      <point x="300" y="820" type="line"/>
      <point x="227" y="820" type="line"/>
    </contour>
  </outline>
</glyph>
<glyph name="fivesuperior" format="1">
  <advance width="455"/>
  <unicode hex="2075"/>
  <outline>
    <contour>
      <point x="63" y="285" type="line"/>
      <point x="118" y="280"/>
      <point x="188" y="276"/>
      <point x="254" y="276" type="curve" smooth="yes"/>
      <point x="360" y="276"/>
      <point x="429" y="318"/>
      <point x="429" y="408" type="curve" smooth="yes"/>
      <point x="429" y="488" type="line" smooth="yes"/>
      <point x="429" y="558"/>
      <point x="383" y="610"/>
      <point x="297" y="610" type="curve" smooth="yes"/>
      <point x="232" y="610" type="line" smooth="yes"/>
      <point x="189" y="610"/>
      <point x="159" y="594"/>
      <point x="147" y="575" type="curve"/>
      <point x="155" y="757" type="line"/>
      <point x="410" y="757" type="line"/>
      <point x="410" y="820" type="line"/>
      <point x="93" y="820" type="line"/>
      <point x="77" y="494" type="line"/>
      <point x="145" y="494" type="line"/>
      <point x="152" y="533"/>
      <point x="177" y="550"/>
      <point x="219" y="550" type="curve" smooth="yes"/>
      <point x="273" y="550" type="line" smooth="yes"/>
      <point x="328" y="550"/>
      <point x="357" y="522"/>
      <point x="357" y="477" type="curve" smooth="yes"/>
      <point x="357" y="418" type="line" smooth="yes"/>
      <point x="357" y="367"/>
      <point x="312" y="339"/>
      <point x="256" y="339" type="curve" smooth="yes"/>
      <point x="63" y="339" type="line"/>
    </contour>
  </outline>
</glyph>
<glyph name="sixsuperior" format="1">
  <advance width="455"/>
  <unicode hex="2076"/>
  <outline>
    <contour>
      <point x="124" y="530" type="curve"/>
      <point x="251" y="530" type="line" smooth="yes"/>
      <point x="314" y="530"/>
      <point x="349" y="518"/>
      <point x="349" y="462" type="curve" smooth="yes"/>
      <point x="349" y="408" type="line" smooth="yes"/>
      <point x="349" y="356"/>
      <point x="316" y="341"/>
      <point x="276" y="341" type="curve" smooth="yes"/>
      <point x="216" y="341" type="line" smooth="yes"/>
      <point x="157" y="341"/>
      <point x="124" y="379"/>
    </contour>
    <contour>
      <point x="52" y="548" type="curve" smooth="yes"/>
      <point x="52" y="331"/>
      <point x="110" y="278"/>
      <point x="207" y="278" type="curve" smooth="yes"/>
      <point x="291" y="278" type="line" smooth="yes"/>
      <point x="364" y="278"/>
      <point x="421" y="310"/>
      <point x="421" y="398" type="curve" smooth="yes"/>
      <point x="421" y="474" type="line" smooth="yes"/>
      <point x="421" y="555"/>
      <point x="371" y="590"/>
      <point x="269" y="590" type="curve" smooth="yes"/>
      <point x="225" y="590"/>
      <point x="166" y="588"/>
      <point x="124" y="581" type="curve"/>
      <point x="124" y="702"/>
      <point x="171" y="761"/>
      <point x="253" y="761" type="curve" smooth="yes"/>
      <point x="388" y="761" type="line"/>
      <point x="388" y="816" type="line"/>
      <point x="348" y="821"/>
      <point x="294" y="824"/>
      <point x="250" y="824" type="curve" smooth="yes"/>
      <point x="125" y="824"/>
      <point x="52" y="747"/>
    </contour>
  </outline>
</glyph>
<glyph name="sevensuperior" format="1">
  <advance width="455"/>
  <unicode hex="2077"/>
  <outline>
    <contour>
      <point x="47" y="750" type="line"/>
      <point x="313" y="750" type="line"/>
      <point x="128" y="280" type="line"/>
      <point x="209" y="280" type="line"/>
      <point x="405" y="786" type="line"/>
      <point x="383" y="820" type="line"/>
      <point x="47" y="820" type="line"/>
    </contour>
  </outline>
</glyph>
<glyph name="eightsuperior" format="1">
  <advance width="455"/>
  <unicode hex="2078"/>
  <outline>
    <contour>
      <point x="125" y="649" type="curve" smooth="yes"/>
      <point x="125" y="696" type="line" smooth="yes"/>
      <point x="125" y="746"/>
      <point x="146" y="766"/>
      <point x="193" y="766" type="curve" smooth="yes"/>
      <point x="269" y="766" type="line" smooth="yes"/>
      <point x="309" y="766"/>
      <point x="331" y="749"/>
      <point x="331" y="696" type="curve" smooth="yes"/>
      <point x="331" y="649" type="line" smooth="yes"/>
      <point x="331" y="618"/>
      <point x="315" y="585"/>
      <point x="266" y="585" type="curve" smooth="yes"/>
      <point x="193" y="585" type="line" smooth="yes"/>
      <point x="146" y="585"/>
      <point x="125" y="610"/>
    </contour>
    <contour>
      <point x="116" y="398" type="curve" smooth="yes"/>
      <point x="116" y="462" type="line" smooth="yes"/>
      <point x="116" y="509"/>
      <point x="162" y="526"/>
      <point x="193" y="526" type="curve" smooth="yes"/>
      <point x="266" y="526" type="line" smooth="yes"/>
      <point x="319" y="526"/>
      <point x="340" y="507"/>
      <point x="340" y="462" type="curve" smooth="yes"/>
      <point x="340" y="398" type="line" smooth="yes"/>
      <point x="340" y="358"/>
      <point x="319" y="337"/>
      <point x="269" y="337" type="curve" smooth="yes"/>
      <point x="193" y="337" type="line" smooth="yes"/>
      <point x="148" y="337"/>
      <point x="116" y="353"/>
    </contour>
    <contour>
      <point x="46" y="388" type="line" smooth="yes"/>
      <point x="46" y="312"/>
      <point x="98" y="278"/>
      <point x="183" y="278" type="curve" smooth="yes"/>
      <point x="283" y="278" type="line" smooth="yes"/>
      <point x="365" y="278"/>
      <point x="410" y="313"/>
      <point x="410" y="388" type="curve" smooth="yes"/>
      <point x="410" y="468" type="line" smooth="yes"/>
      <point x="410" y="507"/>
      <point x="388" y="551"/>
      <point x="345" y="561" type="curve"/>
      <point x="379" y="574"/>
      <point x="399" y="610"/>
      <point x="399" y="649" type="curve" smooth="yes"/>
      <point x="399" y="711" type="line" smooth="yes"/>
      <point x="399" y="792"/>
      <point x="352" y="824"/>
      <point x="283" y="824" type="curve" smooth="yes"/>
      <point x="179" y="824" type="line" smooth="yes"/>
      <point x="111" y="824"/>
      <point x="57" y="792"/>
      <point x="57" y="711" type="curve" smooth="yes"/>
      <point x="57" y="649" type="line" smooth="yes"/>
      <point x="57" y="610"/>
      <point x="73" y="574"/>
      <point x="115" y="554" type="curve"/>
      <point x="84" y="545"/>
      <point x="46" y="514"/>
      <point x="46" y="465" type="curve" smooth="yes"/>
    </contour>
  </outline>
</glyph>
<glyph name="ninesuperior" format="1">
  <advance width="455"/>
  <unicode hex="2079"/>
  <outline>
    <contour>
      <point x="343" y="571" type="curve"/>
      <point x="218" y="571" type="line" smooth="yes"/>
      <point x="155" y="571"/>
      <point x="118" y="582"/>
      <point x="118" y="639" type="curve" smooth="yes"/>
      <point x="118" y="691" type="line" smooth="yes"/>
      <point x="118" y="747"/>
      <point x="153" y="760"/>
      <point x="192" y="760" type="curve" smooth="yes"/>
      <point x="252" y="760" type="line" smooth="yes"/>
      <point x="312" y="760"/>
      <point x="343" y="722"/>
    </contour>
    <contour>
      <point x="415" y="552" type="curve" smooth="yes"/>
      <point x="415" y="769"/>
      <point x="357" y="823"/>
      <point x="261" y="823" type="curve" smooth="yes"/>
      <point x="177" y="823" type="line" smooth="yes"/>
      <point x="104" y="823"/>
      <point x="47" y="791"/>
      <point x="47" y="704" type="curve" smooth="yes"/>
      <point x="47" y="627" type="line" smooth="yes"/>
      <point x="47" y="546"/>
      <point x="96" y="511"/>
      <point x="198" y="511" type="curve" smooth="yes"/>
      <point x="242" y="511"/>
      <point x="302" y="513"/>
      <point x="343" y="520" type="curve"/>
      <point x="343" y="399"/>
      <point x="297" y="339"/>
      <point x="214" y="339" type="curve" smooth="yes"/>
      <point x="80" y="339" type="line"/>
      <point x="80" y="285" type="line"/>
      <point x="119" y="280"/>
      <point x="173" y="276"/>
      <point x="218" y="276" type="curve" smooth="yes"/>
      <point x="342" y="276"/>
      <point x="415" y="355"/>
    </contour>
  </outline>
</glyph>
<glyph name="n.superior" format="1">
  <advance width="441"/>
  <unicode hex="207F"/>
  <outline>
    <contour>
      <point x="53" y="280" type="line"/>
      <point x="123" y="280" type="line"/>
      <point x="123" y="580" type="line"/>
      <point x="162" y="603"/>
      <point x="194" y="617"/>
      <point x="241" y="617" type="curve" smooth="yes"/>
      <point x="290" y="617"/>
      <point x="320" y="583"/>
      <point x="320" y="537" type="curve" smooth="yes"/>
      <point x="320" y="280" type="line"/>
      <point x="390" y="280" type="line"/>
      <point x="390" y="545" type="line" smooth="yes"/>
      <point x="390" y="617"/>
      <point x="355" y="678"/>
      <point x="265" y="678" type="curve" smooth="yes"/>
      <point x="212" y="678"/>
      <point x="159" y="655"/>
      <point x="123" y="629" type="curve"/>
      <point x="109" y="672" type="line"/>
      <point x="53" y="672" type="line"/>
    </contour>
    <contour>
      <point x="220" y="756" type="move" name="top"/>
    </contour>
    <contour>
      <point x="220" y="170" type="move" name="bottom"/>
    </contour>
  </outline>
</glyph>
<glyph name="franc" format="1">
  <advance width="609"/>
  <unicode hex="20A3"/>
  <note>
    GF Latin Plus glyph
  </note>
  <outline>
    <contour>
      <point x="147" y="0" type="line"/>
      <point x="228" y="0" type="line"/>
      <point x="228" y="353" type="line"/>
      <point x="490" y="358" type="line"/>
      <point x="490" y="421" type="line"/>
      <point x="228" y="426" type="line"/>
      <point x="228" y="575" type="line" smooth="yes"/>
      <point x="228" y="631"/>
      <point x="259" y="661"/>
      <point x="312" y="661" type="curve" smooth="yes"/>
      <point x="533" y="661" type="line"/>
      <point x="533" y="726" type="line"/>
      <point x="503" y="730"/>
      <point x="308" y="736"/>
      <point x="293" y="736" type="curve" smooth="yes"/>
      <point x="222" y="737"/>
      <point x="147" y="702"/>
      <point x="147" y="591" type="curve" smooth="yes"/>
    </contour>
    <contour>
      <point x="62" y="143" type="line"/>
      <point x="147" y="138" type="line"/>
      <point x="228" y="138" type="line"/>
      <point x="485" y="143" type="line"/>
      <point x="485" y="199" type="line"/>
      <point x="228" y="204" type="line"/>
      <point x="147" y="204" type="line"/>
      <point x="62" y="199" type="line"/>
    </contour>
  </outline>
</glyph>
<glyph name="lira" format="1">
  <advance width="609"/>
  <unicode hex="20A4"/>
  <note>
    GF Latin Plus glyph
  </note>
  <outline>
    <contour>
      <point x="63" y="0" type="line"/>
      <point x="544" y="0" type="line"/>
      <point x="544" y="73" type="line"/>
      <point x="253" y="73" type="line"/>
      <point x="253" y="240" type="line"/>
      <point x="466" y="243" type="line"/>
      <point x="466" y="283" type="line"/>
      <point x="253" y="287" type="line"/>
      <point x="253" y="377" type="line"/>
      <point x="466" y="380" type="line"/>
      <point x="466" y="419" type="line"/>
      <point x="253" y="423" type="line"/>
      <point x="253" y="525" type="line" smooth="yes"/>
      <point x="253" y="641"/>
      <point x="298" y="665"/>
      <point x="388" y="665" type="curve" smooth="yes"/>
      <point x="533" y="665" type="line"/>
      <point x="533" y="728" type="line"/>
      <point x="498" y="732"/>
      <point x="441" y="738"/>
      <point x="384" y="738" type="curve" smooth="yes"/>
      <point x="250" y="738"/>
      <point x="172" y="692"/>
      <point x="172" y="524" type="curve" smooth="yes"/>
      <point x="172" y="423" type="line"/>
      <point x="63" y="419" type="line"/>
      <point x="63" y="380" type="line"/>
      <point x="172" y="377" type="line"/>
      <point x="172" y="290" type="line"/>
      <point x="64" y="286" type="line"/>
      <point x="64" y="246" type="line"/>
      <point x="172" y="243" type="line"/>
      <point x="172" y="73" type="line"/>
      <point x="63" y="61" type="line"/>
    </contour>
  </outline>
</glyph>
<glyph name="naira" format="1">
  <advance width="609"/>
  <unicode hex="20A6"/>
  <note>
    GF Latin Plus glyph
  </note>
  <outline>
    <contour>
      <point x="95" y="0" type="line"/>
      <point x="162" y="0" type="line"/>
      <point x="162" y="590" type="line"/>
      <point x="457" y="0" type="line"/>
      <point x="514" y="0" type="line"/>
      <point x="514" y="743" type="line"/>
      <point x="448" y="743" type="line"/>
      <point x="448" y="153" type="line"/>
      <point x="152" y="743" type="line"/>
      <point x="95" y="743" type="line"/>
    </contour>
    <contour>
      <point x="30" y="466" type="line"/>
      <point x="125" y="466" type="line"/>
      <point x="125" y="512" type="line"/>
      <point x="30" y="512" type="line"/>
    </contour>
    <contour>
      <point x="258" y="466" type="line"/>
      <point x="579" y="466" type="line"/>
      <point x="579" y="512" type="line"/>
      <point x="235" y="512" type="line"/>
    </contour>
    <contour>
      <point x="30" y="231" type="line"/>
      <point x="385" y="231" type="line"/>
      <point x="359" y="277" type="line"/>
      <point x="30" y="277" type="line"/>
    </contour>
    <contour>
      <point x="491" y="231" type="line"/>
      <point x="579" y="231" type="line"/>
      <point x="579" y="277" type="line"/>
      <point x="491" y="277" type="line"/>
    </contour>
  </outline>
</glyph>
<glyph name="peseta" format="1">
  <advance width="609"/>
  <unicode hex="20A7"/>
  <note>
    GF Latin Plus glyph
  </note>
  <outline>
    <contour>
      <point x="170" y="270" type="line"/>
      <point x="170" y="664" type="line"/>
      <point x="337" y="664" type="line" smooth="yes"/>
      <point x="398" y="664"/>
      <point x="452" y="624"/>
      <point x="452" y="470" type="curve" smooth="yes"/>
      <point x="452" y="315"/>
      <point x="397" y="270"/>
      <point x="330" y="270" type="curve" smooth="yes"/>
    </contour>
    <contour>
      <point x="91" y="0" type="line"/>
      <point x="170" y="0" type="line"/>
      <point x="170" y="209" type="line"/>
      <point x="204" y="206"/>
      <point x="303" y="199"/>
      <point x="340" y="199" type="curve" smooth="yes"/>
      <point x="422" y="199"/>
      <point x="532" y="239"/>
      <point x="532" y="471" type="curve" smooth="yes"/>
      <point x="532" y="699"/>
      <point x="428" y="736"/>
      <point x="343" y="736" type="curve" smooth="yes"/>
      <point x="91" y="736" type="line"/>
    </contour>
    <contour>
      <point x="143" y="440" type="line"/>
      <point x="599" y="440" type="line"/>
      <point x="599" y="486" type="line"/>
      <point x="143" y="486" type="line"/>
    </contour>
    <contour>
      <point x="17" y="440" type="line"/>
      <point x="137" y="440" type="line"/>
      <point x="137" y="486" type="line"/>
      <point x="17" y="486" type="line"/>
    </contour>
  </outline>
</glyph>
<glyph name="won" format="1">
  <advance width="609"/>
  <unicode hex="20A9"/>
  <note>
    GF Latin Plus glyph
  </note>
  <outline>
    <contour>
      <point x="48" y="736" type="line"/>
      <point x="122" y="0" type="line"/>
      <point x="192" y="0" type="line"/>
      <point x="300" y="471" type="line"/>
      <point x="411" y="0" type="line"/>
      <point x="480" y="0" type="line"/>
      <point x="556" y="736" type="line"/>
      <point x="484" y="736" type="line"/>
      <point x="423" y="174" type="line"/>
      <point x="323" y="603" type="line"/>
      <point x="282" y="603" type="line"/>
      <point x="179" y="174" type="line"/>
      <point x="121" y="736" type="line"/>
    </contour>
    <contour>
      <point x="5" y="466" type="line"/>
      <point x="108" y="466" type="line"/>
      <point x="108" y="512" type="line"/>
      <point x="5" y="512" type="line"/>
    </contour>
    <contour>
      <point x="510" y="466" type="line"/>
      <point x="597" y="466" type="line"/>
      <point x="597" y="512" type="line"/>
      <point x="507" y="512" type="line"/>
    </contour>
    <contour>
      <point x="5" y="231" type="line"/>
      <point x="149" y="231" type="line"/>
      <point x="136" y="277" type="line"/>
      <point x="5" y="277" type="line"/>
    </contour>
    <contour>
      <point x="467" y="231" type="line"/>
      <point x="597" y="231" type="line"/>
      <point x="597" y="277" type="line"/>
      <point x="467" y="277" type="line"/>
    </contour>
  </outline>
</glyph>
<glyph name="dong" format="1">
  <advance width="609"/>
  <unicode hex="20AB"/>
  <note>
    GF Latin Plus glyph
  </note>
  <outline>
    <contour>
      <point x="73" y="-34" type="line"/>
      <point x="551" y="-34" type="line"/>
      <point x="551" y="33" type="line"/>
      <point x="73" y="33" type="line"/>
    </contour>
    <contour>
      <point x="296" y="669" type="line"/>
      <point x="585" y="669" type="line"/>
      <point x="585" y="704" type="line"/>
      <point x="296" y="704" type="line"/>
    </contour>
    <contour>
      <point x="151" y="353" type="curve" smooth="yes"/>
      <point x="151" y="478"/>
      <point x="193" y="518"/>
      <point x="294" y="518" type="curve" smooth="yes"/>
      <point x="349" y="518"/>
      <point x="387" y="506"/>
      <point x="435" y="492" type="curve"/>
      <point x="435" y="239" type="line"/>
      <point x="396" y="218"/>
      <point x="347" y="194"/>
      <point x="286" y="194" type="curve" smooth="yes"/>
      <point x="190" y="194"/>
      <point x="151" y="240"/>
    </contour>
    <contour>
      <point x="70" y="350" type="curve" smooth="yes"/>
      <point x="70" y="197"/>
      <point x="130" y="128"/>
      <point x="262" y="128" type="curve" smooth="yes"/>
      <point x="323" y="128"/>
      <point x="405" y="160"/>
      <point x="435" y="188" type="curve"/>
      <point x="450" y="134" type="line"/>
      <point x="516" y="134" type="line"/>
      <point x="516" y="783" type="line"/>
      <point x="435" y="783" type="line"/>
      <point x="435" y="550" type="line"/>
      <point x="392" y="565"/>
      <point x="331" y="581"/>
      <point x="272" y="581" type="curve" smooth="yes"/>
      <point x="124" y="581"/>
      <point x="70" y="515"/>
    </contour>
  </outline>
</glyph>
<glyph name="peso" format="1">
  <advance width="609"/>
  <unicode hex="20B1"/>
  <note>
    GF Latin Plus glyph
  </note>
  <outline>
    <contour>
      <point x="484" y="539" type="line"/>
      <point x="599" y="539" type="line"/>
      <point x="599" y="585" type="line"/>
      <point x="484" y="585" type="line"/>
    </contour>
    <contour>
      <point x="10" y="539" type="line"/>
      <point x="152" y="539" type="line"/>
      <point x="152" y="585" type="line"/>
      <point x="10" y="585" type="line"/>
    </contour>
    <contour>
      <point x="461" y="368" type="line"/>
      <point x="599" y="368" type="line"/>
      <point x="599" y="414" type="line"/>
      <point x="478" y="414" type="line"/>
    </contour>
    <contour>
      <point x="10" y="368" type="line"/>
      <point x="156" y="368" type="line"/>
      <point x="156" y="414" type="line"/>
      <point x="10" y="414" type="line"/>
    </contour>
    <contour>
      <point x="191" y="331" type="line"/>
      <point x="191" y="662" type="line"/>
      <point x="326" y="662" type="line" smooth="yes"/>
      <point x="389" y="662"/>
      <point x="444" y="629"/>
      <point x="444" y="500" type="curve" smooth="yes"/>
      <point x="444" y="369"/>
      <point x="389" y="331"/>
      <point x="320" y="331" type="curve" smooth="yes"/>
    </contour>
    <contour>
      <point x="117" y="0" type="line"/>
      <point x="191" y="0" type="line"/>
      <point x="191" y="268" type="line"/>
      <point x="228" y="266"/>
      <point x="294" y="258"/>
      <point x="330" y="258" type="curve" smooth="yes"/>
      <point x="411" y="258"/>
      <point x="519" y="294"/>
      <point x="519" y="500" type="curve" smooth="yes"/>
      <point x="519" y="704"/>
      <point x="417" y="736"/>
      <point x="333" y="736" type="curve" smooth="yes"/>
      <point x="117" y="736" type="line"/>
    </contour>
  </outline>
</glyph>
<glyph name="guarani" format="1">
  <advance width="609"/>
  <unicode hex="20B2"/>
  <note>
    GF Latin Plus glyph
  </note>
  <outline>
    <contour>
      <point x="357" y="-100" type="line"/>
      <point x="357" y="793" type="line"/>
      <point x="313" y="793" type="line"/>
      <point x="313" y="-100" type="line"/>
    </contour>
    <contour>
      <point x="52" y="363" type="curve" smooth="yes"/>
      <point x="52" y="110"/>
      <point x="101" y="-6"/>
      <point x="289" y="-5" type="curve" smooth="yes"/>
      <point x="373" y="-4"/>
      <point x="454" y="27"/>
      <point x="501" y="52" type="curve"/>
      <point x="514" y="0" type="line"/>
      <point x="566" y="0" type="line"/>
      <point x="566" y="388" type="line"/>
      <point x="493" y="388" type="line"/>
      <point x="493" y="106" type="line"/>
      <point x="446" y="88"/>
      <point x="374" y="68"/>
      <point x="310" y="68" type="curve" smooth="yes"/>
      <point x="165" y="68"/>
      <point x="125" y="133"/>
      <point x="125" y="362" type="curve" smooth="yes"/>
      <point x="125" y="575"/>
      <point x="166" y="657"/>
      <point x="327" y="657" type="curve" smooth="yes"/>
      <point x="416" y="657"/>
      <point x="512" y="648"/>
      <point x="552" y="643" type="curve"/>
      <point x="552" y="703" type="line"/>
      <point x="483" y="717"/>
      <point x="393" y="728"/>
      <point x="315" y="728" type="curve" smooth="yes"/>
      <point x="108" y="728"/>
      <point x="52" y="608"/>
    </contour>
  </outline>
</glyph>
<glyph name="manat" format="1">
  <advance width="609"/>
  <unicode hex="20BC"/>
  <note>
    GF Latin Plus glyph
  </note>
  <outline>
    <contour>
      <point x="326" y="80" type="line"/>
      <point x="326" y="786" type="line"/>
      <point x="283" y="786" type="line"/>
      <point x="283" y="80" type="line"/>
    </contour>
    <contour>
      <point x="304" y="685" type="curve" smooth="yes"/>
      <point x="90" y="685"/>
      <point x="52" y="394"/>
      <point x="42" y="0" type="curve"/>
      <point x="115" y="0" type="line"/>
      <point x="125" y="235" type="line" smooth="yes"/>
      <point x="133" y="407"/>
      <point x="162" y="614"/>
      <point x="304" y="614" type="curve" smooth="yes"/>
      <point x="446" y="614"/>
      <point x="476" y="406"/>
      <point x="484" y="235" type="curve" smooth="yes"/>
      <point x="494" y="0" type="line"/>
      <point x="567" y="0" type="line"/>
      <point x="557" y="394"/>
      <point x="518" y="685"/>
    </contour>
  </outline>
</glyph>
<glyph name="ruble" format="1">
  <advance width="609"/>
  <unicode hex="20BD"/>
  <note>
    GF Latin Plus glyph
  </note>
  <outline>
    <contour>
      <point x="163" y="118" type="line"/>
      <point x="482" y="118" type="line"/>
      <point x="482" y="164" type="line"/>
      <point x="166" y="164" type="line"/>
    </contour>
    <contour>
      <point x="17" y="118" type="line"/>
      <point x="157" y="118" type="line"/>
      <point x="157" y="164" type="line"/>
      <point x="17" y="164" type="line"/>
    </contour>
    <contour>
      <point x="193" y="349" type="line"/>
      <point x="193" y="664" type="line"/>
      <point x="328" y="664" type="line" smooth="yes"/>
      <point x="427" y="664"/>
      <point x="468" y="624"/>
      <point x="468" y="508" type="curve" smooth="yes"/>
      <point x="468" y="402"/>
      <point x="430" y="349"/>
      <point x="328" y="349" type="curve" smooth="yes"/>
    </contour>
    <contour>
      <point x="117" y="0" type="line"/>
      <point x="193" y="0" type="line"/>
      <point x="193" y="284" type="line"/>
      <point x="200" y="283"/>
      <point x="328" y="280"/>
      <point x="338" y="280" type="curve" smooth="yes"/>
      <point x="461" y="280"/>
      <point x="544" y="343"/>
      <point x="544" y="509" type="curve" smooth="yes"/>
      <point x="544" y="692"/>
      <point x="451" y="736"/>
      <point x="348" y="736" type="curve" smooth="yes"/>
      <point x="117" y="736" type="line"/>
    </contour>
    <contour>
      <point x="17" y="304" type="line"/>
      <point x="153" y="304" type="line"/>
      <point x="153" y="349" type="line"/>
      <point x="17" y="349" type="line"/>
    </contour>
  </outline>
</glyph>
<glyph name="afii61289" format="1">
  <advance width="453"/>
  <unicode hex="2113"/>
  <outline>
    <contour>
      <point x="171" y="360" type="curve"/>
      <point x="171" y="602" type="line" smooth="yes"/>
      <point x="171" y="650"/>
      <point x="203" y="675"/>
      <point x="239" y="675" type="curve" smooth="yes"/>
      <point x="289" y="675"/>
      <point x="318" y="638"/>
      <point x="318" y="589" type="curve" smooth="yes"/>
      <point x="318" y="502"/>
      <point x="250" y="436"/>
    </contour>
    <contour>
      <point x="32" y="251" type="curve"/>
      <point x="45" y="212" type="line"/>
      <point x="56" y="217"/>
      <point x="79" y="232"/>
      <point x="90" y="243" type="curve"/>
      <point x="90" y="184" type="line" smooth="yes"/>
      <point x="90" y="45"/>
      <point x="139" y="0"/>
      <point x="228" y="0" type="curve" smooth="yes"/>
      <point x="341" y="0" type="line"/>
      <point x="341" y="49" type="line"/>
      <point x="271" y="58" type="line" smooth="yes"/>
      <point x="197" y="69"/>
      <point x="171" y="101"/>
      <point x="171" y="209" type="curve" smooth="yes"/>
      <point x="171" y="281" type="line"/>
      <point x="273" y="363"/>
      <point x="387" y="463"/>
      <point x="387" y="586" type="curve" smooth="yes"/>
      <point x="387" y="682"/>
      <point x="328" y="739"/>
      <point x="241" y="739" type="curve" smooth="yes"/>
      <point x="149" y="739"/>
      <point x="90" y="691"/>
      <point x="90" y="590" type="curve" smooth="yes"/>
      <point x="90" y="306" type="line"/>
      <point x="71" y="286"/>
      <point x="51" y="268"/>
    </contour>
  </outline>
</glyph>
<glyph name="numero" format="1">
  <advance width="1115"/>
  <unicode hex="2116"/>
  <note>
    GF Latin Plus glyph
  </note>
  <outline>
    <contour>
      <point x="90" y="0" type="line"/>
      <point x="90" y="623" type="line" smooth="yes"/>
      <point x="90" y="701"/>
      <point x="137" y="741"/>
      <point x="201" y="741" type="curve" smooth="yes"/>
      <point x="266" y="741"/>
      <point x="301" y="712"/>
      <point x="322" y="651" type="curve" smooth="yes"/>
      <point x="510" y="105" type="line" smooth="yes"/>
      <point x="517" y="85"/>
      <point x="533" y="74"/>
      <point x="549" y="74" type="curve" smooth="yes"/>
      <point x="577" y="74"/>
      <point x="592" y="93"/>
      <point x="592" y="124" type="curve" smooth="yes"/>
      <point x="592" y="540" type="line" smooth="yes"/>
      <point x="592" y="702"/>
      <point x="684" y="748"/>
      <point x="791" y="748" type="curve" smooth="yes"/>
      <point x="936" y="748" type="line" smooth="yes"/>
      <point x="1028" y="748"/>
      <point x="1094" y="692"/>
      <point x="1094" y="552" type="curve" smooth="yes"/>
      <point x="1094" y="438"/>
      <point x="1045" y="377"/>
      <point x="945" y="377" type="curve" smooth="yes"/>
      <point x="912" y="377" type="line" smooth="yes"/>
      <point x="816" y="377"/>
      <point x="767" y="430"/>
      <point x="767" y="604" type="curve"/>
      <point x="830" y="604" type="line"/>
      <point x="830" y="475"/>
      <point x="860" y="436"/>
      <point x="915" y="436" type="curve" smooth="yes"/>
      <point x="941" y="436" type="line" smooth="yes"/>
      <point x="1003" y="436"/>
      <point x="1031" y="474"/>
      <point x="1031" y="552" type="curve" smooth="yes"/>
      <point x="1031" y="652"/>
      <point x="987" y="681"/>
      <point x="934" y="681" type="curve" smooth="yes"/>
      <point x="801" y="681" type="line" smooth="yes"/>
      <point x="730" y="681"/>
      <point x="673" y="656"/>
      <point x="673" y="536" type="curve" smooth="yes"/>
      <point x="673" y="105" type="line" smooth="yes"/>
      <point x="673" y="34"/>
      <point x="624" y="-6"/>
      <point x="561" y="-6" type="curve" smooth="yes"/>
      <point x="502" y="-6"/>
      <point x="461" y="22"/>
      <point x="441" y="84" type="curve" smooth="yes"/>
      <point x="253" y="625" type="line" smooth="yes"/>
      <point x="244" y="650"/>
      <point x="230" y="661"/>
      <point x="210" y="661" type="curve" smooth="yes"/>
      <point x="187" y="661"/>
      <point x="171" y="647"/>
      <point x="171" y="610" type="curve" smooth="yes"/>
      <point x="171" y="0" type="line"/>
    </contour>
  </outline>
</glyph>
<glyph name="partialdiff" format="1">
  <advance width="658"/>
  <unicode hex="2202"/>
  <outline>
    <contour>
      <point x="140" y="229" type="curve" smooth="yes"/>
      <point x="140" y="337"/>
      <point x="204" y="378"/>
      <point x="317" y="378" type="curve" smooth="yes"/>
      <point x="378" y="378"/>
      <point x="456" y="356"/>
      <point x="484" y="341" type="curve"/>
      <point x="484" y="262"/>
      <point x="464" y="67"/>
      <point x="306" y="67" type="curve" smooth="yes"/>
      <point x="220" y="67"/>
      <point x="140" y="116"/>
    </contour>
    <contour>
      <point x="62" y="227" type="curve" smooth="yes"/>
      <point x="62" y="69"/>
      <point x="175" y="-5"/>
      <point x="305" y="-5" type="curve" smooth="yes"/>
      <point x="504" y="-5"/>
      <point x="569" y="178"/>
      <point x="569" y="387" type="curve" smooth="yes"/>
      <point x="569" y="603"/>
      <point x="495" y="740"/>
      <point x="307" y="740" type="curve" smooth="yes"/>
      <point x="223" y="740"/>
      <point x="161" y="713"/>
      <point x="99" y="671" type="curve"/>
      <point x="111" y="613" type="line"/>
      <point x="148" y="636"/>
      <point x="220" y="669"/>
      <point x="299" y="669" type="curve" smooth="yes"/>
      <point x="445" y="669"/>
      <point x="489" y="564"/>
      <point x="489" y="397" type="curve"/>
      <point x="433" y="436"/>
      <point x="354" y="448"/>
      <point x="303" y="448" type="curve" smooth="yes"/>
      <point x="152" y="448"/>
      <point x="62" y="378"/>
    </contour>
  </outline>
</glyph>
<glyph name="emptyset" format="1">
  <advance width="609"/>
  <unicode hex="2205"/>
  <outline>
    <contour>
      <point x="568" y="607" type="line"/>
      <point x="15" y="-36" type="line"/>
      <point x="42" y="-63" type="line"/>
      <point x="594" y="581" type="line"/>
    </contour>
    <contour>
      <point x="150" y="230" type="curve" smooth="yes"/>
      <point x="150" y="303" type="line" smooth="yes"/>
      <point x="150" y="421"/>
      <point x="204" y="469"/>
      <point x="272" y="469" type="curve" smooth="yes"/>
      <point x="336" y="469" type="line" smooth="yes"/>
      <point x="405" y="469"/>
      <point x="459" y="421"/>
      <point x="459" y="303" type="curve" smooth="yes"/>
      <point x="459" y="230" type="line" smooth="yes"/>
      <point x="459" y="111"/>
      <point x="405" y="64"/>
      <point x="336" y="64" type="curve" smooth="yes"/>
      <point x="272" y="64" type="line" smooth="yes"/>
      <point x="204" y="64"/>
      <point x="150" y="111"/>
    </contour>
    <contour>
      <point x="71" y="226" type="line" smooth="yes"/>
      <point x="71" y="100"/>
      <point x="133" y="-6"/>
      <point x="270" y="-6" type="curve" smooth="yes"/>
      <point x="339" y="-6" type="line" smooth="yes"/>
      <point x="476" y="-6"/>
      <point x="538" y="100"/>
      <point x="538" y="226" type="curve" smooth="yes"/>
      <point x="538" y="307" type="line" smooth="yes"/>
      <point x="538" y="433"/>
      <point x="476" y="539"/>
      <point x="339" y="539" type="curve" smooth="yes"/>
      <point x="270" y="539" type="line" smooth="yes"/>
      <point x="133" y="539"/>
      <point x="71" y="433"/>
      <point x="71" y="307" type="curve" smooth="yes"/>
    </contour>
  </outline>
</glyph>
<glyph name="summation" format="1">
  <advance width="564"/>
  <unicode hex="2211"/>
  <outline>
    <contour>
      <point x="44" y="-124" type="line"/>
      <point x="44" y="-200" type="line"/>
      <point x="543" y="-200" type="line"/>
      <point x="543" y="-126" type="line"/>
      <point x="139" y="-126" type="line"/>
      <point x="353" y="272" type="line"/>
      <point x="140" y="663" type="line"/>
      <point x="543" y="663" type="line"/>
      <point x="543" y="736" type="line"/>
      <point x="44" y="736" type="line"/>
      <point x="44" y="663" type="line"/>
      <point x="258" y="272" type="line"/>
    </contour>
  </outline>
</glyph>
<glyph name="divisionslash" format="1">
  <advance width="609"/>
  <unicode hex="2215"/>
  <note>
    GF Latin Plus glyph
  </note>
  <outline>
    <contour>
      <point x="483" y="713" type="line"/>
      <point x="67" y="0" type="line"/>
      <point x="126" y="0" type="line"/>
      <point x="541" y="713" type="line"/>
    </contour>
  </outline>
</glyph>
<glyph name="radical" format="1">
  <advance width="623"/>
  <unicode hex="221A"/>
  <outline>
    <contour>
      <point x="22" y="290" type="line"/>
      <point x="97" y="290" type="line"/>
      <point x="230" y="0" type="line"/>
      <point x="307" y="0" type="line"/>
      <point x="602" y="800" type="line"/>
      <point x="514" y="800" type="line"/>
      <point x="262" y="116" type="line"/>
      <point x="154" y="365" type="line"/>
      <point x="22" y="365" type="line"/>
    </contour>
  </outline>
</glyph>
<glyph name="infinity" format="1">
  <advance width="795"/>
  <unicode hex="221E"/>
  <outline>
    <contour>
      <point x="434" y="342" type="curve"/>
      <point x="467" y="393"/>
      <point x="531" y="458"/>
      <point x="590" y="458" type="curve" smooth="yes"/>
      <point x="668" y="458"/>
      <point x="682" y="410"/>
      <point x="682" y="341" type="curve" smooth="yes"/>
      <point x="682" y="275"/>
      <point x="666" y="225"/>
      <point x="584" y="225" type="curve" smooth="yes"/>
      <point x="523" y="225"/>
      <point x="468" y="283"/>
    </contour>
    <contour>
      <point x="114" y="341" type="curve" smooth="yes"/>
      <point x="114" y="424"/>
      <point x="133" y="458"/>
      <point x="208" y="458" type="curve" smooth="yes"/>
      <point x="261" y="458"/>
      <point x="322" y="398"/>
      <point x="360" y="342" type="curve"/>
      <point x="336" y="302"/>
      <point x="282" y="225"/>
      <point x="207" y="225" type="curve" smooth="yes"/>
      <point x="138" y="225"/>
      <point x="114" y="263"/>
    </contour>
    <contour>
      <point x="55" y="341" type="curve" smooth="yes"/>
      <point x="55" y="249"/>
      <point x="80" y="169"/>
      <point x="203" y="169" type="curve" smooth="yes"/>
      <point x="292" y="169"/>
      <point x="355" y="228"/>
      <point x="395" y="300" type="curve"/>
      <point x="437" y="234"/>
      <point x="507" y="169"/>
      <point x="588" y="169" type="curve" smooth="yes"/>
      <point x="716" y="169"/>
      <point x="741" y="249"/>
      <point x="741" y="341" type="curve" smooth="yes"/>
      <point x="741" y="421"/>
      <point x="726" y="514"/>
      <point x="598" y="514" type="curve" smooth="yes"/>
      <point x="512" y="514"/>
      <point x="431" y="443"/>
      <point x="396" y="384" type="curve"/>
      <point x="355" y="443"/>
      <point x="284" y="514"/>
      <point x="204" y="514" type="curve" smooth="yes"/>
      <point x="70" y="514"/>
      <point x="55" y="428"/>
    </contour>
  </outline>
</glyph>
<glyph name="integral" format="1">
  <advance width="451"/>
  <unicode hex="222B"/>
  <outline>
    <contour>
      <point x="22" y="-140" type="line"/>
      <point x="22" y="-190" type="line"/>
      <point x="41" y="-197"/>
      <point x="80" y="-203"/>
      <point x="116" y="-203" type="curve" smooth="yes"/>
      <point x="220" y="-203"/>
      <point x="266" y="-124"/>
      <point x="266" y="-3" type="curve" smooth="yes"/>
      <point x="266" y="611" type="line" smooth="yes"/>
      <point x="266" y="684"/>
      <point x="285" y="736"/>
      <point x="358" y="736" type="curve" smooth="yes"/>
      <point x="429" y="736" type="line"/>
      <point x="429" y="786" type="line"/>
      <point x="413" y="790"/>
      <point x="391" y="799"/>
      <point x="330" y="799" type="curve" smooth="yes"/>
      <point x="226" y="799"/>
      <point x="184" y="726"/>
      <point x="184" y="614" type="curve" smooth="yes"/>
      <point x="184" y="-8" type="line" smooth="yes"/>
      <point x="184" y="-105"/>
      <point x="143" y="-140"/>
      <point x="92" y="-140" type="curve" smooth="yes"/>
    </contour>
  </outline>
</glyph>
<glyph name="greaterequal" format="1">
  <advance width="609"/>
  <unicode hex="2265"/>
  <note>
    GF Latin Plus glyph
  </note>
  <outline>
    <contour>
      <point x="98" y="244" type="line"/>
      <point x="513" y="373" type="line"/>
      <point x="513" y="444" type="line"/>
      <point x="98" y="572" type="line"/>
      <point x="98" y="503" type="line"/>
      <point x="438" y="409" type="line"/>
      <point x="98" y="312" type="line"/>
    </contour>
    <component base="minus" yOffset="-250"/>
  </outline>
</glyph>
<glyph name="f_f" format="1">
  <advance width="767"/>
  <unicode hex="FB00"/>
  <note>
    GF Latin Plus glyph
  </note>
  <outline>
    <contour>
      <point x="20" y="469" type="line"/>
      <point x="102" y="469" type="line"/>
      <point x="102" y="0" type="line"/>
      <point x="181" y="0" type="line"/>
      <point x="181" y="469" type="line"/>
      <point x="528" y="469" type="line"/>
      <point x="528" y="534" type="line"/>
      <point x="181" y="534" type="line"/>
      <point x="181" y="595" type="line" smooth="yes"/>
      <point x="181" y="666"/>
      <point x="197" y="703"/>
      <point x="272" y="703" type="curve" smooth="yes"/>
      <point x="300" y="703"/>
      <point x="334" y="701"/>
      <point x="362" y="698" type="curve"/>
      <point x="362" y="754" type="line"/>
      <point x="334" y="762"/>
      <point x="299" y="769"/>
      <point x="249" y="769" type="curve" smooth="yes"/>
      <point x="138" y="769"/>
      <point x="102" y="716"/>
      <point x="102" y="605" type="curve" smooth="yes"/>
      <point x="102" y="534" type="line"/>
      <point x="20" y="520" type="line"/>
    </contour>
    <component base="f" xOffset="383"/>
  </outline>
</glyph>
<glyph name="fi" format="1">
  <advance width="615"/>
  <unicode hex="FB01"/>
  <note>
    GF Latin Plus glyph
  </note>
  <outline>
    <contour>
      <point x="20" y="467" type="line"/>
      <point x="102" y="467" type="line"/>
      <point x="102" y="0" type="line"/>
      <point x="183" y="0" type="line"/>
      <point x="183" y="467" type="line"/>
      <point x="498" y="467" type="line"/>
      <point x="498" y="534" type="line"/>
      <point x="183" y="534" type="line"/>
      <point x="183" y="595" type="line" smooth="yes"/>
      <point x="183" y="665"/>
      <point x="199" y="701"/>
      <point x="273" y="701" type="curve" smooth="yes"/>
      <point x="301" y="701"/>
      <point x="335" y="699"/>
      <point x="362" y="696" type="curve"/>
      <point x="362" y="754" type="line"/>
      <point x="334" y="762"/>
      <point x="299" y="769"/>
      <point x="249" y="769" type="curve" smooth="yes"/>
      <point x="138" y="769"/>
      <point x="102" y="716"/>
      <point x="102" y="605" type="curve" smooth="yes"/>
      <point x="102" y="534" type="line"/>
      <point x="20" y="520" type="line"/>
    </contour>
    <component base="i" xOffset="384"/>
  </outline>
</glyph>
<glyph name="fl" format="1">
  <advance width="677"/>
  <unicode hex="FB02"/>
  <note>
    GF Latin Plus glyph
  </note>
  <outline>
    <contour>
      <point x="20" y="469" type="line"/>
      <point x="102" y="469" type="line"/>
      <point x="102" y="0" type="line"/>
      <point x="181" y="0" type="line"/>
      <point x="181" y="469" type="line"/>
      <point x="346" y="469" type="line"/>
      <point x="346" y="534" type="line"/>
      <point x="181" y="534" type="line"/>
      <point x="181" y="595" type="line" smooth="yes"/>
      <point x="181" y="666"/>
      <point x="204" y="703"/>
      <point x="302" y="703" type="curve" smooth="yes"/>
      <point x="377" y="703"/>
      <point x="471" y="699"/>
      <point x="538" y="694" type="curve"/>
      <point x="538" y="748" type="line"/>
      <point x="478" y="756"/>
      <point x="393" y="769"/>
      <point x="292" y="769" type="curve" smooth="yes"/>
      <point x="150" y="769"/>
      <point x="102" y="714"/>
      <point x="102" y="598" type="curve" smooth="yes"/>
      <point x="102" y="534" type="line"/>
      <point x="20" y="520" type="line"/>
    </contour>
    <contour>
      <point x="459" y="172" type="line" smooth="yes"/>
      <point x="459" y="43"/>
      <point x="508" y="0"/>
      <point x="600" y="0" type="curve" smooth="yes"/>
      <point x="667" y="0" type="line"/>
      <point x="667" y="57" type="line"/>
      <point x="613" y="63" type="line" smooth="yes"/>
      <point x="566" y="69"/>
      <point x="538" y="88"/>
      <point x="538" y="182" type="curve" smooth="yes"/>
      <point x="538" y="737" type="line"/>
      <point x="459" y="737" type="line"/>
    </contour>
  </outline>
</glyph>
<glyph name="f_f_i" format="1">
  <advance width="999"/>
  <unicode hex="FB03"/>
  <note>
    GF Latin Plus glyph
  </note>
  <outline>
    <contour>
      <point x="20" y="467" type="line"/>
      <point x="102" y="467" type="line"/>
      <point x="102" y="0" type="line"/>
      <point x="183" y="0" type="line"/>
      <point x="183" y="467" type="line"/>
      <point x="525" y="467" type="line"/>
      <point x="525" y="534" type="line"/>
      <point x="183" y="534" type="line"/>
      <point x="183" y="595" type="line" smooth="yes"/>
      <point x="183" y="665"/>
      <point x="199" y="701"/>
      <point x="273" y="701" type="curve" smooth="yes"/>
      <point x="301" y="701"/>
      <point x="335" y="699"/>
      <point x="362" y="696" type="curve"/>
      <point x="362" y="754" type="line"/>
      <point x="334" y="762"/>
      <point x="299" y="769"/>
      <point x="249" y="769" type="curve" smooth="yes"/>
      <point x="138" y="769"/>
      <point x="102" y="716"/>
      <point x="102" y="605" type="curve" smooth="yes"/>
      <point x="102" y="534" type="line"/>
      <point x="20" y="520" type="line"/>
    </contour>
    <component base="fi" xOffset="384"/>
  </outline>
</glyph>
<glyph name="f_f_l" format="1">
  <advance width="1062"/>
  <unicode hex="FB04"/>
  <note>
    GF Latin Plus glyph
  </note>
  <outline>
    <contour>
      <point x="20" y="467" type="line"/>
      <point x="102" y="467" type="line"/>
      <point x="102" y="0" type="line"/>
      <point x="183" y="0" type="line"/>
      <point x="183" y="467" type="line"/>
      <point x="527" y="467" type="line"/>
      <point x="527" y="534" type="line"/>
      <point x="183" y="534" type="line"/>
      <point x="183" y="595" type="line" smooth="yes"/>
      <point x="183" y="665"/>
      <point x="199" y="701"/>
      <point x="273" y="701" type="curve" smooth="yes"/>
      <point x="301" y="701"/>
      <point x="335" y="699"/>
      <point x="362" y="696" type="curve"/>
      <point x="362" y="754" type="line"/>
      <point x="334" y="762"/>
      <point x="299" y="769"/>
      <point x="249" y="769" type="curve" smooth="yes"/>
      <point x="138" y="769"/>
      <point x="102" y="716"/>
      <point x="102" y="605" type="curve" smooth="yes"/>
      <point x="102" y="534" type="line"/>
      <point x="20" y="520" type="line"/>
    </contour>
    <component base="fl" xOffset="384"/>
  </outline>
</glyph>
<glyph name="ffl" format="1">
  <advance width="1047"/>
  <unicode hex="FB04"/>
  <outline>
    <contour>
      <point x="23" y="467" type="line"/>
      <point x="105" y="467" type="line"/>
      <point x="105" y="0" type="line"/>
      <point x="186" y="0" type="line"/>
      <point x="186" y="467" type="line"/>
      <point x="512" y="467" type="line"/>
      <point x="512" y="534" type="line"/>
      <point x="186" y="534" type="line"/>
      <point x="186" y="598" type="line" smooth="yes"/>
      <point x="186" y="666"/>
      <point x="201" y="701"/>
      <point x="273" y="701" type="curve" smooth="yes"/>
      <point x="362" y="701" type="line"/>
      <point x="362" y="759" type="line"/>
      <point x="336" y="764"/>
      <point x="305" y="769"/>
      <point x="259" y="769" type="curve" smooth="yes"/>
      <point x="141" y="769"/>
      <point x="105" y="708"/>
      <point x="105" y="594" type="curve" smooth="yes"/>
      <point x="105" y="534" type="line"/>
      <point x="23" y="520" type="line"/>
    </contour>
    <component base="fl" xOffset="369"/>
  </outline>
</glyph>
<glyph name="s_t" format="1">
  <advance width="859"/>
  <unicode hex="FB06"/>
  <outline>
    <contour>
      <point x="451" y="130" type="curve" smooth="yes"/>
      <point x="451" y="167" type="line" smooth="yes"/>
      <point x="451" y="252"/>
      <point x="395" y="299"/>
      <point x="298" y="299" type="curve" smooth="yes"/>
      <point x="222" y="299" type="line" smooth="yes"/>
      <point x="159" y="299"/>
      <point x="118" y="308"/>
      <point x="118" y="371" type="curve" smooth="yes"/>
      <point x="118" y="393" type="line" smooth="yes"/>
      <point x="118" y="458"/>
      <point x="161" y="476"/>
      <point x="237" y="476" type="curve" smooth="yes"/>
      <point x="595" y="476" type="line"/>
      <point x="592" y="173" type="line" smooth="yes"/>
      <point x="589" y="48"/>
      <point x="640" y="0"/>
      <point x="743" y="0" type="curve" smooth="yes"/>
      <point x="817" y="0" type="line"/>
      <point x="817" y="58" type="line"/>
      <point x="751" y="64" type="line" smooth="yes"/>
      <point x="716" y="68"/>
      <point x="670" y="81"/>
      <point x="670" y="173" type="curve" smooth="yes"/>
      <point x="670" y="469" type="line"/>
      <point x="824" y="469" type="line"/>
      <point x="824" y="534" type="line"/>
      <point x="670" y="534" type="line"/>
      <point x="670" y="683" type="line"/>
      <point x="609" y="683" type="line"/>
      <point x="597" y="529" type="line"/>
      <point x="527" y="533"/>
      <point x="364" y="539"/>
      <point x="267" y="539" type="curve" smooth="yes"/>
      <point x="112" y="539"/>
      <point x="49" y="494"/>
      <point x="49" y="395" type="curve" smooth="yes"/>
      <point x="49" y="365" type="line" smooth="yes"/>
      <point x="49" y="264"/>
      <point x="114" y="233"/>
      <point x="209" y="233" type="curve" smooth="yes"/>
      <point x="284" y="233" type="line" smooth="yes"/>
      <point x="352" y="233"/>
      <point x="381" y="205"/>
      <point x="381" y="158" type="curve" smooth="yes"/>
      <point x="381" y="134" type="line" smooth="yes"/>
      <point x="381" y="65"/>
      <point x="338" y="56"/>
      <point x="273" y="56" type="curve" smooth="yes"/>
      <point x="54" y="56" type="line"/>
      <point x="54" y="8" type="line"/>
      <point x="90" y="0"/>
      <point x="207" y="-6"/>
      <point x="260" y="-6" type="curve" smooth="yes"/>
      <point x="373" y="-6"/>
      <point x="451" y="22"/>
    </contour>
  </outline>
</glyph>
<glyph name="A.smcp" format="1">
  <advance width="570"/>
  <outline>
    <contour>
      <point x="184" y="209" type="line"/>
      <point x="284" y="502" type="line"/>
      <point x="383" y="209" type="line"/>
    </contour>
    <contour>
      <point x="37" y="0" type="line"/>
      <point x="115" y="0" type="line"/>
      <point x="169" y="151" type="line"/>
      <point x="400" y="151" type="line"/>
      <point x="454" y="0" type="line"/>
      <point x="533" y="0" type="line"/>
      <point x="340" y="560" type="line"/>
      <point x="230" y="560" type="line"/>
    </contour>
    <contour>
      <point x="284" y="650" type="move" name="top"/>
    </contour>
    <contour>
      <point x="523" y="0" type="move" name="ogonek"/>
    </contour>
    <contour>
      <point x="284" y="-147" type="move" name="bottom"/>
    </contour>
  </outline>
</glyph>
<glyph name="AE.smcp" format="1">
  <advance width="804"/>
  <outline>
    <contour>
      <point x="247" y="211" type="line"/>
      <point x="397" y="449" type="line"/>
      <point x="397" y="211" type="line"/>
    </contour>
    <contour>
      <point x="36" y="0" type="line"/>
      <point x="113" y="0" type="line"/>
      <point x="210" y="148" type="line"/>
      <point x="397" y="148" type="line"/>
      <point x="397" y="89" type="line" smooth="yes"/>
      <point x="401" y="18"/>
      <point x="447" y="-4"/>
      <point x="527" y="-3" type="curve" smooth="yes"/>
      <point x="568" y="-3"/>
      <point x="720" y="2"/>
      <point x="748" y="6" type="curve"/>
      <point x="748" y="65" type="line"/>
      <point x="541" y="65" type="line" smooth="yes"/>
      <point x="496" y="65"/>
      <point x="467" y="79"/>
      <point x="467" y="128" type="curve" smooth="yes"/>
      <point x="467" y="245" type="line"/>
      <point x="713" y="250" type="line"/>
      <point x="713" y="307" type="line"/>
      <point x="467" y="312" type="line"/>
      <point x="467" y="444" type="line" smooth="yes"/>
      <point x="467" y="476"/>
      <point x="482" y="492"/>
      <point x="523" y="492" type="curve" smooth="yes"/>
      <point x="748" y="492" type="line"/>
      <point x="748" y="552" type="line"/>
      <point x="726" y="554"/>
      <point x="556" y="560"/>
      <point x="512" y="560" type="curve" smooth="yes"/>
      <point x="413" y="561"/>
      <point x="363" y="535"/>
      <point x="318" y="459" type="curve" smooth="yes"/>
    </contour>
    <contour>
      <point x="439" y="657" type="move" name="top"/>
    </contour>
  </outline>
</glyph>
<glyph name="B.smcp" format="1">
  <advance width="514"/>
  <outline>
    <contour>
      <point x="148" y="311" type="line"/>
      <point x="148" y="498" type="line"/>
      <point x="290" y="498" type="line" smooth="yes"/>
      <point x="341" y="498"/>
      <point x="378" y="475"/>
      <point x="376" y="404" type="curve" smooth="yes"/>
      <point x="375" y="349"/>
      <point x="342" y="311"/>
      <point x="293" y="311" type="curve" smooth="yes"/>
    </contour>
    <contour>
      <point x="148" y="62" type="line"/>
      <point x="148" y="263" type="line"/>
      <point x="296" y="263" type="line" smooth="yes"/>
      <point x="352" y="263"/>
      <point x="395" y="228"/>
      <point x="395" y="167" type="curve" smooth="yes"/>
      <point x="395" y="83"/>
      <point x="355" y="62"/>
      <point x="296" y="62" type="curve" smooth="yes"/>
    </contour>
    <contour>
      <point x="72" y="0" type="line"/>
      <point x="302" y="0" type="line" smooth="yes"/>
      <point x="406" y="0"/>
      <point x="471" y="36"/>
      <point x="471" y="155" type="curve" smooth="yes"/>
      <point x="471" y="243"/>
      <point x="409" y="279"/>
      <point x="364" y="291" type="curve"/>
      <point x="410" y="303"/>
      <point x="449" y="347"/>
      <point x="449" y="416" type="curve" smooth="yes"/>
      <point x="449" y="512"/>
      <point x="397" y="560"/>
      <point x="294" y="560" type="curve" smooth="yes"/>
      <point x="72" y="560" type="line"/>
    </contour>
    <contour>
      <point x="249" y="650" type="move" name="top"/>
    </contour>
  </outline>
</glyph>
<glyph name="C.smcp" format="1">
  <advance width="493"/>
  <outline>
    <contour>
      <point x="57" y="282" type="curve" smooth="yes"/>
      <point x="57" y="41"/>
      <point x="126" y="-5"/>
      <point x="267" y="-5" type="curve" smooth="yes"/>
      <point x="333" y="-5"/>
      <point x="397" y="3"/>
      <point x="446" y="14" type="curve"/>
      <point x="446" y="71" type="line"/>
      <point x="414" y="66"/>
      <point x="364" y="62"/>
      <point x="283" y="62" type="curve" smooth="yes"/>
      <point x="171" y="62"/>
      <point x="135" y="97"/>
      <point x="135" y="281" type="curve" smooth="yes"/>
      <point x="135" y="462"/>
      <point x="175" y="499"/>
      <point x="285" y="499" type="curve" smooth="yes"/>
      <point x="351" y="499"/>
      <point x="418" y="492"/>
      <point x="446" y="487" type="curve"/>
      <point x="446" y="543" type="line"/>
      <point x="400" y="555"/>
      <point x="330" y="565"/>
      <point x="271" y="565" type="curve" smooth="yes"/>
      <point x="128" y="565"/>
      <point x="57" y="510"/>
    </contour>
    <contour>
      <point x="271" y="657" type="move" name="top"/>
    </contour>
    <contour>
      <point x="281" y="-150" type="move" name="bottom"/>
    </contour>
  </outline>
</glyph>
<glyph name="D.smcp" format="1">
  <advance width="566"/>
  <outline>
    <contour>
      <point x="148" y="65" type="line"/>
      <point x="148" y="495" type="line"/>
      <point x="304" y="495" type="line" smooth="yes"/>
      <point x="392" y="495"/>
      <point x="432" y="442"/>
      <point x="432" y="280" type="curve" smooth="yes"/>
      <point x="432" y="147"/>
      <point x="394" y="65"/>
      <point x="304" y="65" type="curve" smooth="yes"/>
    </contour>
    <contour>
      <point x="72" y="0" type="line"/>
      <point x="310" y="0" type="line" smooth="yes"/>
      <point x="442" y="0"/>
      <point x="508" y="102"/>
      <point x="508" y="280" type="curve" smooth="yes"/>
      <point x="508" y="457"/>
      <point x="457" y="560"/>
      <point x="310" y="560" type="curve" smooth="yes"/>
      <point x="72" y="560" type="line"/>
    </contour>
    <contour>
      <point x="270" y="650" type="move" name="top"/>
    </contour>
    <contour>
      <point x="255" y="-150" type="move" name="bottom"/>
    </contour>
  </outline>
</glyph>
<glyph name="E.smcp" format="1">
  <advance width="499"/>
  <outline>
    <contour>
      <point x="71" y="106" type="line" smooth="yes"/>
      <point x="71" y="6"/>
      <point x="150" y="-4"/>
      <point x="202" y="-3" type="curve" smooth="yes"/>
      <point x="237" y="-3"/>
      <point x="413" y="1"/>
      <point x="444" y="5" type="curve"/>
      <point x="444" y="65" type="line"/>
      <point x="216" y="65" type="line" smooth="yes"/>
      <point x="182" y="65"/>
      <point x="149" y="75"/>
      <point x="149" y="128" type="curve" smooth="yes"/>
      <point x="149" y="245" type="line"/>
      <point x="408" y="250" type="line"/>
      <point x="408" y="307" type="line"/>
      <point x="149" y="312" type="line"/>
      <point x="149" y="431" type="line" smooth="yes"/>
      <point x="149" y="473"/>
      <point x="174" y="492"/>
      <point x="214" y="492" type="curve" smooth="yes"/>
      <point x="444" y="492" type="line"/>
      <point x="444" y="552" type="line"/>
      <point x="420" y="555"/>
      <point x="252" y="560"/>
      <point x="193" y="560" type="curve" smooth="yes"/>
      <point x="135" y="561"/>
      <point x="71" y="534"/>
      <point x="71" y="447" type="curve" smooth="yes"/>
    </contour>
    <contour>
      <point x="263" y="650" type="move" name="top"/>
    </contour>
    <contour>
      <point x="434" y="5" type="move" name="ogonek"/>
    </contour>
    <contour>
      <point x="272" y="-150" type="move" name="bottom"/>
    </contour>
  </outline>
</glyph>
<glyph name="Eng.smcp" format="1">
  <advance width="574"/>
  <outline>
    <contour>
      <point x="284" y="-172" type="line"/>
      <point x="307" y="-181"/>
      <point x="344" y="-189"/>
      <point x="376" y="-189" type="curve" smooth="yes"/>
      <point x="471" y="-189"/>
      <point x="516" y="-152"/>
      <point x="516" y="-58" type="curve" smooth="yes"/>
      <point x="516" y="35" type="line"/>
      <point x="440" y="35" type="line"/>
      <point x="440" y="-49" type="line" smooth="yes"/>
      <point x="440" y="-108"/>
      <point x="410" y="-125"/>
      <point x="363" y="-125" type="curve" smooth="yes"/>
      <point x="349" y="-125"/>
      <point x="297" y="-120"/>
      <point x="284" y="-116" type="curve"/>
    </contour>
    <component base="N.smcp"/>
  </outline>
</glyph>
<glyph name="F.smcp" format="1">
  <advance width="484"/>
  <outline>
    <contour>
      <point x="71" y="0" type="line"/>
      <point x="149" y="0" type="line"/>
      <point x="149" y="233" type="line"/>
      <point x="408" y="237" type="line"/>
      <point x="408" y="295" type="line"/>
      <point x="149" y="299" type="line"/>
      <point x="149" y="431" type="line" smooth="yes"/>
      <point x="149" y="470"/>
      <point x="172" y="492"/>
      <point x="213" y="492" type="curve" smooth="yes"/>
      <point x="444" y="492" type="line"/>
      <point x="444" y="552" type="line"/>
      <point x="403" y="558"/>
      <point x="215" y="560"/>
      <point x="193" y="560" type="curve" smooth="yes"/>
      <point x="135" y="561"/>
      <point x="71" y="534"/>
      <point x="71" y="447" type="curve" smooth="yes"/>
    </contour>
    <contour>
      <point x="263" y="650" type="move" name="top"/>
    </contour>
  </outline>
</glyph>
<glyph name="G.smcp" format="1">
  <advance width="552"/>
  <outline>
    <contour>
      <point x="57" y="281" type="curve" smooth="yes"/>
      <point x="57" y="91"/>
      <point x="94" y="-4"/>
      <point x="245" y="-4" type="curve" smooth="yes"/>
      <point x="313" y="-3"/>
      <point x="375" y="21"/>
      <point x="412" y="39" type="curve"/>
      <point x="423" y="0" type="line"/>
      <point x="481" y="0" type="line"/>
      <point x="481" y="302" type="line"/>
      <point x="462" y="303"/>
      <point x="436" y="304"/>
      <point x="406" y="304" type="curve" smooth="yes"/>
      <point x="356" y="304"/>
      <point x="303" y="301"/>
      <point x="272" y="297" type="curve"/>
      <point x="272" y="240" type="line"/>
      <point x="406" y="240" type="line"/>
      <point x="406" y="90" type="line"/>
      <point x="371" y="77"/>
      <point x="318" y="64"/>
      <point x="268" y="64" type="curve" smooth="yes"/>
      <point x="164" y="64"/>
      <point x="135" y="111"/>
      <point x="135" y="280" type="curve" smooth="yes"/>
      <point x="135" y="440"/>
      <point x="162" y="499"/>
      <point x="275" y="499" type="curve" smooth="yes"/>
      <point x="347" y="499"/>
      <point x="423" y="492"/>
      <point x="456" y="488" type="curve"/>
      <point x="456" y="544" type="line"/>
      <point x="399" y="556"/>
      <point x="330" y="565"/>
      <point x="262" y="565" type="curve" smooth="yes"/>
      <point x="98" y="565"/>
      <point x="57" y="468"/>
    </contour>
    <contour>
      <point x="276" y="650" type="move" name="top"/>
    </contour>
    <contour>
      <point x="288" y="-150" type="move" name="bottom"/>
    </contour>
  </outline>
</glyph>
<glyph name="Germandbls.smcp" format="1">
  <advance width="575"/>
  <outline>
    <contour>
      <point x="320" y="288" type="line"/>
      <point x="487" y="497" type="line"/>
      <point x="487" y="554" type="line"/>
      <point x="407" y="495" type="line"/>
      <point x="255" y="303" type="line"/>
    </contour>
    <contour>
      <point x="255" y="243" type="line"/>
      <point x="352" y="243" type="line" smooth="yes"/>
      <point x="416" y="243"/>
      <point x="440" y="218"/>
      <point x="440" y="171" type="curve" smooth="yes"/>
      <point x="440" y="137" type="line" smooth="yes"/>
      <point x="440" y="74"/>
      <point x="391" y="62"/>
      <point x="325" y="62" type="curve" smooth="yes"/>
      <point x="298" y="62"/>
      <point x="228" y="63"/>
      <point x="215" y="64" type="curve"/>
      <point x="215" y="7" type="line"/>
      <point x="244" y="1"/>
      <point x="303" y="-5"/>
      <point x="338" y="-5" type="curve" smooth="yes"/>
      <point x="438" y="-5"/>
      <point x="518" y="22"/>
      <point x="518" y="135" type="curve" smooth="yes"/>
      <point x="518" y="175" type="line" smooth="yes"/>
      <point x="518" y="258"/>
      <point x="466" y="303"/>
      <point x="371" y="303" type="curve" smooth="yes"/>
      <point x="255" y="303" type="line"/>
    </contour>
    <contour>
      <point x="71" y="0" type="line"/>
      <point x="149" y="0" type="line"/>
      <point x="149" y="423" type="line" smooth="yes"/>
      <point x="149" y="470"/>
      <point x="177" y="493"/>
      <point x="226" y="493" type="curve" smooth="yes"/>
      <point x="454" y="493" type="line"/>
      <point x="487" y="554" type="line"/>
      <point x="448" y="557"/>
      <point x="280" y="560"/>
      <point x="222" y="560" type="curve" smooth="yes"/>
      <point x="143" y="561"/>
      <point x="71" y="524"/>
      <point x="71" y="422" type="curve" smooth="yes"/>
    </contour>
  </outline>
</glyph>
<glyph name="H.smcp" format="1">
  <advance width="578"/>
  <outline>
    <contour>
      <point x="71" y="0" type="line"/>
      <point x="149" y="0" type="line"/>
      <point x="149" y="241" type="line"/>
      <point x="428" y="241" type="line"/>
      <point x="428" y="0" type="line"/>
      <point x="506" y="0" type="line"/>
      <point x="506" y="560" type="line"/>
      <point x="428" y="560" type="line"/>
      <point x="428" y="307" type="line"/>
      <point x="149" y="307" type="line"/>
      <point x="149" y="560" type="line"/>
      <point x="71" y="560" type="line"/>
    </contour>
    <contour>
      <point x="289" y="650" type="move" name="top"/>
    </contour>
  </outline>
</glyph>
